<svg width="20" height="20" viewBox="0 0 20 20" fill="none" xmlns="http://www.w3.org/2000/svg">
<path fill-rule="evenodd" clip-rule="evenodd" d="M10 0C4.477 0 0 4.477 0 10C0 15.523 4.477 20 10 20C15.523 20 20 15.523 20 10C20 4.477 15.523 0 10 0ZM10 1C5.0295 1 1 5.0295 1 10C1 14.9705 5.0295 19 10 19C14.9705 19 19 14.9705 19 10C19 5.0295 14.9705 1 10 1Z" fill="#FFAD3F"/>
<path d="M11 4.5C11 4.23478 10.8946 3.98043 10.7071 3.79289C10.5196 3.60536 10.2652 3.5 10 3.5C9.73478 3.5 9.48043 3.60536 9.29289 3.79289C9.10536 3.98043 9 4.23478 9 4.5V11.5C9 11.7652 9.10536 12.0196 9.29289 12.2071C9.48043 12.3946 9.73478 12.5 10 12.5C10.2652 12.5 10.5196 12.3946 10.7071 12.2071C10.8946 12.0196 11 11.7652 11 11.5V4.5ZM10 14.5C10.2652 14.5 10.5196 14.6054 10.7071 14.7929C10.8946 14.9804 11 15.2348 11 15.5C11 15.7652 10.8946 16.0196 10.7071 16.2071C10.5196 16.3946 10.2652 16.5 10 16.5C9.73478 16.5 9.48043 16.3946 9.29289 16.2071C9.10536 16.0196 9 15.7652 9 15.5C9 15.2348 9.10536 14.9804 9.29289 14.7929C9.48043 14.6054 9.73478 14.5 10 14.5Z" fill="#FFAD3F"/>
</svg>
