<svg viewBox="0 0 33 33" fill="none" xmlns="http://www.w3.org/2000/svg">
<g filter="url(#filter0_d_336_1327)">
<circle cx="16.5" cy="12.5" r="12.5" fill="white"/>
</g>
<g filter="url(#filter1_d_336_1327)">
<path d="M22.4683 14.1761V14.3988L22.6338 14.5478L24.124 15.889L24.1247 15.8896C24.1571 15.9187 24.1797 15.9503 24.1939 15.9812C24.208 16.0119 24.2143 16.0426 24.2143 16.072V16.0728V16.8585C24.2143 16.9163 24.1893 16.9838 24.1241 17.0425C24.0572 17.1027 23.9562 17.1443 23.8413 17.1443H9.87302C9.75808 17.1443 9.65707 17.1027 9.59018 17.0425C9.52503 16.9838 9.5 16.9163 9.5 16.8585L9.5 16.0728L9.5 16.072C9.49995 16.0426 9.50629 16.0119 9.52041 15.9812C9.53462 15.9503 9.55716 15.9187 9.58961 15.8896L9.59028 15.889L11.0805 14.5478L11.246 14.3988V14.1761V10.5728C11.246 8.31373 12.9561 6.35585 15.3579 5.76087L15.5961 5.70186L15.6952 5.47734C15.8644 5.09373 16.2997 4.78711 16.8571 4.78711C17.4145 4.78711 17.8499 5.09373 18.0191 5.47734L18.1182 5.70184L18.3563 5.76086C20.7574 6.35585 22.4683 8.3138 22.4683 10.5728V14.1761ZM9 16.0728V16.8585C9 17.0669 9.09198 17.2668 9.2557 17.4141C9.41942 17.5615 9.64148 17.6443 9.87302 17.6443H23.8413C24.0728 17.6443 24.2949 17.5615 24.4586 17.4141C24.6223 17.2668 24.7143 17.0669 24.7143 16.8585V16.0728C24.7145 15.9696 24.6919 15.8674 24.648 15.7721C24.6041 15.6767 24.5397 15.5902 24.4585 15.5173L9 16.0728Z" fill="#FFC107" stroke="#4B5563"/>
<mask id="path-3-inside-1_336_1327" fill="white">
<path d="M11.5 4.45451L11.3536 4.28711C9 6.89659 9 8.78773 9 11.2314H9.71429L9.35714 11.2313C9.35714 8.89692 9.56786 6.59599 11.5 4.45451ZM22.36 4.28711L22.2143 4.45451C24.1457 6.59599 24.3571 8.84669 24.3571 11.2313L24.7143 11.1811C24.7143 8.78773 24.7143 6.89659 22.36 4.28711ZM16.8571 20.0014C17.2995 20.002 17.731 19.8488 18.0918 19.563C18.4525 19.2773 18.7245 18.8731 18.87 18.4068C17.4716 19.6732 16.5927 19.6917 14.8443 18.4068C14.9898 18.8731 15.2618 19.2773 15.6225 19.563C15.9832 19.8488 16.4148 20.002 16.8571 20.0014Z"/>
</mask>
<path d="M11.5 4.45451L11.3536 4.28711C9 6.89659 9 8.78773 9 11.2314H9.71429L9.35714 11.2313C9.35714 8.89692 9.56786 6.59599 11.5 4.45451ZM22.36 4.28711L22.2143 4.45451C24.1457 6.59599 24.3571 8.84669 24.3571 11.2313L24.7143 11.1811C24.7143 8.78773 24.7143 6.89659 22.36 4.28711ZM16.8571 20.0014C17.2995 20.002 17.731 19.8488 18.0918 19.563C18.4525 19.2773 18.7245 18.8731 18.87 18.4068C17.4716 19.6732 16.5927 19.6917 14.8443 18.4068C14.9898 18.8731 15.2618 19.2773 15.6225 19.563C15.9832 19.8488 16.4148 20.002 16.8571 20.0014Z" fill="#FFC107"/>
<path d="M11.5 4.45451L12.2425 5.12439L12.8376 4.46479L12.2527 3.79611L11.5 4.45451ZM11.3536 4.28711L12.1062 3.62872L11.365 2.78134L10.611 3.61735L11.3536 4.28711ZM9 11.2314H8V12.2314H9V11.2314ZM9.71429 11.2314V12.2314L9.71437 10.2314L9.71429 11.2314ZM9.35714 11.2313H8.35714V12.2313L9.35705 12.2313L9.35714 11.2313ZM22.36 4.28711L23.1025 3.61724L22.3466 2.77943L21.6057 3.63054L22.36 4.28711ZM22.2143 4.45451L21.46 3.79794L20.8783 4.46627L21.4717 5.12426L22.2143 4.45451ZM24.3571 11.2313H23.3571V12.3817L24.4963 12.2216L24.3571 11.2313ZM24.7143 11.1811L24.8535 12.1714L25.7143 12.0504V11.1811H24.7143ZM16.8571 20.0014L16.8585 19.0014L16.8557 19.0014L16.8571 20.0014ZM18.87 18.4068L19.8246 18.7047L20.9166 15.2044L18.1988 17.6656L18.87 18.4068ZM14.8443 18.4068L15.4365 17.601L12.9828 15.7979L13.8897 18.7047L14.8443 18.4068ZM12.2527 3.79611L12.1062 3.62872L10.6009 4.9455L10.7473 5.1129L12.2527 3.79611ZM10.611 3.61735C9.34677 5.01904 8.66956 6.28138 8.32789 7.56402C7.99446 8.81573 8 10.0313 8 11.2314H10C10 9.98783 10.0055 9.03598 10.2605 8.07883C10.5072 7.15263 11.0068 6.16466 12.0962 4.95687L10.611 3.61735ZM9 12.2314H9.71429V10.2314H9V12.2314ZM9.71437 10.2314L9.35723 10.2313L9.35705 12.2313L9.7142 12.2314L9.71437 10.2314ZM10.3571 11.2313C10.3571 8.95898 10.5684 6.97988 12.2425 5.12439L10.7575 3.78462C8.56736 6.21209 8.35714 8.83486 8.35714 11.2313H10.3571ZM21.6057 3.63054L21.46 3.79794L22.9685 5.11107L23.1143 4.94368L21.6057 3.63054ZM21.4717 5.12426C23.1462 6.98088 23.3571 8.91148 23.3571 11.2313H25.3571C25.3571 8.78191 25.1452 6.21109 22.9569 3.78476L21.4717 5.12426ZM24.4963 12.2216L24.8535 12.1714L24.5751 10.1909L24.218 10.2411L24.4963 12.2216ZM25.7143 11.1811C25.7143 10.0053 25.7198 8.80221 25.3859 7.5563C25.044 6.28059 24.3669 5.0187 23.1025 3.61724L21.6175 4.95698C22.7074 6.165 23.2074 7.15342 23.4541 8.074C23.7088 9.02439 23.7143 9.96354 23.7143 11.1811H25.7143ZM16.8557 21.0014C17.5337 21.0023 18.1826 20.7668 18.7127 20.3469L17.4708 18.7792C17.2795 18.9308 17.0653 19.0017 16.8585 19.0014L16.8557 21.0014ZM18.7127 20.3469C19.2409 19.9285 19.6232 19.3504 19.8246 18.7047L17.9154 18.109C17.8259 18.3959 17.6641 18.626 17.4708 18.7792L18.7127 20.3469ZM18.1988 17.6656C17.5485 18.2544 17.2159 18.3627 16.9846 18.3635C16.7158 18.3646 16.2854 18.2249 15.4365 17.601L14.2521 19.2127C15.1516 19.8736 16.0348 20.3671 16.9922 20.3635C17.9871 20.3598 18.7931 19.8256 19.5412 19.1481L18.1988 17.6656ZM13.8897 18.7047C14.0911 19.3504 14.4734 19.9285 15.0016 20.3469L16.2435 18.7792C16.0501 18.626 15.8884 18.3959 15.7989 18.109L13.8897 18.7047ZM15.0016 20.3469C15.5317 20.7668 16.1806 21.0023 16.8585 21.0014L16.8557 19.0014C16.6489 19.0017 16.4348 18.9308 16.2435 18.7792L15.0016 20.3469Z" fill="#4B5563" mask="url(#path-3-inside-1_336_1327)"/>
</g>
<defs>
<filter id="filter0_d_336_1327" x="0" y="0" width="33" height="33" filterUnits="userSpaceOnUse" color-interpolation-filters="sRGB">
<feFlood flood-opacity="0" result="BackgroundImageFix"/>
<feColorMatrix in="SourceAlpha" type="matrix" values="0 0 0 0 0 0 0 0 0 0 0 0 0 0 0 0 0 0 127 0" result="hardAlpha"/>
<feOffset dy="4"/>
<feGaussianBlur stdDeviation="2"/>
<feComposite in2="hardAlpha" operator="out"/>
<feColorMatrix type="matrix" values="0 0 0 0 0 0 0 0 0 0 0 0 0 0 0 0 0 0 0.25 0"/>
<feBlend mode="normal" in2="BackgroundImageFix" result="effect1_dropShadow_336_1327"/>
<feBlend mode="normal" in="SourceGraphic" in2="effect1_dropShadow_336_1327" result="shape"/>
</filter>
<filter id="filter1_d_336_1327" x="5" y="4.28711" width="23.7148" height="23.7148" filterUnits="userSpaceOnUse" color-interpolation-filters="sRGB">
<feFlood flood-opacity="0" result="BackgroundImageFix"/>
<feColorMatrix in="SourceAlpha" type="matrix" values="0 0 0 0 0 0 0 0 0 0 0 0 0 0 0 0 0 0 127 0" result="hardAlpha"/>
<feOffset dy="4"/>
<feGaussianBlur stdDeviation="2"/>
<feComposite in2="hardAlpha" operator="out"/>
<feColorMatrix type="matrix" values="0 0 0 0 0 0 0 0 0 0 0 0 0 0 0 0 0 0 0.25 0"/>
<feBlend mode="normal" in2="BackgroundImageFix" result="effect1_dropShadow_336_1327"/>
<feBlend mode="normal" in="SourceGraphic" in2="effect1_dropShadow_336_1327" result="shape"/>
</filter>
</defs>
</svg>
