<svg width="68" height="70" viewBox="0 0 68 70" fill="none" xmlns="http://www.w3.org/2000/svg">
<path d="M64.2131 17.2769H25.2979C23.3321 17.2769 21.7383 18.7759 21.7383 20.6252V57.2319C21.7383 59.0813 23.3321 60.5803 25.2979 60.5803H52.2212L63.0496 68.9688V60.5803H64.2131C66.179 60.5803 67.7726 59.0813 67.7726 57.2319V20.6252C67.7726 18.7759 66.179 17.2769 64.2131 17.2769" fill="white"/>
<path d="M67.643 30.9492H21.8678C21.7962 30.9492 21.7383 30.8949 21.7383 30.8273V21.0266C21.7383 18.9558 23.5226 17.2774 25.7241 17.2774H64.3738C66.2509 17.2774 67.7726 18.7088 67.7726 20.4751V30.8273C67.7726 30.8949 67.7143 30.9492 67.643 30.9492Z" fill="#F2575D"/>
<path d="M51.1851 25.0335C51.1851 25.1101 48.022 25.1719 44.1211 25.1719C40.2188 25.1719 37.0566 25.1101 37.0566 25.0335C37.0566 24.9574 40.2188 24.8951 44.1211 24.8951C48.022 24.8951 51.1851 24.9574 51.1851 25.0335Z" fill="#17282F"/>
<path d="M64.2133 17.2767C64.2133 17.2767 64.2936 17.2735 64.4538 17.2783C64.6122 17.282 64.8527 17.3022 65.1566 17.3789C65.7514 17.5183 66.6857 17.9197 67.3229 18.9232C67.6398 19.4129 67.8395 20.0586 67.8231 20.764C67.826 21.4634 67.8293 22.2257 67.8327 23.0487C67.8378 24.6968 67.8435 26.5882 67.8503 28.7031C67.8588 32.9373 67.869 38.0658 67.8808 43.9315C67.8848 46.8652 67.8888 49.983 67.8933 53.2648C67.8939 54.0851 67.895 54.9161 67.8961 55.7572C67.8961 56.1772 67.8967 56.6004 67.8973 57.0257C67.904 57.45 67.8622 57.9078 67.7077 58.3273C67.4128 59.1748 66.7462 59.912 65.8804 60.3235C65.4492 60.5306 64.971 60.6562 64.4832 60.6892C64.168 60.7063 63.8641 60.7047 63.5597 60.7031C63.391 60.702 63.2218 60.7015 63.0503 60.7036L63.1805 60.5801C63.1828 63.2253 63.1845 66.0594 63.1873 68.9686V69.2422L62.9626 69.0686C59.4999 66.3889 55.8691 63.5782 52.1297 60.685L52.2214 60.7153C45.5516 60.7164 38.5495 60.718 31.3609 60.7191C29.7198 60.7191 28.0884 60.7191 26.4679 60.7185L25.2525 60.7164C24.8317 60.7153 24.4141 60.636 24.0208 60.5019C23.2316 60.2341 22.5523 59.7034 22.1271 59.0305C21.9131 58.6951 21.7563 58.3284 21.6703 57.9461C21.5857 57.5623 21.5914 57.1679 21.5921 56.8016C21.5925 56.0553 21.5925 55.3122 21.5927 54.5717C21.593 53.0918 21.5937 51.6231 21.5941 50.1677C21.597 44.3451 21.5998 38.7296 21.6027 33.3786C21.6047 30.7036 21.6069 28.0952 21.6089 25.5608C21.6098 24.2938 21.6114 23.045 21.6124 21.8159C21.6297 21.201 21.5678 20.5957 21.6823 19.9681C21.8138 19.3565 22.1103 18.7757 22.553 18.3222C22.9854 17.8596 23.5518 17.5237 24.1612 17.3336C24.6986 17.159 25.2647 17.1617 25.7983 17.1649C25.8752 17.1654 25.9515 17.1654 26.0271 17.1654C27.2473 17.167 28.4446 17.1681 29.6186 17.1697C31.9659 17.1723 34.2191 17.1755 36.3695 17.1787C44.9667 17.1968 51.9243 17.2123 56.7429 17.2224C59.1423 17.2341 61.0075 17.2426 62.2819 17.2485C62.9094 17.2548 63.3899 17.2591 63.7226 17.2623C64.0469 17.2671 64.2133 17.2767 64.2133 17.2767C64.2133 17.2767 64.0469 17.2863 63.7226 17.2905C63.3899 17.2937 62.9094 17.2985 62.2819 17.3044C61.0075 17.3102 59.1423 17.3193 56.7429 17.3304C51.9243 17.3411 44.9667 17.356 36.3695 17.3746C34.2191 17.3773 31.9659 17.3805 29.6186 17.3831C28.4446 17.3847 27.2473 17.3863 26.0271 17.3874C25.9506 17.3879 25.8741 17.3874 25.7979 17.3874C25.2618 17.3858 24.7357 17.3842 24.2355 17.5487C23.6669 17.7276 23.1382 18.0422 22.7354 18.4755C22.3222 18.8992 22.0479 19.4422 21.9259 20.0123C21.8209 20.5798 21.879 21.2037 21.8644 21.8159C21.8656 23.045 21.8669 24.2938 21.868 25.5608C21.87 28.0952 21.8722 30.7036 21.8739 33.3786C21.8768 38.7296 21.8799 44.3451 21.8825 50.1677C21.8832 51.6231 21.8837 53.0918 21.8841 54.5717C21.8844 55.3122 21.8844 56.0553 21.8846 56.8016C21.8837 57.1807 21.8793 57.5378 21.9573 57.8903C22.0364 58.2416 22.1808 58.5796 22.3782 58.8878C22.7696 59.508 23.3961 59.9967 24.1223 60.2426C24.6778 60.455 25.289 60.4486 25.9144 60.4422C26.0981 60.4401 26.2828 60.4385 26.4679 60.4422C28.0884 60.4422 29.7198 60.4422 31.3609 60.4417C38.5495 60.4433 45.5516 60.4444 52.2214 60.4454H52.2729L52.313 60.4758C56.0491 63.3732 59.677 66.1866 63.1375 68.8696L62.9128 68.9686C62.9151 66.0594 62.9174 63.2253 62.9196 60.5801V60.4587L63.0503 60.4577C63.219 60.4555 63.3899 60.4566 63.5608 60.4577C63.8675 60.4598 64.1737 60.4619 64.4645 60.4465C64.9184 60.4162 65.3626 60.3001 65.7644 60.1085C66.5702 59.7273 67.1933 59.0411 67.4689 58.2528C67.6137 57.8556 67.6528 57.45 67.6483 57.0257C67.6488 56.6004 67.6494 56.1772 67.65 55.7572C67.6505 54.9161 67.6517 54.0851 67.6522 53.2648C67.6567 49.983 67.6613 46.8652 67.6647 43.9315C67.6766 38.0658 67.6867 32.9373 67.6952 28.7031C67.702 26.5882 67.7077 24.6968 67.7128 23.0487C67.6647 21.4187 67.9408 19.9447 67.2516 18.962C66.641 17.9746 65.7304 17.5668 65.1459 17.4167C64.5426 17.2655 64.2104 17.2953 64.2133 17.2767" fill="#17282F"/>
<path d="M51.6239 22.8125H51.5243C50.7247 22.8125 50.0762 22.2024 50.0762 21.4503V14.3942C50.0762 13.6415 50.7247 13.032 51.5243 13.032H51.6239C52.4241 13.032 53.072 13.6415 53.072 14.3942V21.4503C53.072 22.2024 52.4241 22.8125 51.6239 22.8125Z" fill="#DADBD8"/>
<path d="M51.6244 22.8132C51.6114 22.7759 51.9996 22.8329 52.4761 22.4836C52.7019 22.3101 52.9271 22.0152 52.9758 21.6271C52.9973 21.2385 52.969 20.7546 52.9684 20.2425C52.9594 19.1933 52.9486 17.9658 52.9373 16.6105C52.9345 15.9254 52.9311 15.2083 52.9282 14.4657C52.9407 14.116 52.81 13.7817 52.5485 13.5331C52.2854 13.2845 51.9232 13.154 51.5254 13.1711C51.1468 13.1695 50.7818 13.3329 50.5419 13.5943C50.2917 13.8615 50.1989 14.1921 50.2216 14.5583C50.2182 15.3009 50.2153 16.0185 50.2125 16.7036C50.2012 18.0589 50.1904 19.287 50.1808 20.3362C50.1774 20.5934 50.174 20.8393 50.1706 21.074C50.1712 21.3088 50.148 21.5281 50.1882 21.7144C50.2674 22.0982 50.513 22.3772 50.7507 22.5374C51.2509 22.8536 51.6357 22.7738 51.6244 22.8132C51.6239 22.8217 51.5412 22.835 51.3749 22.8339C51.2108 22.8275 50.9606 22.7855 50.6867 22.6269C50.4196 22.4677 50.1327 22.1738 50.0269 21.7458C49.9737 21.5287 49.9918 21.3035 49.9833 21.074C49.9799 20.8393 49.9765 20.5934 49.9726 20.3362C49.9635 19.287 49.9528 18.0589 49.9414 16.7036C49.9386 16.0185 49.9352 15.3009 49.9324 14.5583C49.9024 14.1846 50.0156 13.7252 50.32 13.4138C50.612 13.0928 51.0625 12.8916 51.5254 12.8937C51.9674 12.8719 52.4461 13.0343 52.7568 13.3388C53.0759 13.6358 53.2355 14.0712 53.2174 14.4657C53.214 15.2083 53.2112 15.9254 53.2084 16.6105C53.1971 17.9658 53.1863 19.1933 53.1767 20.2425C53.1631 20.7642 53.1789 21.2178 53.1388 21.6479C53.0675 22.0817 52.8015 22.3948 52.5463 22.5688C52.2871 22.7488 52.037 22.8015 51.8751 22.8196C51.7104 22.8376 51.6239 22.818 51.6244 22.8132Z" fill="#17282F"/>
<path d="M37.571 22.8125H37.4716C36.6718 22.8125 36.0234 22.2024 36.0234 21.4503V14.3942C36.0234 13.6415 36.6718 13.032 37.4716 13.032H37.571C38.3708 13.032 39.0193 13.6415 39.0193 14.3942V21.4503C39.0193 22.2024 38.3708 22.8125 37.571 22.8125Z" fill="#DADBD8"/>
<path d="M37.5718 22.8132C37.559 22.7759 37.9472 22.8329 38.4229 22.4836C38.6493 22.3101 38.8745 22.0152 38.9231 21.6271C38.9441 21.2385 38.9163 20.7546 38.9158 20.2425C38.9068 19.1933 38.8962 17.9658 38.8842 16.6105C38.8814 15.9254 38.8787 15.2083 38.8756 14.4657C38.888 14.116 38.7574 13.7817 38.4959 13.5331C38.2326 13.2845 37.8705 13.154 37.473 13.1711C37.0941 13.1695 36.7292 13.3329 36.4889 13.5943C36.2394 13.8615 36.1465 14.1921 36.1686 14.5583C36.1657 15.3009 36.1626 16.0185 36.16 16.7036C36.1482 18.0589 36.1377 19.287 36.1284 20.3362C36.1248 20.5934 36.1213 20.8393 36.118 21.074C36.1189 21.3088 36.0957 21.5281 36.1357 21.7144C36.2146 22.0982 36.4606 22.3772 36.698 22.5374C37.1985 22.8536 37.5827 22.7738 37.5718 22.8132C37.5714 22.8217 37.4885 22.835 37.322 22.8339C37.1583 22.8275 36.908 22.7855 36.6339 22.6269C36.3671 22.4677 36.0795 22.1738 35.9743 21.7458C35.9213 21.5287 35.9391 21.3035 35.9305 21.074C35.9274 20.8393 35.9236 20.5934 35.9201 20.3362C35.9111 19.287 35.9002 18.0589 35.8883 16.7036C35.8859 16.0185 35.8828 15.3009 35.8797 14.5583C35.8496 14.1846 35.963 13.7252 36.2672 13.4138C36.5596 13.0928 37.0097 12.8916 37.473 12.8937C37.9145 12.8719 38.3937 13.0343 38.7041 13.3388C39.0235 13.6358 39.1829 14.0712 39.1643 14.4657C39.1612 15.2083 39.1586 15.9254 39.1557 16.6105C39.144 17.9658 39.1333 19.1933 39.1243 20.2425C39.1106 20.7642 39.1263 21.2178 39.0865 21.6479C39.0148 22.0817 38.7487 22.3948 38.4934 22.5688C38.2344 22.7488 37.9841 22.8015 37.8223 22.8196C37.6578 22.8376 37.5714 22.818 37.5718 22.8132Z" fill="#17282F"/>
<path d="M21.872 32.2148C21.8718 31.7906 21.8715 31.3684 21.8711 30.9474H26.4526C25.0153 31.6085 23.4615 32.0445 21.872 32.2148" fill="#A7A9A8"/>
<path d="M26.4533 30.9492H21.8718C21.8715 30.674 21.8713 30.3993 21.8711 30.1252L22.2745 24.96L29.2881 17.789L34.3131 17.6862C34.6878 21.1432 33.5471 24.7236 31.2135 27.4167C29.9258 28.9024 28.2838 30.1081 26.4533 30.9492Z" fill="#CC4341"/>
<path d="M21.707 32.2344L21.8717 30.1258C21.8719 30.4 21.8722 30.6746 21.8724 30.9499C21.8728 31.3709 21.8731 31.7931 21.8733 32.2173C21.818 32.2232 21.7625 32.2291 21.707 32.2344" fill="#0F191D"/>
<path d="M31.8094 15.4299C32.8348 22.2166 27.8174 28.5002 20.603 29.4648C13.3888 30.4294 6.70921 25.7097 5.68375 18.923C4.65829 12.1369 9.6753 5.85327 16.8896 4.88869C24.1041 3.92411 30.7839 8.64375 31.8094 15.4299Z" fill="white"/>
<path d="M18.7699 6.10199C18.2119 6.10199 17.6507 6.13873 17.0888 6.21432C13.9756 6.6306 11.2211 8.16211 9.33287 10.5273C7.44442 12.8919 6.64843 15.8069 7.09073 18.7352C8.0046 24.7799 13.9772 29.0044 20.4012 28.1394C26.8273 27.2802 31.3124 21.6636 30.3988 15.619C29.9563 12.6906 28.3282 10.0993 25.8142 8.32287C23.7544 6.86748 21.3012 6.10199 18.7699 6.10199V6.10199ZM18.7352 30.9277C11.5788 30.9283 5.30906 25.9654 4.27319 19.1116C3.72387 15.4753 4.71266 11.8554 7.05734 8.91909C9.4023 5.98223 12.8226 4.08074 16.6878 3.56331C20.5533 3.04695 24.4012 3.9764 27.5236 6.18237C30.6453 8.38835 32.6673 11.6058 33.2161 15.2421C34.3506 22.748 28.7816 29.7231 20.8018 30.7904C20.1077 30.8825 19.4167 30.9277 18.7352 30.9277" fill="#33535F"/>
<path d="M18.7719 6.10131C18.7719 6.09652 18.8365 6.0928 18.9631 6.09067C19.0893 6.088 19.2779 6.08535 19.5244 6.09813C20.0166 6.11995 20.7472 6.17904 21.6619 6.38771C22.5731 6.59745 23.6715 6.96209 24.825 7.60408C25.9738 8.24394 27.1806 9.1638 28.2107 10.4244C29.243 11.678 30.0682 13.2894 30.4378 15.1286C30.5372 15.5869 30.566 16.0623 30.6168 16.543C30.6528 16.7836 30.6268 17.0274 30.6316 17.2728C30.6223 17.5177 30.6429 17.7663 30.6089 18.0138C30.5284 19.0082 30.2974 20.0175 29.9289 21.0113C29.5273 21.993 28.9998 22.9586 28.306 23.8487C27.5975 24.7265 26.75 25.5324 25.7755 26.2213C23.8079 27.5659 21.3131 28.3964 18.7233 28.3761C16.1281 28.4075 13.6428 27.5329 11.6803 26.1904C10.7068 25.5005 9.86125 24.6924 9.15388 23.8135C8.46688 22.9181 7.94008 21.9525 7.54283 20.9682C7.20108 19.968 6.94094 18.964 6.87858 17.9675C6.80077 16.9731 6.87286 16 7.06051 15.0822C7.43672 13.2436 8.28313 11.6407 9.31634 10.3903C10.348 9.13134 11.5545 8.21041 12.7073 7.57534C13.8672 6.94347 14.9678 6.58786 15.8799 6.38078C16.3379 6.28071 16.7495 6.2147 17.1081 6.17105C17.4635 6.15242 17.7679 6.13645 18.0208 6.12368C18.2544 6.11356 18.4394 6.10557 18.5814 6.09971C18.7072 6.09599 18.7719 6.09652 18.7719 6.10131C18.7719 6.1061 18.7072 6.11515 18.5818 6.12793C18.4406 6.14124 18.2569 6.15827 18.0245 6.17903C17.7738 6.19979 17.4725 6.22428 17.12 6.25303C16.7656 6.30467 16.3591 6.37865 15.9077 6.48565C15.0082 6.70657 13.9271 7.07282 12.7911 7.70842C11.6626 8.34775 10.4855 9.26442 9.48193 10.5095C8.47655 11.7461 7.65866 13.3229 7.30057 15.1254C7.1222 16.025 7.05632 16.9773 7.13702 17.9494C7.20221 18.9246 7.46173 19.9057 7.79861 20.882C8.19032 21.8423 8.70755 22.7835 9.38046 23.656C10.0737 24.513 10.9006 25.2998 11.8516 25.9721C13.7699 27.2785 16.1931 28.1302 18.7235 28.0988C21.2501 28.1185 23.6826 27.3109 25.6046 26.0019C26.5565 25.3312 27.3852 24.5466 28.0798 23.6911C28.7595 22.8229 29.2775 21.8812 29.674 20.9235C30.037 19.9536 30.2669 18.9677 30.3505 17.9957C30.3852 17.7535 30.3655 17.5107 30.3759 17.2712C30.3721 17.0311 30.3998 16.7921 30.365 16.5568C30.3173 16.0862 30.2925 15.6199 30.1975 15.1701C29.8456 13.3666 29.0485 11.7818 28.0448 10.5431C27.0437 9.29743 25.8653 8.38021 24.7401 7.73663C23.6108 7.09144 22.5318 6.71616 21.6336 6.49205C20.7325 6.26953 20.0091 6.1934 19.5206 6.15401C19.0307 6.11462 18.7717 6.11515 18.7719 6.10131" fill="#17282F"/>
<path d="M18.7364 30.9283C18.7364 30.9235 18.8166 30.9193 18.9731 30.9123C19.1428 30.9022 19.373 30.8894 19.6665 30.8724C19.9707 30.8495 20.347 30.8139 20.7877 30.751C21.2268 30.6664 21.7298 30.569 22.2947 30.4593C23.4032 30.1548 24.7561 29.7295 26.1666 28.9305C27.5659 28.1282 29.0293 26.9896 30.2815 25.4442C31.5334 23.9042 32.5206 21.9319 32.979 19.6945C33.0535 19.4177 33.0838 19.1319 33.1148 18.8434C33.1462 18.5554 33.1863 18.2658 33.2116 17.9725C33.2145 17.6786 33.2171 17.3821 33.22 17.0835L33.2226 16.6331L33.1782 16.1822C33.1132 14.9691 32.8135 13.7388 32.3623 12.5336C31.4485 10.1248 29.7081 7.85073 27.3126 6.20743C24.9345 4.55454 21.9016 3.55164 18.7574 3.56495C15.6149 3.56974 12.5707 4.53645 10.1889 6.18987C7.80064 7.84169 6.06538 10.1179 5.13029 12.5187C4.19594 14.9265 4.04801 17.4454 4.5129 19.678C4.70632 20.805 5.10754 21.8478 5.54566 22.8199C5.80388 23.2894 6.01609 23.7711 6.31805 24.1933C6.45907 24.4099 6.59811 24.6239 6.73602 24.8358C6.89323 25.0349 7.04885 25.2318 7.20226 25.4267C8.4448 26.9773 9.90504 28.1245 11.3105 28.9177C12.7195 29.7162 14.0679 30.1612 15.1812 30.446C15.7426 30.577 16.2425 30.6909 16.6867 30.7361C17.1275 30.8005 17.5009 30.8554 17.8064 30.8602C18.1002 30.8788 18.3298 30.8932 18.4996 30.9038C18.6561 30.9155 18.7364 30.9235 18.7364 30.9283C18.7364 30.9331 18.6561 30.9347 18.4991 30.9326C18.3287 30.9283 18.0977 30.923 17.8026 30.9161C17.4949 30.9198 17.1189 30.8735 16.6743 30.8176C16.226 30.7808 15.721 30.6749 15.1527 30.5503C14.0266 30.2799 12.6589 29.8455 11.2258 29.0508C9.79673 28.2619 8.30774 27.111 7.03668 25.5454C6.87947 25.3484 6.72057 25.1499 6.55986 24.9481C6.41838 24.7346 6.27538 24.518 6.13125 24.2992C5.82244 23.8717 5.60315 23.3847 5.33877 22.9082C4.88758 21.924 4.47464 20.8646 4.27284 19.7201C3.79008 17.4524 3.92997 14.8871 4.87541 12.4309C5.82108 9.98219 7.58356 7.65963 10.0182 5.97108C12.4459 4.28093 15.5518 3.2924 18.7569 3.28761C21.9652 3.27377 25.062 4.30063 27.4836 5.98865C29.9234 7.66655 31.694 9.99018 32.6178 12.4469C33.0743 13.676 33.3745 14.9297 33.4366 16.1641L33.4799 16.6235L33.4755 17.0813C33.4713 17.3853 33.4675 17.6871 33.4634 17.9863C33.4366 18.2844 33.3946 18.5793 33.361 18.8721C33.3283 19.1654 33.296 19.4561 33.2191 19.7371C32.7425 22.0112 31.7274 24.0085 30.4473 25.563C29.1665 27.1232 27.6742 28.2651 26.2511 29.0636C24.8162 29.8589 23.4441 30.2735 22.3225 30.5642C21.752 30.6648 21.2436 30.7548 20.8001 30.833C20.3551 30.8873 19.9767 30.9145 19.6705 30.9283C19.3643 30.9416 19.1305 30.9427 18.9735 30.9405C18.8166 30.9384 18.7364 30.9283 18.7364 30.9283" fill="#17282F"/>
<path d="M31.979 6.48828L24.2441 1.93952L25.4509 0.123209L33.1858 4.67145L31.979 6.48828" fill="#33535F"/>
<path d="M31.9807 6.49061C31.9769 6.47518 32.0841 6.29365 32.278 5.97266C32.4958 5.62292 32.7738 5.17576 33.1129 4.63012L33.1408 4.74404C31.3845 3.75124 28.5526 2.11167 25.3748 0.243196C25.4654 0.223499 25.1718 0.286842 25.5777 0.199008L25.5772 0.199541L25.5765 0.200607L25.5754 0.202205L25.573 0.205922L25.5682 0.213382L25.5587 0.227756L25.539 0.257037L25.5003 0.315052L25.4231 0.431097L25.2695 0.662133C25.1674 0.815976 25.0657 0.96876 24.9647 1.11994C24.7628 1.42284 24.5639 1.72094 24.3682 2.01373L24.3223 1.82688C26.5003 3.11458 28.3974 4.26388 29.7675 5.10124C30.4223 5.50475 30.9634 5.83798 31.3843 6.09776C31.7651 6.33624 31.9765 6.47411 31.9807 6.49061C31.9846 6.50658 31.7809 6.40066 31.4015 6.19198C30.9767 5.95403 30.4302 5.64793 29.7695 5.27796C28.3753 4.48958 26.4053 3.3653 24.1693 2.05683L24.0469 1.98551L24.1233 1.86999C24.3179 1.57614 24.5155 1.27698 24.7162 0.973551C24.8166 0.822369 24.9178 0.669585 25.0197 0.515742L25.1733 0.284186L25.2505 0.168129L25.2892 0.110113L25.3084 0.0808323L25.3182 0.0664584L25.3232 0.0589985L25.3255 0.0552815L25.3268 0.0531501L25.3272 0.0526173L25.3277 0.0520844C25.7335 -0.0362823 25.4404 0.0275936 25.5312 0.00842975C28.7087 1.87691 31.516 3.55375 33.2339 4.60404L33.3088 4.64981L33.2617 4.71795C32.8585 5.30298 32.5344 5.75387 32.3169 6.05357C32.0987 6.35381 31.9842 6.50552 31.9807 6.49061" fill="#17282F"/>
<path d="M2.17878 11.252L0.46875 9.83809L6.80543 3.05354L8.51596 4.46688L2.17878 11.252" fill="#33535F"/>
<path d="M2.17779 11.2526C2.17672 11.2356 2.34603 11.037 2.65416 10.6884C2.99325 10.3104 3.43295 9.81959 3.96591 9.22498C5.07959 7.99157 6.62494 6.29344 8.40621 4.37811L8.41923 4.56974C7.86663 4.11407 7.29389 3.64191 6.70785 3.15855C7.12254 3.13193 6.82171 3.15215 6.91366 3.14683L6.91168 3.14896L6.90789 3.15322L6.90036 3.1612L6.88492 3.17771L6.85464 3.21018L6.79318 3.27619L6.6714 3.40661L6.42909 3.66532C6.26798 3.83779 6.10811 4.00814 5.94989 4.17742C5.6331 4.51545 5.32185 4.84656 5.01769 5.17128C4.40912 5.81593 3.8284 6.43237 3.28265 7.01101C2.20524 8.14009 1.26908 9.12064 0.532732 9.89199L0.524753 9.77753C1.01725 10.2093 1.42045 10.5627 1.73503 10.8385C2.01911 11.0929 2.17717 11.2377 2.17779 11.2526C2.17915 11.2675 2.0233 11.1531 1.72287 10.9242C1.42289 10.6958 0.975036 10.3514 0.410951 9.89944L0.345703 9.8478L0.402746 9.78499C1.1216 8.99874 2.03479 7.99902 3.08611 6.84865C3.62615 6.26522 4.20087 5.644 4.80259 4.99349C5.10546 4.6677 5.41489 4.335 5.73015 3.9959C5.88798 3.82662 6.04733 3.65521 6.20805 3.48326L6.45008 3.22349L6.57192 3.09306L6.63292 3.02759L6.66365 2.99459L6.67887 2.97808L6.68663 2.9701L6.69036 2.96584L6.6924 2.96424C6.78588 2.95785 6.4859 2.97436 6.9024 2.9504C7.48709 3.43482 8.0587 3.90807 8.61022 4.36534L8.71921 4.45583L8.62352 4.5575C6.79318 6.50849 5.17019 8.2029 4.01854 9.39532C3.46877 9.95959 3.01583 10.4249 2.66633 10.7836C2.35067 11.103 2.17938 11.2691 2.17779 11.2526" fill="#17282F"/>
<path d="M12.9922 18.2612L14.1167 16.2452L18.1405 17.9561L22.4703 10.544L24.4967 11.6363L18.8892 20.9883L12.9922 18.2612" fill="#33535F"/>
<path d="M13.0113 18.2553L18.8834 20.9707L24.4771 11.6411L22.4757 10.5621L18.1464 17.9732L18.1346 17.9684L14.123 16.2628L13.0113 18.2553ZM18.8951 21.0059L18.8829 21L12.9727 18.267L12.9797 18.2548L14.1104 16.2282L14.1226 16.233L18.1342 17.9386L22.4649 10.5259L22.4773 10.5328L24.5158 11.631L24.509 11.6427L18.8951 21.0059" fill="#17282F"/>
<path d="M10.8881 32.4978C10.8793 32.5153 10.6611 32.428 10.2729 32.2545C10.0771 32.1704 9.84142 32.0607 9.58059 31.9106C9.31796 31.7642 9.00938 31.6104 8.69746 31.398C8.052 31.0025 7.33138 30.4637 6.58666 29.809C5.85473 29.142 5.10645 28.3515 4.42494 27.4481C3.75452 26.5367 3.21998 25.6052 2.80331 24.73C2.40345 23.8479 2.11122 23.0266 1.93658 22.3212C1.83093 21.9725 1.78249 21.6473 1.72545 21.3652C1.66512 21.0836 1.63547 20.8376 1.61872 20.6359C1.57826 20.2329 1.56541 20.0104 1.58556 20.0088C1.6439 20.0019 1.73099 20.8925 2.13793 22.2712C2.33599 22.9616 2.6444 23.7633 3.05157 24.6257C3.47508 25.4811 4.0072 26.393 4.66658 27.2889C5.33637 28.1774 6.06542 28.9589 6.77545 29.6253C7.49781 30.2796 8.19392 30.8263 8.81618 31.2367C10.0545 32.0677 10.9149 32.4488 10.8881 32.4978Z" fill="#17282F"/>
<path d="M4.21178 29.6632C4.18365 29.685 3.80059 29.3108 3.26673 28.6384C2.73269 27.9672 2.06358 26.9861 1.47289 25.8304C0.884023 24.6726 0.489424 23.5685 0.267253 22.7562C0.0440068 21.9438 -0.0267303 21.4285 0.00863825 21.4216C0.0528347 21.412 0.195214 21.9108 0.467127 22.7013C0.738361 23.4919 1.15792 24.5688 1.73858 25.7106C2.32129 26.8503 2.95198 27.8325 3.4374 28.5261C3.92238 29.2203 4.24669 29.6365 4.21178 29.6632Z" fill="#17282F"/>
<rect x="26" y="36" width="10" height="2" fill="#4B5563"/>
<rect x="26" y="42" width="10" height="2" fill="#4B5563"/>
<rect x="26" y="48" width="10" height="2" fill="#4B5563"/>
<rect x="40" y="36" width="10" height="2" fill="#4B5563"/>
<rect x="40" y="42" width="10" height="2" fill="#4B5563"/>
<rect x="40" y="48" width="10" height="2" fill="#4B5563"/>
<rect x="54" y="36" width="10" height="2" fill="#4B5563"/>
<rect x="54" y="42" width="10" height="2" fill="#4B5563"/>
<rect x="54" y="48" width="10" height="2" fill="#4B5563"/>
</svg>
