<svg width="300" height="300" viewBox="0 0 319 75" fill="none" xmlns="http://www.w3.org/2000/svg">
<path d="M318.643 30.9492H272.868C272.796 30.9492 272.738 30.8949 272.738 30.8273V21.0266C272.738 18.9558 274.523 17.2774 276.724 17.2774H315.374C317.251 17.2774 318.773 18.7088 318.773 20.4751V30.8273C318.773 30.8949 318.714 30.9492 318.643 30.9492Z" fill="#F2575D"/>
<path d="M302.185 25.0335C302.185 25.1101 299.022 25.1719 295.121 25.1719C291.219 25.1719 288.057 25.1101 288.057 25.0335C288.057 24.9574 291.219 24.8951 295.121 24.8951C299.022 24.8951 302.185 24.9574 302.185 25.0335Z" fill="#17282F"/>
<path d="M315.213 17.2767C315.213 17.2767 315.294 17.2735 315.454 17.2783C315.612 17.282 315.853 17.3022 316.157 17.3789C316.751 17.5183 317.686 17.9197 318.323 18.9232C318.64 19.4129 318.84 20.0586 318.823 20.764C318.826 21.4634 318.829 22.2257 318.833 23.0487C318.838 24.6968 318.843 26.5882 318.85 28.7031C318.859 32.9373 318.869 38.0658 318.881 43.9315C318.885 46.8652 318.889 49.983 318.893 53.2648C318.894 54.0851 318.895 54.9161 318.896 55.7572C318.896 56.1772 318.897 56.6004 318.897 57.0257C318.904 57.45 318.862 57.9078 318.708 58.3273C318.413 59.1748 317.746 59.912 316.88 60.3235C316.449 60.5306 315.971 60.6562 315.483 60.6892C315.168 60.7063 314.864 60.7047 314.56 60.7031C314.391 60.702 314.222 60.7015 314.05 60.7036L314.181 60.5801C314.183 63.2253 314.184 66.0594 314.187 68.9686V69.2422L313.963 69.0686C310.5 66.3889 306.869 63.5782 303.13 60.685L303.221 60.7153C296.552 60.7164 289.55 60.718 282.361 60.7191C280.72 60.7191 279.088 60.7191 277.468 60.7185L276.253 60.7164C275.832 60.7153 275.414 60.636 275.021 60.5019C274.232 60.2341 273.552 59.7034 273.127 59.0305C272.913 58.6951 272.756 58.3284 272.67 57.9461C272.586 57.5623 272.591 57.1679 272.592 56.8016C272.593 56.0553 272.593 55.3122 272.593 54.5717C272.593 53.0918 272.594 51.6231 272.594 50.1677C272.597 44.3451 272.6 38.7296 272.603 33.3786C272.605 30.7036 272.607 28.0952 272.609 25.5608C272.61 24.2938 272.611 23.045 272.612 21.8159C272.63 21.201 272.568 20.5957 272.682 19.9681C272.814 19.3565 273.11 18.7757 273.553 18.3222C273.985 17.8596 274.552 17.5237 275.161 17.3336C275.699 17.159 276.265 17.1617 276.798 17.1649C276.875 17.1654 276.952 17.1654 277.027 17.1654C278.247 17.167 279.445 17.1681 280.619 17.1697C282.966 17.1723 285.219 17.1755 287.369 17.1787C295.967 17.1968 302.924 17.2123 307.743 17.2224C310.142 17.2341 312.007 17.2426 313.282 17.2485C313.909 17.2548 314.39 17.2591 314.723 17.2623C315.047 17.2671 315.213 17.2767 315.213 17.2767C315.213 17.2767 315.047 17.2863 314.723 17.2905C314.39 17.2937 313.909 17.2985 313.282 17.3044C312.007 17.3102 310.142 17.3193 307.743 17.3304C302.924 17.3411 295.967 17.356 287.369 17.3746C285.219 17.3773 282.966 17.3805 280.619 17.3831C279.445 17.3847 278.247 17.3863 277.027 17.3874C276.951 17.3879 276.874 17.3874 276.798 17.3874C276.262 17.3858 275.736 17.3842 275.235 17.5487C274.667 17.7276 274.138 18.0422 273.735 18.4755C273.322 18.8992 273.048 19.4422 272.926 20.0123C272.821 20.5798 272.879 21.2037 272.864 21.8159C272.866 23.045 272.867 24.2938 272.868 25.5608C272.87 28.0952 272.872 30.7036 272.874 33.3786C272.877 38.7296 272.88 44.3451 272.883 50.1677C272.883 51.6231 272.884 53.0918 272.884 54.5717C272.884 55.3122 272.884 56.0553 272.885 56.8016C272.884 57.1807 272.879 57.5378 272.957 57.8903C273.036 58.2416 273.181 58.5796 273.378 58.8878C273.77 59.508 274.396 59.9967 275.122 60.2426C275.678 60.455 276.289 60.4486 276.914 60.4422C277.098 60.4401 277.283 60.4385 277.468 60.4422C279.088 60.4422 280.72 60.4422 282.361 60.4417C289.55 60.4433 296.552 60.4444 303.221 60.4454H303.273L303.313 60.4758C307.049 63.3732 310.677 66.1866 314.137 68.8696L313.913 68.9686C313.915 66.0594 313.917 63.2253 313.92 60.5801V60.4587L314.05 60.4577C314.219 60.4555 314.39 60.4566 314.561 60.4577C314.868 60.4598 315.174 60.4619 315.465 60.4465C315.918 60.4162 316.363 60.3001 316.764 60.1085C317.57 59.7273 318.193 59.0411 318.469 58.2528C318.614 57.8556 318.653 57.45 318.648 57.0257C318.649 56.6004 318.649 56.1772 318.65 55.7572C318.651 54.9161 318.652 54.0851 318.652 53.2648C318.657 49.983 318.661 46.8652 318.665 43.9315C318.677 38.0658 318.687 32.9373 318.695 28.7031C318.702 26.5882 318.708 24.6968 318.713 23.0487C318.665 21.4187 318.941 19.9447 318.252 18.962C317.641 17.9746 316.73 17.5668 316.146 17.4167C315.543 17.2655 315.21 17.2953 315.213 17.2767" fill="#17282F"/>
<path d="M302.624 22.8125H302.524C301.725 22.8125 301.076 22.2024 301.076 21.4503V14.3942C301.076 13.6415 301.725 13.032 302.524 13.032H302.624C303.424 13.032 304.072 13.6415 304.072 14.3942V21.4503C304.072 22.2024 303.424 22.8125 302.624 22.8125Z" fill="#DADBD8"/>
<path d="M288.571 22.8125H288.472C287.672 22.8125 287.023 22.2024 287.023 21.4503V14.3942C287.023 13.6415 287.672 13.032 288.472 13.032H288.571C289.371 13.032 290.019 13.6415 290.019 14.3942V21.4503C290.019 22.2024 289.371 22.8125 288.571 22.8125Z" fill="#DADBD8"/>
<path d="M269.77 6.10199C269.212 6.10199 268.651 6.13873 268.089 6.21432C264.976 6.6306 262.221 8.16211 260.333 10.5273C258.444 12.8919 257.648 15.8069 258.091 18.7352C259.005 24.7799 264.977 29.0044 271.401 28.1394C277.827 27.2802 282.312 21.6636 281.399 15.619C280.956 12.6906 279.328 10.0993 276.814 8.32287C274.754 6.86748 272.301 6.10199 269.77 6.10199V6.10199ZM269.735 30.9277C262.579 30.9283 256.309 25.9654 255.273 19.1116C254.724 15.4753 255.713 11.8554 258.057 8.91909C260.402 5.98223 263.823 4.08074 267.688 3.56331C271.553 3.04695 275.401 3.9764 278.524 6.18237C281.645 8.38835 283.667 11.6058 284.216 15.2421C285.351 22.748 279.782 29.7231 271.802 30.7904C271.108 30.8825 270.417 30.9277 269.735 30.9277" fill="#33535F"/>
<path d="M269.772 6.10131C269.772 6.09652 269.836 6.0928 269.963 6.09067C270.089 6.088 270.278 6.08535 270.524 6.09813C271.017 6.11995 271.747 6.17904 272.662 6.38771C273.573 6.59745 274.672 6.96209 275.825 7.60408C276.974 8.24394 278.181 9.1638 279.211 10.4244C280.243 11.678 281.068 13.2894 281.438 15.1286C281.537 15.5869 281.566 16.0623 281.617 16.543C281.653 16.7836 281.627 17.0274 281.632 17.2728C281.622 17.5177 281.643 17.7663 281.609 18.0138C281.528 19.0082 281.297 20.0175 280.929 21.0113C280.527 21.993 280 22.9586 279.306 23.8487C278.597 24.7265 277.75 25.5324 276.776 26.2213C274.808 27.5659 272.313 28.3964 269.723 28.3761C267.128 28.4075 264.643 27.5329 262.68 26.1904C261.707 25.5005 260.861 24.6924 260.154 23.8135C259.467 22.9181 258.94 21.9525 258.543 20.9682C258.201 19.968 257.941 18.964 257.879 17.9675C257.801 16.9731 257.873 16 258.061 15.0822C258.437 13.2436 259.283 11.6407 260.316 10.3903C261.348 9.13134 262.555 8.21041 263.707 7.57534C264.867 6.94347 265.968 6.58786 266.88 6.38078C267.338 6.28071 267.75 6.2147 268.108 6.17105C268.463 6.15242 268.768 6.13645 269.021 6.12368C269.254 6.11356 269.439 6.10557 269.581 6.09971C269.707 6.09599 269.772 6.09652 269.772 6.10131C269.772 6.1061 269.707 6.11515 269.582 6.12793C269.441 6.14124 269.257 6.15827 269.025 6.17903C268.774 6.19979 268.473 6.22428 268.12 6.25303C267.766 6.30467 267.359 6.37865 266.908 6.48565C266.008 6.70657 264.927 7.07282 263.791 7.70842C262.663 8.34775 261.485 9.26442 260.482 10.5095C259.477 11.7461 258.659 13.3229 258.301 15.1254C258.122 16.025 258.056 16.9773 258.137 17.9494C258.202 18.9246 258.462 19.9057 258.799 20.882C259.19 21.8423 259.708 22.7835 260.38 23.656C261.074 24.513 261.901 25.2998 262.852 25.9721C264.77 27.2785 267.193 28.1302 269.724 28.0988C272.25 28.1185 274.683 27.3109 276.605 26.0019C277.557 25.3312 278.385 24.5466 279.08 23.6911C279.76 22.8229 280.277 21.8812 280.674 20.9235C281.037 19.9536 281.267 18.9677 281.35 17.9957C281.385 17.7535 281.365 17.5107 281.376 17.2712C281.372 17.0311 281.4 16.7921 281.365 16.5568C281.317 16.0862 281.293 15.6199 281.197 15.1701C280.846 13.3666 280.048 11.7818 279.045 10.5431C278.044 9.29743 276.865 8.38021 275.74 7.73663C274.611 7.09144 273.532 6.71616 272.634 6.49205C271.732 6.26953 271.009 6.1934 270.521 6.15401C270.031 6.11462 269.772 6.11515 269.772 6.10131" fill="#17282F"/>
<path d="M282.979 6.48828L275.244 1.93952L276.451 0.123209L284.186 4.67145L282.979 6.48828" fill="#33535F"/>
<path d="M282.981 6.49061C282.977 6.47518 283.084 6.29365 283.278 5.97266C283.496 5.62292 283.774 5.17576 284.113 4.63012L284.141 4.74404C282.385 3.75124 279.553 2.11167 276.375 0.243196C276.465 0.223499 276.172 0.286842 276.578 0.199008L276.577 0.199541L276.577 0.200607L276.575 0.202205L276.573 0.205922L276.568 0.213382L276.559 0.227756L276.539 0.257037L276.5 0.315052L276.423 0.431097L276.269 0.662133C276.167 0.815976 276.066 0.96876 275.965 1.11994C275.763 1.42284 275.564 1.72094 275.368 2.01373L275.322 1.82688C277.5 3.11458 279.397 4.26388 280.768 5.10124C281.422 5.50475 281.963 5.83798 282.384 6.09776C282.765 6.33624 282.976 6.47411 282.981 6.49061C282.985 6.50658 282.781 6.40066 282.402 6.19198C281.977 5.95403 281.43 5.64793 280.769 5.27796C279.375 4.48958 277.405 3.3653 275.169 2.05683L275.047 1.98551L275.123 1.86999C275.318 1.57614 275.515 1.27698 275.716 0.973551C275.817 0.822369 275.918 0.669585 276.02 0.515742L276.173 0.284186L276.25 0.168129L276.289 0.110113L276.308 0.0808323L276.318 0.0664584L276.323 0.0589985L276.325 0.0552815L276.327 0.0531501L276.327 0.0526173L276.328 0.0520844C276.733 -0.0362823 276.44 0.0275936 276.531 0.00842975C279.709 1.87691 282.516 3.55375 284.234 4.60404L284.309 4.64981L284.262 4.71795C283.859 5.30298 283.534 5.75387 283.317 6.05357C283.099 6.35381 282.984 6.50552 282.981 6.49061" fill="#17282F"/>
<path d="M253.179 11.252L251.469 9.83809L257.805 3.05354L259.516 4.46688L253.179 11.252" fill="#33535F"/>
<path d="M253.178 11.2526C253.177 11.2356 253.346 11.037 253.654 10.6884C253.993 10.3104 254.433 9.81959 254.966 9.22498C256.08 7.99157 257.625 6.29344 259.406 4.37811L259.419 4.56974C258.867 4.11407 258.294 3.64191 257.708 3.15855C258.123 3.13193 257.822 3.15215 257.914 3.14683L257.912 3.14896L257.908 3.15322L257.9 3.1612L257.885 3.17771L257.855 3.21018L257.793 3.27619L257.671 3.40661L257.429 3.66532C257.268 3.83779 257.108 4.00814 256.95 4.17742C256.633 4.51545 256.322 4.84656 256.018 5.17128C255.409 5.81593 254.828 6.43237 254.283 7.01101C253.205 8.14009 252.269 9.12064 251.533 9.89199L251.525 9.77753C252.017 10.2093 252.42 10.5627 252.735 10.8385C253.019 11.0929 253.177 11.2377 253.178 11.2526C253.179 11.2675 253.023 11.1531 252.723 10.9242C252.423 10.6958 251.975 10.3514 251.411 9.89944L251.346 9.8478L251.403 9.78499C252.122 8.99874 253.035 7.99902 254.086 6.84865C254.626 6.26522 255.201 5.644 255.803 4.99349C256.105 4.6677 256.415 4.335 256.73 3.9959C256.888 3.82662 257.047 3.65521 257.208 3.48326L257.45 3.22349L257.572 3.09306L257.633 3.02759L257.664 2.99459L257.679 2.97808L257.687 2.9701L257.69 2.96584L257.692 2.96424C257.786 2.95785 257.486 2.97436 257.902 2.9504C258.487 3.43482 259.059 3.90807 259.61 4.36534L259.719 4.45583L259.624 4.5575C257.793 6.50849 256.17 8.2029 255.019 9.39532C254.469 9.95959 254.016 10.4249 253.666 10.7836C253.351 11.103 253.179 11.2691 253.178 11.2526" fill="#17282F"/>
<path d="M263.992 18.2612L265.117 16.2452L269.141 17.9561L273.47 10.544L275.497 11.6363L269.889 20.9883L263.992 18.2612" fill="#33535F"/>
<path d="M264.011 18.2553L269.883 20.9707L275.477 11.6411L273.476 10.5621L269.146 17.9732L269.135 17.9684L265.123 16.2628L264.011 18.2553ZM269.895 21.0059L269.883 21L263.973 18.267L263.98 18.2548L265.11 16.2282L265.123 16.233L269.134 17.9386L273.465 10.5259L273.477 10.5328L275.516 11.631L275.509 11.6427L269.895 21.0059" fill="#17282F"/>
<path d="M261.888 32.4978C261.879 32.5153 261.661 32.428 261.273 32.2545C261.077 32.1704 260.841 32.0607 260.581 31.9106C260.318 31.7642 260.009 31.6104 259.697 31.398C259.052 31.0025 258.331 30.4637 257.587 29.809C256.855 29.142 256.106 28.3515 255.425 27.4481C254.755 26.5367 254.22 25.6052 253.803 24.73C253.403 23.8479 253.111 23.0266 252.937 22.3212C252.831 21.9725 252.782 21.6473 252.725 21.3652C252.665 21.0836 252.635 20.8376 252.619 20.6359C252.578 20.2329 252.565 20.0104 252.586 20.0088C252.644 20.0019 252.731 20.8925 253.138 22.2712C253.336 22.9616 253.644 23.7633 254.052 24.6257C254.475 25.4811 255.007 26.393 255.667 27.2889C256.336 28.1774 257.065 28.9589 257.775 29.6253C258.498 30.2796 259.194 30.8263 259.816 31.2367C261.055 32.0677 261.915 32.4488 261.888 32.4978Z" fill="#17282F"/>
<path d="M255.212 29.6632C255.184 29.685 254.801 29.3108 254.267 28.6384C253.733 27.9672 253.064 26.9861 252.473 25.8304C251.884 24.6726 251.489 23.5685 251.267 22.7562C251.044 21.9438 250.973 21.4285 251.009 21.4216C251.053 21.412 251.195 21.9108 251.467 22.7013C251.738 23.4919 252.158 24.5688 252.739 25.7106C253.321 26.8503 253.952 27.8325 254.437 28.5261C254.922 29.2203 255.247 29.6365 255.212 29.6632Z" fill="#17282F"/>
<rect x="277" y="36" width="10" height="2" fill="#4B5563"/>
<rect x="277" y="42" width="10" height="2" fill="#4B5563"/>
<rect x="277" y="48" width="10" height="2" fill="#4B5563"/>
<rect x="291" y="36" width="10" height="2" fill="#4B5563"/>
<rect x="291" y="42" width="10" height="2" fill="#4B5563"/>
<rect x="291" y="48" width="10" height="2" fill="#4B5563"/>
<rect x="305" y="36" width="10" height="2" fill="#4B5563"/>
<rect x="305" y="42" width="10" height="2" fill="#4B5563"/>
<rect x="305" y="48" width="10" height="2" fill="#4B5563"/>
</svg>
