<svg viewBox="0 0 100 100" fill="none" xmlns="http://www.w3.org/2000/svg">
<path d="M53.2342 6.36795C52.1632 6.28889 51.0896 6.24928 50.0156 6.24922V0C51.2439 0.000598847 52.4718 0.0464576 53.6967 0.137483L53.2342 6.36795ZM65.7585 9.1801C63.7551 8.4071 61.6976 7.78258 59.6026 7.31159L60.9712 1.21235C63.3649 1.74978 65.721 2.46219 68.0083 3.34958L65.7585 9.1801ZM74.3205 13.617C73.4269 13.0212 72.5118 12.4584 71.5769 11.9298L74.6579 6.49294C76.7947 7.70363 78.8397 9.06964 80.7763 10.5799L76.9328 15.5106C76.0855 14.8496 75.2141 14.2201 74.3205 13.6233V13.617ZM85.7823 24.8031C84.5461 23.047 83.1821 21.3843 81.7013 19.8288L86.226 15.5168C87.9134 17.2978 89.4758 19.2038 90.8945 21.2036L85.7823 24.8031ZM90.432 33.2521C90.0218 32.2613 89.5757 31.2858 89.0946 30.3275L94.6755 27.5153C95.7792 29.7093 96.7192 31.9819 97.4879 34.3145L91.5507 36.2705C91.2149 35.251 90.8417 34.2442 90.432 33.2521ZM93.7443 48.9189C93.6938 46.7713 93.4849 44.6303 93.1194 42.5134L99.2753 41.4511C99.694 43.8633 99.9377 46.313 100 48.7627L93.7506 48.9189H93.7443ZM92.9256 58.5302C93.1319 57.4678 93.3006 56.4117 93.4318 55.3431L99.6377 56.1117C99.3376 58.5499 98.8571 60.9624 98.2003 63.3296L92.1757 61.661C92.4632 60.6299 92.7131 59.5863 92.9256 58.5302ZM86.976 73.3971C88.1259 71.5848 89.1383 69.685 90.0133 67.7228L95.7255 70.2537C94.7255 72.5034 93.5693 74.6657 92.2569 76.7404L86.976 73.3971ZM80.9513 80.9274C81.7138 80.165 82.445 79.3776 83.1387 78.5652L87.8759 82.6459C87.0737 83.576 86.2378 84.4765 85.3698 85.3456L80.9513 80.9274Z" fill="#87BE56"/>
<path d="M50.0166 6.24922C42.8225 6.24974 35.7396 8.02429 29.3952 11.4157C23.0508 14.8071 17.6407 19.7107 13.6441 25.6921C9.64752 31.6735 7.18782 38.5482 6.48286 45.7072C5.7779 52.8661 6.84944 60.0885 9.60257 66.7345C12.3557 73.3805 16.7054 79.245 22.2665 83.8086C27.8276 88.3722 34.4284 91.494 41.4842 92.8976C48.54 94.3011 55.8331 93.9431 62.7175 91.8551C69.6019 89.7672 75.8651 86.0138 80.9523 80.9274L85.3708 85.3456C79.557 91.1622 72.3981 95.4551 64.5285 97.844C56.6589 100.233 48.3215 100.644 40.2551 99.0406C32.1886 97.4374 24.6422 93.8694 18.2844 88.6528C11.9266 83.4362 6.95372 76.7321 3.80639 69.1344C0.65907 61.5367 -0.565529 53.2801 0.241098 45.096C1.04772 36.912 3.86067 29.0532 8.43071 22.2161C13.0007 15.3789 19.1868 9.77447 26.4407 5.89928C33.6946 2.02409 41.7924 -0.0021793 50.0166 1.75889e-06V6.24922Z" fill="#87BE56"/>
<path d="M46.8904 18.7461C47.7192 18.7461 48.514 19.0753 49.1 19.6613C49.686 20.2472 50.0153 21.042 50.0153 21.8707V54.4291L70.3141 66.0277C71.0127 66.4491 71.5188 67.1271 71.7242 67.9167C71.9296 68.7064 71.8179 69.545 71.4131 70.2534C71.0082 70.9618 70.3424 71.4838 69.5578 71.7077C68.7732 71.9317 67.9321 71.8399 67.2143 71.452L45.3405 58.9536C44.8623 58.6804 44.4647 58.2857 44.1881 57.8094C43.9116 57.3331 43.7658 56.7922 43.7656 56.2414V21.8707C43.7656 21.042 44.0948 20.2472 44.6809 19.6613C45.2669 19.0753 46.0617 18.7461 46.8904 18.7461Z" fill="#87BE56"/>
</svg>
