<svg viewBox="0 0 121 120" fill="none" xmlns="http://www.w3.org/2000/svg">
<path fill-rule="evenodd" clip-rule="evenodd" d="M120.926 33.7566C117.102 19.4883 103.061 10.6429 88.7663 12.9763V12.972H86.4284C76.8878 12.998 67.9036 8.48532 62.2285 0.816692C61.4117 -0.272231 59.5881 -0.272231 58.767 0.816692C53.0942 8.48573 44.111 12.9987 34.5714 12.972H32.2163C17.9427 10.6429 3.89375 19.4926 0.0736281 33.7566C-0.23407 34.9092 0.450766 36.0931 1.60341 36.4011L52.5528 50.0515C53.1064 50.2007 53.6966 50.1238 54.1934 49.8377C54.6903 49.5517 55.0531 49.0798 55.2019 48.5262C58.6028 35.8307 52.8294 22.8285 41.9783 16.5024C49.1705 14.9348 55.6657 11.0904 60.4999 5.53968C65.3332 11.0908 71.8289 14.934 79.0215 16.498C68.1747 22.8198 62.397 35.8264 65.8023 48.5219C66.1162 49.6717 67.2992 50.3528 68.4513 50.0472L119.401 36.3968C120.551 36.0889 121.234 34.9069 120.926 33.7566ZM108.666 59.8734C109.073 60.2776 109.623 60.5044 110.196 60.5043C110.768 60.5051 111.317 60.2781 111.721 59.8734L118.204 53.3918C119.047 52.548 119.047 51.1804 118.204 50.3367L111.721 43.855C110.878 43.0116 109.51 43.0116 108.666 43.855L102.184 50.3367C101.341 51.1804 101.341 52.548 102.184 53.3918L108.666 59.8734ZM9.27387 68.5156C9.6804 68.9198 10.2304 69.1466 10.8036 69.1465C11.3758 69.1473 11.9247 68.9203 12.3291 68.5156L18.8112 62.034C19.6547 61.1903 19.6547 59.8226 18.8112 58.9789L12.3291 52.4972C11.4853 51.6538 10.1176 51.6538 9.27387 52.4972L2.79175 58.9789C1.94825 59.8226 1.94825 61.1903 2.79175 62.034L9.27387 68.5156ZM29.4894 99.3944C28.6722 99.3924 27.9256 98.9314 27.5577 98.2018L25.518 94.1313C23.7336 90.5707 24.432 86.2674 27.2509 83.4538C28.2016 82.5032 28.7115 81.2673 28.7115 79.9494C28.7115 78.6314 28.2016 77.3956 27.2682 76.4622C24.438 73.6484 23.7323 69.3365 25.518 65.7675L27.5577 61.697C28.0911 60.629 29.3893 60.1957 30.4574 60.729C31.5254 61.2624 31.9588 62.5606 31.4254 63.6285L29.3856 67.7033C28.4349 69.6046 28.8066 71.8905 30.3104 73.3899C32.0736 75.1529 33.0372 77.4734 33.0372 79.9494C33.0372 82.4254 32.0736 84.7415 30.3277 86.4872C28.8129 87.9864 28.4329 90.2891 29.3856 92.1954L31.4254 96.2659C31.7613 96.9364 31.7256 97.733 31.331 98.3707C30.9364 99.0084 30.2393 99.3959 29.4894 99.3944ZM97.2318 120C96.4828 119.999 95.7875 119.611 95.3934 118.974C94.9994 118.337 94.9624 117.542 95.2958 116.872L97.3355 112.801C98.2862 110.904 97.9146 108.614 96.4107 107.114C92.7901 103.504 92.7804 97.6434 96.3891 94.0214C97.9146 92.4961 98.2819 90.2102 97.3355 88.3132L95.2958 84.2427C94.7624 83.1748 95.1958 81.8766 96.2638 81.3433C97.3318 80.8099 98.63 81.2432 99.1634 82.3112L101.203 86.3817C102.985 89.9427 102.287 94.2443 99.4703 97.0592C98.5406 97.9819 98.016 99.2364 98.0119 100.546C98.0079 101.856 98.5247 103.114 99.4487 104.042C102.288 106.881 102.984 111.168 101.203 114.741L99.1634 118.812C98.7936 119.539 98.0477 119.998 97.2318 120ZM7.37677 60.5043L10.8037 63.931L14.2305 60.5043L10.8037 57.0777L7.37677 60.5043ZM43.8453 115.048C44.2519 115.452 44.8019 115.679 45.3751 115.679C45.9472 115.68 46.4962 115.453 46.9006 115.048L53.3827 108.566C54.2262 107.723 54.2262 106.355 53.3827 105.511L46.9006 99.0296C46.0568 98.1862 44.6891 98.1862 43.8453 99.0296L37.3632 105.511C36.5197 106.355 36.5197 107.723 37.3632 108.566L43.8453 115.048ZM41.9482 107.037L45.3751 110.463L48.802 107.037L45.3751 103.61L41.9482 107.037ZM106.769 51.8621L110.196 55.2887L113.623 51.8621L110.196 48.4354L106.769 51.8621ZM74.0952 110.727C74.5017 111.131 75.0517 111.358 75.6249 111.358C76.4974 111.356 77.2831 110.829 77.6167 110.023C77.9503 109.217 77.7663 108.29 77.1504 107.672L72.829 103.351C71.9812 102.532 70.6335 102.544 69.8001 103.377C68.9666 104.21 68.9549 105.558 69.7737 106.406L74.0952 110.727ZM110.196 115.679C109.323 115.679 108.536 115.153 108.201 114.346C107.866 113.54 108.05 112.611 108.666 111.993L112.988 107.672C113.836 106.853 115.183 106.865 116.017 107.698C116.85 108.532 116.862 109.879 116.043 110.727L111.722 115.048C111.317 115.453 110.768 115.68 110.196 115.679ZM13.1298 118.668C13.4645 119.474 14.2518 120 15.125 120C15.6972 120.001 16.2461 119.774 16.6505 119.369L20.9719 115.048C21.7907 114.2 21.779 112.853 20.9456 112.019C20.1121 111.186 18.7645 111.174 17.9166 111.993L13.5952 116.314C12.9787 116.932 12.7951 117.861 13.1298 118.668ZM4.90059 32.8103L51.4897 45.2897C53.6267 32.9433 46.0019 21.0029 33.9016 17.7468C27.7008 16.0661 21.0852 16.9375 15.5313 20.1667C10.6046 22.9924 6.83831 27.4718 4.90059 32.8103ZM69.5102 45.2897C68.2899 38.2419 70.2446 31.015 74.8512 25.543C79.4577 20.0711 86.2458 16.9126 93.3989 16.9129C97.5993 16.9129 101.739 18.0148 105.469 20.1667C110.396 22.9915 114.163 27.4713 116.099 32.8103L69.5102 45.2897ZM31.7779 53.3898C32.6217 52.546 32.6216 51.178 31.7778 50.3343C30.934 49.4905 29.5659 49.4906 28.7221 50.3343C27.8783 51.1781 27.8784 52.5461 28.7222 53.3898C29.566 54.2336 30.9341 54.2335 31.7779 53.3898ZM75.6247 75.6283C75.6247 76.8215 76.5921 77.7888 77.7854 77.7888C78.6118 77.7888 79.4168 77.6956 80.1904 77.5193C81.3462 78.2948 82.1068 79.6136 82.1068 81.1099C82.1068 83.4964 80.1721 85.4311 77.7854 85.4311C76.5921 85.4311 75.6247 86.3984 75.6247 87.5916C75.6247 88.7849 76.5921 89.7522 77.7854 89.7522C78.9738 89.7522 79.9461 90.7244 79.9461 91.9127C79.9461 93.1011 78.9738 94.0733 77.7854 94.0733C76.5921 94.0733 75.6247 95.0406 75.6247 96.2339C75.6247 97.4271 76.5921 98.3944 77.7854 98.3944C80.2428 98.3994 82.4912 97.0125 83.5894 94.8143C84.6877 92.6161 84.4465 89.9856 82.9668 88.0237C85.0713 86.4422 86.4282 83.9316 86.4282 81.1099C86.4282 78.987 85.6592 77.0407 84.385 75.5348C86.941 73.5578 88.5889 70.4615 88.5889 66.986C88.5889 61.0272 83.7446 56.1832 77.7854 56.1832C76.5921 56.1832 75.6247 57.1505 75.6247 58.3438C75.6247 59.537 76.5921 60.5043 77.7854 60.5043C81.3592 60.5043 84.2675 63.4124 84.2675 66.986C84.2675 69.6072 82.7029 71.8703 80.4585 72.8905C79.6165 72.6161 78.718 72.4677 77.7854 72.4677C76.5921 72.4677 75.6247 73.435 75.6247 74.6283C75.6247 74.8004 75.6448 74.9678 75.6829 75.1283C75.6448 75.2887 75.6247 75.4561 75.6247 75.6283ZM43.2141 84.2705C43.2141 85.4637 44.1815 86.431 45.3748 86.431C50.1413 86.431 54.0176 82.555 54.0176 77.7888C54.0176 74.9628 52.6564 72.4522 50.5562 70.875C52.0219 68.91 52.2554 66.2869 51.1598 64.094C50.0641 61.901 47.8264 60.5125 45.3748 60.5043C44.1815 60.5043 43.2141 61.4716 43.2141 62.6649C43.2141 63.8581 44.1815 64.8254 45.3748 64.8254C46.5632 64.8254 47.5355 65.7977 47.5355 66.986C47.5355 68.1743 46.5632 69.1466 45.3748 69.1466C44.1815 69.1466 43.2141 70.1139 43.2141 71.3071C43.2141 72.5004 44.1815 73.4677 45.3748 73.4677C47.7615 73.4677 49.6962 75.4023 49.6962 77.7888C49.6962 80.1753 47.7615 82.1099 45.3748 82.1099C44.1815 82.1099 43.2141 83.0772 43.2141 84.2705ZM110.196 102.716C109.003 102.716 108.035 101.748 108.035 100.555C108.035 99.3617 109.003 98.3944 110.196 98.3944C111.384 98.3944 112.357 97.4222 112.357 96.2339C112.357 95.0456 111.384 94.0733 110.196 94.0733C109.003 94.0733 108.035 93.106 108.035 91.9127C108.035 90.7195 109.003 89.7522 110.196 89.7522C111.384 89.7522 112.357 88.7799 112.357 87.5916C112.357 86.4033 111.384 85.4311 110.196 85.4311C109.003 85.4311 108.035 84.4637 108.035 83.2705C108.035 82.0773 109.003 81.1099 110.196 81.1099C111.384 81.1099 112.357 80.1377 112.357 78.9494C112.357 77.7611 111.384 76.7888 110.196 76.7888C109.003 76.7888 108.035 75.8215 108.035 74.6283C108.035 73.435 109.003 72.4677 110.196 72.4677C112.748 72.477 115.057 73.9806 116.098 76.3104C117.139 78.6401 116.719 81.3636 115.023 83.2705C117.236 85.7264 117.236 89.4568 115.023 91.9127C116.719 93.8197 117.139 96.5432 116.098 98.8729C115.057 101.203 112.748 102.706 110.196 102.716ZM10.8036 107.037C8.25181 107.027 5.94221 105.524 4.90122 103.194C3.86024 100.864 4.28104 98.1408 5.97663 96.2338C3.7639 93.7779 3.7639 90.0475 5.97663 87.5916C4.28104 85.6847 3.86024 82.9612 4.90122 80.6315C5.94221 78.3018 8.25181 76.7981 10.8036 76.7888C11.997 76.7888 12.9643 77.7561 12.9643 78.9494C12.9643 80.1426 11.997 81.1099 10.8036 81.1099C9.61526 81.1099 8.64294 82.0822 8.64294 83.2705C8.64294 84.4588 9.61526 85.431 10.8036 85.431C11.997 85.431 12.9643 86.3984 12.9643 87.5916C12.9643 88.7849 11.997 89.7522 10.8036 89.7522C9.61526 89.7522 8.64294 90.7244 8.64294 91.9127C8.64294 93.101 9.61526 94.0733 10.8036 94.0733C11.997 94.0733 12.9643 95.0406 12.9643 96.2338C12.9643 97.4271 11.997 98.3944 10.8036 98.3944C9.61526 98.3944 8.64294 99.3667 8.64294 100.555C8.64294 101.743 9.61526 102.716 10.8036 102.716C11.997 102.716 12.9643 103.683 12.9643 104.876C12.9643 106.069 11.997 107.037 10.8036 107.037ZM46.9017 90.3819C47.7455 91.2256 47.7455 92.5936 46.9017 93.4374C46.0579 94.2811 44.6898 94.2812 43.846 93.4374C43.0022 92.5937 43.0022 91.2257 43.846 90.3819C44.6898 89.5382 46.0578 89.5382 46.9017 90.3819ZM85.7929 115.04C86.6367 114.196 86.6367 112.828 85.7928 111.984C84.949 111.141 83.5809 111.141 82.7371 111.984C81.8933 112.828 81.8934 114.196 82.7372 115.04C83.581 115.884 84.9491 115.884 85.7929 115.04ZM29.619 103.344C30.4628 104.188 30.4628 105.556 29.619 106.399C28.7752 107.243 27.4072 107.243 26.5633 106.399C25.7195 105.556 25.7195 104.188 26.5633 103.344C27.4071 102.5 28.7752 102.5 29.619 103.344ZM105.239 70.6682C106.083 69.8244 106.083 68.4564 105.239 67.6127C104.395 66.769 103.027 66.769 102.184 67.6128C101.34 68.4565 101.34 69.8245 102.184 70.6682C103.027 71.512 104.396 71.512 105.239 70.6682Z" fill="#4B5563"/>
</svg>
