<svg width="30" height="30" viewBox="0 0 27 27" fill="none" xmlns="http://www.w3.org/2000/svg">
<path d="M15.6444 11.3561C14.5068 10.2189 12.9641 9.58008 11.3556 9.58008C9.74714 9.58008 8.20449 10.2189 7.06688 11.3561L2.77674 15.6449C1.63911 16.7825 1 18.3255 1 19.9344C1 21.5433 1.63911 23.0863 2.77674 24.2239C3.91437 25.3616 5.45733 26.0007 7.06618 26.0007C8.67504 26.0007 10.218 25.3616 11.3556 24.2239L13.5 22.0795" stroke="#4B5563" stroke-width="2" stroke-linecap="round" stroke-linejoin="round"/>
<path d="M11.3555 15.6447C12.4931 16.7818 14.0357 17.4206 15.6442 17.4206C17.2527 17.4206 18.7954 16.7818 19.933 15.6447L24.2231 11.3558C25.3607 10.2182 25.9998 8.6752 25.9998 7.06631C25.9998 5.45742 25.3607 3.91443 24.2231 2.77678C23.0855 1.63913 21.5425 1 19.9337 1C18.3248 1 16.7818 1.63913 15.6442 2.77678L13.4998 4.9212" stroke="#4B5563" stroke-width="2" stroke-linecap="round" stroke-linejoin="round"/>
</svg>
