<svg width="15" height="15" viewBox="0 0 15 15" fill="none" xmlns="http://www.w3.org/2000/svg">
<path d="M14.6371 3.07395C14.4044 2.47242 14.0688 1.92731 13.6491 1.46915C13.2292 1.00962 12.734 0.644437 12.1906 0.393462C11.6272 0.132183 11.0228 -0.001554 10.4127 1.36232e-05C9.55665 1.36232e-05 8.72148 0.261667 7.99571 0.7559C7.82208 0.874129 7.65713 1.00399 7.50086 1.14547C7.34459 1.00399 7.17964 0.874129 7.00601 0.7559C6.28023 0.261667 5.44507 1.36232e-05 4.58907 1.36232e-05C3.97268 1.36232e-05 3.37539 0.131809 2.81109 0.393462C2.26588 0.645424 1.77451 1.00786 1.35259 1.46915C0.932393 1.92679 0.596731 2.47203 0.364625 3.07395C0.123278 3.69998 0 4.36477 0 5.04895C0 5.69436 0.118069 6.3669 0.352471 7.05108C0.548674 7.62284 0.829956 8.21592 1.18937 8.81481C1.75888 9.76258 2.54196 10.751 3.51429 11.7531C5.12559 13.4141 6.72126 14.5615 6.78897 14.608L7.20048 14.9026C7.38279 15.0325 7.61719 15.0325 7.7995 14.9026L8.21101 14.608C8.27873 14.5596 9.87266 13.4141 11.4857 11.7531C12.458 10.751 13.2411 9.76258 13.8106 8.81481C14.17 8.21592 14.453 7.62284 14.6475 7.05108C14.8819 6.3669 15 5.69436 15 5.04895C15.0017 4.36477 14.8784 3.69998 14.6371 3.07395ZM7.50086 13.3695C7.50086 13.3695 1.3196 8.94855 1.3196 5.04895C1.3196 3.07395 2.7833 1.47302 4.58907 1.47302C5.85831 1.47302 6.95913 2.2638 7.50086 3.41895C8.04259 2.2638 9.14341 1.47302 10.4127 1.47302C12.2184 1.47302 13.6821 3.07395 13.6821 5.04895C13.6821 8.94855 7.50086 13.3695 7.50086 13.3695Z" fill="white"/>
</svg>
