<svg viewBox="0 0 30 30" fill="none" xmlns="http://www.w3.org/2000/svg">
<path d="M29.348 6.5625H0.652344V11.25H29.348V6.5625Z" fill="#2D4A60"/>
<path d="M25.4345 20.625H22.1737C21.8135 20.625 21.5215 21.0448 21.5215 21.5625V23.4375C21.5215 23.9553 21.8135 24.375 22.1737 24.375H25.4345C25.7947 24.375 26.0867 23.9553 26.0867 23.4375V21.5625C26.0867 21.0448 25.7947 20.625 25.4345 20.625Z" fill="#FAC100"/>
<path d="M26.7391 0H3.26085C2.39633 0.00142383 1.56749 0.495729 0.956172 1.37452C0.344856 2.25325 0.000984376 3.44469 0 4.68746V25.3125C0.00106997 26.5552 0.34496 27.7466 0.956257 28.6253C1.56756 29.504 2.39634 29.9984 3.26085 30H26.7391C27.6036 29.9984 28.4324 29.5041 29.0437 28.6254C29.655 27.7467 29.9989 26.5552 30 25.3125V4.68755C29.999 3.44478 29.6552 2.25334 29.0439 1.37452C28.4325 0.495746 27.6037 0.00142383 26.7391 0ZM1.30433 7.50005H28.6957V10.3125H1.30433V7.50005ZM1.30433 4.68755C1.3049 3.94189 1.51121 3.22699 1.87801 2.69973C2.24481 2.17248 2.74212 1.87585 3.26085 1.87506H26.7391C27.2579 1.87585 27.7552 2.17248 28.122 2.69973C28.4888 3.22699 28.6951 3.94189 28.6957 4.68755V5.62508H1.30433V4.68755ZM28.6957 25.3125C28.6951 26.0581 28.4888 26.773 28.122 27.3003C27.7552 27.8275 27.2579 28.1242 26.7391 28.1249H3.26085C2.74212 28.1242 2.24481 27.8275 1.87801 27.3003C1.51121 26.773 1.3049 26.0581 1.30433 25.3125V12.1875H28.6957V25.3125Z" fill="black"/>
<path d="M3.91242 16.875H8.47766C8.56381 16.8762 8.64935 16.8529 8.7292 16.8063C8.80905 16.7597 8.88168 16.6908 8.94289 16.6037C9.00415 16.5165 9.05276 16.4127 9.0859 16.2984C9.1191 16.1841 9.13615 16.0614 9.13615 15.9376C9.13615 15.8136 9.1191 15.691 9.0859 15.5767C9.05276 15.4624 9.00415 15.3586 8.94289 15.2714C8.88168 15.1843 8.80905 15.1154 8.7292 15.0688C8.64935 15.0222 8.56381 14.9988 8.47766 15H3.91242C3.82624 14.9988 3.74076 15.0222 3.6609 15.0688C3.58104 15.1154 3.5084 15.1843 3.44717 15.2714C3.38593 15.3586 3.33733 15.4624 3.30416 15.5767C3.27099 15.691 3.25391 15.8136 3.25391 15.9376C3.25391 16.0614 3.27099 16.1841 3.30416 16.2984C3.33733 16.4127 3.38593 16.5165 3.44717 16.6037C3.5084 16.6908 3.58104 16.7597 3.6609 16.8063C3.74076 16.8529 3.82624 16.8762 3.91242 16.875Z" fill="black"/>
<path d="M22.1735 25.3124H25.4343C25.7801 25.312 26.1117 25.1142 26.3563 24.7627C26.6008 24.4112 26.7383 23.9345 26.7387 23.4374V21.5625C26.7383 21.0654 26.6008 20.5887 26.3563 20.2372C26.1118 19.8857 25.7802 19.688 25.4344 19.6875H22.1735C21.8277 19.688 21.4961 19.8857 21.2515 20.2372C21.007 20.5887 20.8695 21.0654 20.8691 21.5625V23.4374C20.8695 23.9345 21.007 24.4112 21.2515 24.7627C21.4961 25.1142 21.8277 25.3119 22.1735 25.3124ZM22.1735 21.5624H25.4343V23.4374H22.1735L22.1725 21.5625L22.1735 21.5624Z" fill="black"/>
</svg>
