<svg width="171" height="21" viewBox="0 0 171 21" fill="none" xmlns="http://www.w3.org/2000/svg">
<path d="M0 10.5C0 4.97716 4.47715 0.5 10 0.5H170.955V10.2044C170.955 15.7273 166.478 20.2044 160.955 20.2044H0V10.5Z" fill="#87BE56"/>
<path d="M31.6444 6.036V5.028H34.3644V16.5H33.2284V6.036H31.6444ZM44.0923 5.988H38.2363V10.084C38.503 9.71067 38.8923 9.40667 39.4043 9.172C39.9163 8.92667 40.471 8.804 41.0683 8.804C41.943 8.804 42.6576 8.98533 43.2123 9.348C43.767 9.7 44.167 10.164 44.4123 10.74C44.6576 11.3053 44.7803 11.9133 44.7803 12.564C44.7803 13.3107 44.6363 13.988 44.3483 14.596C44.071 15.1933 43.639 15.668 43.0523 16.02C42.4763 16.372 41.7563 16.548 40.8923 16.548C39.7936 16.548 38.903 16.2653 38.2203 15.7C37.5376 15.124 37.1216 14.3507 36.9723 13.38H38.0763C38.215 14.084 38.535 14.628 39.0363 15.012C39.5376 15.396 40.1563 15.588 40.8923 15.588C41.8203 15.588 42.519 15.316 42.9883 14.772C43.4683 14.2173 43.7083 13.4867 43.7083 12.58C43.7083 11.6947 43.4683 11.0067 42.9883 10.516C42.5083 10.0147 41.8203 9.764 40.9243 9.764C40.3056 9.764 39.7616 9.908 39.2923 10.196C38.823 10.484 38.4763 10.8733 38.2523 11.364H37.1963V5.012H44.0923V5.988ZM50.7739 7.428C50.7739 6.74533 50.9819 6.196 51.3979 5.78C51.8246 5.35333 52.3633 5.14 53.0139 5.14C53.6753 5.14 54.2139 5.35333 54.6299 5.78C55.0566 6.196 55.2699 6.74533 55.2699 7.428C55.2699 8.12133 55.0566 8.68133 54.6299 9.108C54.2139 9.524 53.6753 9.732 53.0139 9.732C52.3633 9.732 51.8246 9.524 51.3979 9.108C50.9819 8.68133 50.7739 8.12133 50.7739 7.428ZM59.7339 5.3L53.1739 16.5H52.0379L58.6139 5.3H59.7339ZM53.0139 5.86C52.6086 5.86 52.2833 5.99867 52.0379 6.276C51.8033 6.54267 51.6859 6.92667 51.6859 7.428C51.6859 7.92933 51.8033 8.31867 52.0379 8.596C52.2833 8.87333 52.6086 9.012 53.0139 9.012C53.4193 9.012 53.7446 8.87333 53.9899 8.596C54.2353 8.31867 54.3579 7.92933 54.3579 7.428C54.3579 6.93733 54.2353 6.55333 53.9899 6.276C53.7446 5.99867 53.4193 5.86 53.0139 5.86ZM56.5339 14.372C56.5339 13.6787 56.7419 13.124 57.1579 12.708C57.5846 12.2813 58.1233 12.068 58.7739 12.068C59.4246 12.068 59.9579 12.2813 60.3739 12.708C60.8006 13.124 61.0139 13.6787 61.0139 14.372C61.0139 15.0653 60.8006 15.6253 60.3739 16.052C59.9579 16.468 59.4246 16.676 58.7739 16.676C58.1233 16.676 57.5846 16.468 57.1579 16.052C56.7419 15.6253 56.5339 15.0653 56.5339 14.372ZM58.7739 12.804C58.3686 12.804 58.0433 12.9427 57.7979 13.22C57.5526 13.4973 57.4299 13.8813 57.4299 14.372C57.4299 14.8627 57.5526 15.2467 57.7979 15.524C58.0433 15.8013 58.3686 15.94 58.7739 15.94C59.1793 15.94 59.4993 15.8067 59.7339 15.54C59.9793 15.2627 60.1019 14.8733 60.1019 14.372C60.1019 13.8707 59.9793 13.4867 59.7339 13.22C59.4993 12.9427 59.1793 12.804 58.7739 12.804ZM72.7899 10.1V11.044H66.5659V10.1H72.7899ZM79.5894 15.62C81.5521 14.148 83.0668 12.8307 84.1334 11.668C85.2108 10.4947 85.7494 9.348 85.7494 8.228C85.7494 7.492 85.5628 6.90533 85.1894 6.468C84.8268 6.02 84.2294 5.796 83.3974 5.796C82.5868 5.796 81.9574 6.052 81.5094 6.564C81.0721 7.06533 80.8268 7.73733 80.7734 8.58H79.6854C79.7494 7.396 80.1121 6.47867 80.7734 5.828C81.4454 5.16667 82.3201 4.836 83.3974 4.836C84.4321 4.836 85.2694 5.12933 85.9094 5.716C86.5494 6.292 86.8694 7.11333 86.8694 8.18C86.8694 9.47067 86.3308 10.724 85.2534 11.94C84.1868 13.1453 82.8694 14.324 81.3014 15.476H87.2214V16.42H79.5894V15.62ZM88.9697 10.66C88.9697 8.82533 89.2524 7.40133 89.8177 6.388C90.383 5.37467 91.3964 4.868 92.8577 4.868C94.319 4.868 95.3324 5.37467 95.8977 6.388C96.463 7.40133 96.7457 8.82533 96.7457 10.66C96.7457 12.5267 96.463 13.972 95.8977 14.996C95.3324 16.02 94.319 16.532 92.8577 16.532C91.3857 16.532 90.367 16.02 89.8017 14.996C89.247 13.972 88.9697 12.5267 88.9697 10.66ZM95.6417 10.66C95.6417 9.668 95.5724 8.83067 95.4337 8.148C95.295 7.46533 95.023 6.916 94.6177 6.5C94.2124 6.084 93.6257 5.876 92.8577 5.876C92.0897 5.876 91.503 6.084 91.0977 6.5C90.6924 6.916 90.4204 7.46533 90.2817 8.148C90.143 8.83067 90.0737 9.668 90.0737 10.66C90.0737 11.684 90.143 12.5427 90.2817 13.236C90.4204 13.9187 90.6924 14.468 91.0977 14.884C91.503 15.3 92.0897 15.508 92.8577 15.508C93.6257 15.508 94.2124 15.3 94.6177 14.884C95.023 14.468 95.295 13.9187 95.4337 13.236C95.5724 12.5427 95.6417 11.684 95.6417 10.66ZM102.868 7.428C102.868 6.74533 103.076 6.196 103.492 5.78C103.918 5.35333 104.457 5.14 105.108 5.14C105.769 5.14 106.308 5.35333 106.724 5.78C107.15 6.196 107.364 6.74533 107.364 7.428C107.364 8.12133 107.15 8.68133 106.724 9.108C106.308 9.524 105.769 9.732 105.108 9.732C104.457 9.732 103.918 9.524 103.492 9.108C103.076 8.68133 102.868 8.12133 102.868 7.428ZM111.828 5.3L105.268 16.5H104.132L110.708 5.3H111.828ZM105.108 5.86C104.702 5.86 104.377 5.99867 104.132 6.276C103.897 6.54267 103.78 6.92667 103.78 7.428C103.78 7.92933 103.897 8.31867 104.132 8.596C104.377 8.87333 104.702 9.012 105.108 9.012C105.513 9.012 105.838 8.87333 106.084 8.596C106.329 8.31867 106.452 7.92933 106.452 7.428C106.452 6.93733 106.329 6.55333 106.084 6.276C105.838 5.99867 105.513 5.86 105.108 5.86ZM108.628 14.372C108.628 13.6787 108.836 13.124 109.252 12.708C109.678 12.2813 110.217 12.068 110.868 12.068C111.518 12.068 112.052 12.2813 112.468 12.708C112.894 13.124 113.108 13.6787 113.108 14.372C113.108 15.0653 112.894 15.6253 112.468 16.052C112.052 16.468 111.518 16.676 110.868 16.676C110.217 16.676 109.678 16.468 109.252 16.052C108.836 15.6253 108.628 15.0653 108.628 14.372ZM110.868 12.804C110.462 12.804 110.137 12.9427 109.892 13.22C109.646 13.4973 109.524 13.8813 109.524 14.372C109.524 14.8627 109.646 15.2467 109.892 15.524C110.137 15.8013 110.462 15.94 110.868 15.94C111.273 15.94 111.593 15.8067 111.828 15.54C112.073 15.2627 112.196 14.8733 112.196 14.372C112.196 13.8707 112.073 13.4867 111.828 13.22C111.593 12.9427 111.273 12.804 110.868 12.804ZM123.284 16.628C122.462 16.628 121.721 16.4467 121.06 16.084C120.409 15.7107 119.892 15.188 119.508 14.516C119.134 13.8333 118.948 13.0387 118.948 12.132C118.948 11.2253 119.14 10.436 119.524 9.764C119.908 9.08133 120.43 8.55867 121.092 8.196C121.753 7.82267 122.494 7.636 123.316 7.636C124.137 7.636 124.878 7.82267 125.54 8.196C126.212 8.55867 126.734 9.08133 127.108 9.764C127.492 10.436 127.684 11.2253 127.684 12.132C127.684 13.028 127.492 13.8173 127.108 14.5C126.724 15.1827 126.196 15.7107 125.524 16.084C124.852 16.4467 124.105 16.628 123.284 16.628ZM123.284 15.652C123.86 15.652 124.393 15.524 124.884 15.268C125.374 15.0013 125.769 14.6067 126.068 14.084C126.377 13.5507 126.532 12.9 126.532 12.132C126.532 11.364 126.382 10.7187 126.084 10.196C125.785 9.66267 125.39 9.268 124.9 9.012C124.409 8.74533 123.876 8.612 123.3 8.612C122.724 8.612 122.19 8.74533 121.7 9.012C121.209 9.268 120.814 9.66267 120.516 10.196C120.228 10.7187 120.084 11.364 120.084 12.132C120.084 12.9 120.228 13.5507 120.516 14.084C120.814 14.6067 121.204 15.0013 121.684 15.268C122.174 15.524 122.708 15.652 123.284 15.652ZM133.165 8.708H131.133V16.5H130.013V8.708H128.797V7.764H130.013V7.156C130.013 6.20667 130.253 5.508 130.733 5.06C131.224 4.612 132.013 4.388 133.101 4.388V5.348C132.376 5.348 131.864 5.48667 131.565 5.764C131.277 6.04133 131.133 6.50533 131.133 7.156V7.764H133.165V8.708ZM138.368 8.708H136.336V16.5H135.216V8.708H134V7.764H135.216V7.156C135.216 6.20667 135.456 5.508 135.936 5.06C136.427 4.612 137.216 4.388 138.304 4.388V5.348C137.579 5.348 137.067 5.48667 136.768 5.764C136.48 6.04133 136.336 6.50533 136.336 7.156V7.764H138.368V8.708Z" fill="white"/>
</svg>
