<svg viewBox="0 0 200 80" fill="none" xmlns="http://www.w3.org/2000/svg">
<path d="M37.1682 60.0003C36.6184 60.0003 36.0913 59.7603 35.7026 59.3332C35.3139 58.9061 35.0953 58.3268 35.0953 57.7227V45.893H4.14583V57.7227C4.14583 58.3268 3.92728 58.9061 3.53853 59.3332C3.14978 59.7603 2.62268 60.0003 2.07291 60.0003C1.52314 60.0003 0.995793 59.7603 0.607046 59.3332C0.218299 58.9061 0 58.3268 0 57.7227V43.6155C0 43.0114 0.218299 42.4321 0.607046 42.005C0.995793 41.5778 1.52314 41.3379 2.07291 41.3379H37.1682C37.718 41.3379 38.2453 41.5778 38.6341 42.005C39.0228 42.4321 39.2411 43.0114 39.2411 43.6155V57.7227C39.2411 58.0218 39.1877 58.3179 39.0835 58.5943C38.9793 58.8706 38.8266 59.1217 38.6341 59.3332C38.4416 59.5447 38.213 59.7124 37.9615 59.8269C37.71 59.9414 37.4404 60.0003 37.1682 60.0003Z" fill="#FFAD3F"/>
<path d="M56.248 59.0164C55.992 59.016 55.7381 58.9634 55.4995 58.8615C55.2456 58.7534 55.0136 58.5914 54.8168 58.3848C54.6199 58.1782 54.4621 57.931 54.3522 57.6573C54.2423 57.3836 54.1825 57.0888 54.1763 56.7898C54.1701 56.4907 54.2176 56.1932 54.316 55.9143L58.9436 42.7921C59.0948 42.3638 59.3603 41.9958 59.7053 41.7362C60.0502 41.4767 60.4585 41.3378 60.8766 41.3379H89.2425C89.6568 41.3379 90.0614 41.4742 90.4045 41.7294C90.7476 41.9845 91.0133 42.3468 91.1672 42.7694L95.9443 55.8915C96.0455 56.1692 96.0956 56.4661 96.0924 56.7652C96.0891 57.0643 96.0323 57.3598 95.9251 57.6347C95.8179 57.9097 95.6624 58.1587 95.4676 58.3677C95.2728 58.5766 95.0425 58.7413 94.7897 58.8524C94.5369 58.9635 94.2666 59.0188 93.9944 59.0152C93.7222 59.0116 93.4534 58.9492 93.2031 58.8314C92.9529 58.7136 92.7263 58.5428 92.5361 58.3287C92.346 58.1146 92.1959 57.8615 92.0948 57.5838L87.8392 45.893H62.3007L58.186 57.561C58.0347 57.9904 57.7686 58.3594 57.4226 58.6192C57.0766 58.879 56.6671 59.0175 56.248 59.0164Z" fill="#FFAD3F"/>
<path d="M148.363 59.3409H112.087C111.537 59.3409 111.01 59.101 110.621 58.6738C110.232 58.2467 110.014 57.6674 110.014 57.0633V43.6155C110.014 43.0114 110.232 42.4321 110.621 42.005C111.01 41.5778 111.537 41.3379 112.087 41.3379C112.636 41.3379 113.164 41.5778 113.552 42.005C113.941 42.4321 114.159 43.0114 114.159 43.6155V54.7858H148.363C148.912 54.7858 149.44 55.0257 149.828 55.4529C150.217 55.88 150.435 56.4593 150.435 57.0633C150.435 57.6674 150.217 58.2467 149.828 58.6738C149.44 59.101 148.912 59.3409 148.363 59.3409Z" fill="#FFAD3F"/>
<path d="M162.397 60.0003C161.847 60.0003 161.32 59.7603 160.931 59.3332C160.543 58.9061 160.324 58.3268 160.324 57.7227V43.6155C160.324 43.0114 160.543 42.4321 160.931 42.005C161.32 41.5778 161.847 41.3379 162.397 41.3379H186.434C186.983 41.3379 187.511 41.5778 187.899 42.005C188.288 42.4321 188.506 43.0114 188.506 43.6155C188.506 44.2195 188.288 44.7988 187.899 45.2259C187.511 45.6531 186.983 45.893 186.434 45.893H164.47V57.7227C164.47 58.3268 164.251 58.9061 163.863 59.3332C163.474 59.7603 162.947 60.0003 162.397 60.0003Z" fill="#FFAD3F"/>
<path d="M37.1702 36.9039H2.07487C1.5251 36.9039 0.997746 36.664 0.608999 36.2369C0.220252 35.8097 0.00195312 35.2304 0.00195312 34.6264V2.71311C0.00195312 2.10907 0.220252 1.52976 0.608999 1.10263C0.997746 0.675502 1.5251 0.435547 2.07487 0.435547C2.62464 0.435547 3.15174 0.675502 3.54048 1.10263C3.92923 1.52976 4.14778 2.10907 4.14778 2.71311V32.3488H35.0973V2.71311C35.0973 2.10907 35.3158 1.52976 35.7046 1.10263C36.0933 0.675502 36.6204 0.435547 37.1702 0.435547C37.7199 0.435547 38.2473 0.675502 38.636 1.10263C39.0248 1.52976 39.2431 2.10907 39.2431 2.71311V34.6264C39.2431 35.2304 39.0248 35.8097 38.636 36.2369C38.2473 36.664 37.7199 36.9039 37.1702 36.9039Z" fill="#87BE56"/>
<path d="M87.1529 36.8978H63.4181C63.0815 36.8977 62.7501 36.8075 62.4523 36.6351C62.1545 36.4627 61.8992 36.2132 61.7088 35.9082C61.5184 35.603 61.3987 35.2516 61.3596 34.8841C61.3206 34.5166 61.3638 34.1442 61.4852 33.7991L72.6787 1.94282C72.827 1.52107 73.0861 1.15736 73.4231 0.897976C73.7602 0.638596 74.16 0.495296 74.5714 0.486328H74.6129C75.0173 0.48647 75.4127 0.616558 75.7506 0.860582C76.0885 1.10461 76.3543 1.4519 76.5148 1.85969L89.0558 33.716C89.1922 34.0625 89.2481 34.4408 89.2185 34.8169C89.1888 35.193 89.0746 35.5551 88.886 35.8706C88.6973 36.1862 88.44 36.4454 88.1375 36.6247C87.835 36.804 87.4966 36.8979 87.1529 36.8978ZM66.4372 32.3427H83.997L74.7195 8.77782L66.4372 32.3427Z" fill="#87BE56"/>
<path d="M186.43 36.2133H162.245C161.695 36.2133 161.168 35.9733 160.779 35.5462C160.39 35.1191 160.172 34.5398 160.172 33.9357V2.27757C160.172 1.67352 160.39 1.09421 160.779 0.667082C161.168 0.239956 161.695 0 162.245 0H197.926C198.476 0 199.003 0.239956 199.391 0.667082C199.78 1.09421 199.999 1.67352 199.999 2.27757C199.999 2.88162 199.78 3.46093 199.391 3.88805C199.003 4.31518 198.476 4.55513 197.926 4.55513H164.318V31.6582H186.43C186.98 31.6582 187.508 31.8981 187.896 32.3252C188.285 32.7524 188.503 33.3317 188.503 33.9357C188.503 34.5398 188.285 35.1191 187.896 35.5462C187.508 35.9733 186.98 36.2133 186.43 36.2133Z" fill="#87BE56"/>
<path d="M112.085 36.9034C111.535 36.9034 111.008 36.6634 110.619 36.2363C110.23 35.8092 110.012 35.2299 110.012 34.6258V2.9221C110.012 2.31805 110.23 1.73874 110.619 1.31161C111.008 0.884487 111.535 0.644531 112.085 0.644531C112.634 0.644531 113.162 0.884487 113.55 1.31161C113.939 1.73874 114.158 2.31805 114.158 2.9221V34.6258C114.158 35.2299 113.939 35.8092 113.55 36.2363C113.162 36.6634 112.634 36.9034 112.085 36.9034Z" fill="#87BE56"/>
</svg>
