<svg width="37" height="37" viewBox="0 0 37 37" fill="none" xmlns="http://www.w3.org/2000/svg">
<path d="M35.252 16.2972L20.3136 1.7379C19.8255 1.26169 19.2043 1 18.5619 1C17.9196 1 17.2984 1.26169 16.8103 1.7379L1.78208 16.2972C1.56095 16.5083 1.37866 16.7672 1.24575 17.059C1.11284 17.3509 1.03194 17.6699 1.00772 17.9976C0.983495 18.3253 1.01643 18.6552 1.10463 18.9683C1.19283 19.2815 1.33454 19.5715 1.52158 19.8218C1.73018 20.1109 1.99413 20.3416 2.29312 20.4961C2.59211 20.6506 2.91818 20.7249 3.24628 20.7132H5.12368V34.3299C5.12368 34.5492 5.16155 34.7664 5.23514 34.969C5.30872 35.1717 5.41657 35.3558 5.55253 35.5108C5.6885 35.6659 5.84991 35.7889 6.02755 35.8729C6.2052 35.9568 6.39559 36 6.58788 36H13.1902C13.3825 36 13.5729 35.9568 13.7506 35.8729C13.9282 35.7889 14.0896 35.6659 14.2256 35.5108C14.3615 35.3558 14.4694 35.1717 14.543 34.969C14.6166 34.7664 14.6544 34.5492 14.6544 34.3299V25.9488C14.6544 25.6771 14.7491 25.4165 14.9175 25.2243C15.086 25.0322 15.3145 24.9242 15.5527 24.9242H21.5173C21.7555 24.9242 21.984 25.0322 22.1525 25.2243C22.3209 25.4165 22.4156 25.6771 22.4156 25.9488V34.3299C22.4156 34.5492 22.4534 34.7664 22.527 34.969C22.6006 35.1717 22.7084 35.3558 22.8444 35.5108C22.9804 35.6659 23.1418 35.7889 23.3194 35.8729C23.4971 35.9568 23.6875 36 23.8798 36H30.4821C30.6744 36 30.8648 35.9568 31.0424 35.8729C31.2201 35.7889 31.3815 35.6659 31.5174 35.5108C31.6534 35.3558 31.7613 35.1717 31.8348 34.969C31.9084 34.7664 31.9463 34.5492 31.9463 34.3299V20.7132H33.7878C34.2394 20.718 34.6813 20.5635 35.0531 20.2709C35.4248 19.9784 35.7082 19.5619 35.8645 19.0786C36.0209 18.5953 36.0425 18.0687 35.9264 17.5708C35.8103 17.0729 35.5622 16.6281 35.216 16.2972H35.252Z" stroke="" stroke-width="1.5" stroke-linecap="round" stroke-linejoin="round"/>
</svg>
