<svg width="50" height="40" viewBox="0 0 50 40" fill="none" xmlns="http://www.w3.org/2000/svg">
<path d="M7.87772 33.7012C7.81612 33.7004 7.75497 33.7114 7.6978 33.7336C7.64064 33.7558 7.58862 33.7888 7.54475 33.8307C7.50088 33.8726 7.46605 33.9224 7.44227 33.9774C7.41849 34.0324 7.40625 34.0914 7.40625 34.1511C7.40625 34.2107 7.41849 34.2697 7.44227 34.3247C7.46605 34.3797 7.50088 34.4296 7.54475 34.4714C7.58862 34.5133 7.64064 34.5463 7.6978 34.5685C7.75497 34.5907 7.81612 34.6017 7.87772 34.6009H44.8969C44.9585 34.6017 45.0196 34.5907 45.0768 34.5685C45.1339 34.5463 45.186 34.5133 45.2298 34.4714C45.2737 34.4296 45.3085 34.3797 45.3323 34.3247C45.3561 34.2697 45.3683 34.2107 45.3683 34.1511C45.3683 34.0914 45.3561 34.0324 45.3323 33.9774C45.3085 33.9224 45.2737 33.8726 45.2298 33.8307C45.186 33.7888 45.1339 33.7558 45.0768 33.7336C45.0196 33.7114 44.9585 33.7004 44.8969 33.7012H7.87772Z" fill="#4B5563"/>
<path d="M47.6794 33.713C47.6195 33.712 47.5601 33.7226 47.5045 33.7441C47.4488 33.7657 47.3982 33.7979 47.3555 33.8387C47.3128 33.8795 47.2789 33.9281 47.2558 33.9818C47.2326 34.0355 47.2207 34.0931 47.2207 34.1513C47.2207 34.2094 47.2326 34.267 47.2558 34.3207C47.2789 34.3744 47.3128 34.423 47.3555 34.4638C47.3982 34.5046 47.4488 34.5368 47.5045 34.5584C47.5601 34.58 47.6195 34.5905 47.6794 34.5896H49.542C49.6019 34.5905 49.6614 34.58 49.717 34.5584C49.7726 34.5368 49.8232 34.5046 49.8659 34.4638C49.9086 34.423 49.9425 34.3744 49.9657 34.3207C49.9888 34.267 50.0007 34.2094 50.0007 34.1513C50.0007 34.0931 49.9888 34.0355 49.9657 33.9818C49.9425 33.9281 49.9086 33.8795 49.8659 33.8387C49.8232 33.7979 49.7726 33.7657 49.717 33.7441C49.6614 33.7226 49.6019 33.712 49.542 33.713H47.6794Z" fill="#4B5563"/>
<path d="M0.419402 33.7012C0.364606 33.7004 0.310203 33.7114 0.259355 33.7336C0.208506 33.7558 0.162225 33.7888 0.123202 33.8307C0.0841787 33.8726 0.053192 33.9224 0.0320418 33.9774C0.0108916 34.0324 0 34.0914 0 34.1511C0 34.2107 0.0108916 34.2697 0.0320418 34.3247C0.053192 34.3797 0.0841787 34.4296 0.123202 34.4714C0.162225 34.5133 0.208506 34.5463 0.259355 34.5685C0.310203 34.5907 0.364606 34.6017 0.419402 34.6009H5.13603C5.19082 34.6017 5.24522 34.5907 5.29607 34.5685C5.34692 34.5463 5.3932 34.5133 5.43222 34.4714C5.47125 34.4296 5.50223 34.3797 5.52339 34.3247C5.54454 34.2697 5.55543 34.2107 5.55543 34.1511C5.55543 34.0914 5.54454 34.0324 5.52339 33.9774C5.50223 33.9224 5.47125 33.8726 5.43222 33.8307C5.3932 33.7888 5.34692 33.7558 5.29607 33.7336C5.24522 33.7114 5.19082 33.7004 5.13603 33.7012H0.419402Z" fill="#4B5563"/>
<path fill-rule="evenodd" clip-rule="evenodd" d="M16.2155 35.4981C16.1537 35.4977 16.0925 35.5093 16.0353 35.532C15.9781 35.5547 15.9262 35.5882 15.8823 35.6305C15.8385 35.6728 15.8038 35.7231 15.7801 35.7785C15.7564 35.834 15.7441 35.8934 15.7441 35.9534C15.7441 36.0134 15.7564 36.0728 15.7801 36.1282C15.8038 36.1836 15.8385 36.2339 15.8823 36.2763C15.9262 36.3186 15.9781 36.352 16.0353 36.3748C16.0925 36.3975 16.1537 36.4091 16.2155 36.4087H34.709C34.7707 36.4091 34.832 36.3975 34.8891 36.3748C34.9463 36.352 34.9983 36.3186 35.0421 36.2763C35.0859 36.2339 35.1206 36.1836 35.1444 36.1282C35.1681 36.0728 35.1803 36.0134 35.1803 35.9534C35.1803 35.8934 35.1681 35.834 35.1444 35.7785C35.1206 35.7231 35.0859 35.6728 35.0421 35.6305C34.9983 35.5882 34.9463 35.5547 34.8891 35.532C34.832 35.5093 34.7707 35.4977 34.709 35.4981H16.2155Z" fill="#4B5563"/>
<path fill-rule="evenodd" clip-rule="evenodd" d="M19.0413 37.3028C18.9729 37.3019 18.9049 37.3129 18.8414 37.3352C18.7779 37.3574 18.7202 37.3904 18.6714 37.4323C18.6227 37.4741 18.584 37.524 18.5576 37.579C18.5312 37.634 18.5176 37.693 18.5176 37.7526C18.5176 37.8122 18.5312 37.8712 18.5576 37.9262C18.584 37.9812 18.6227 38.0311 18.6714 38.073C18.7202 38.1148 18.7779 38.1478 18.8414 38.1701C18.9049 38.1923 18.9729 38.2033 19.0413 38.2024H24.4752C24.5436 38.2033 24.6116 38.1923 24.675 38.1701C24.7385 38.1478 24.7963 38.1148 24.8451 38.073C24.8938 38.0311 24.9325 37.9812 24.9589 37.9262C24.9853 37.8712 24.9989 37.8122 24.9989 37.7526C24.9989 37.693 24.9853 37.634 24.9589 37.579C24.9325 37.524 24.8938 37.4741 24.8451 37.4323C24.7963 37.3904 24.7385 37.3574 24.675 37.3352C24.6116 37.3129 24.5436 37.3019 24.4752 37.3028H19.0413Z" fill="#4B5563"/>
<path fill-rule="evenodd" clip-rule="evenodd" d="M27.3193 37.3067C27.2583 37.3055 27.1977 37.3163 27.141 37.3381C27.0843 37.36 27.0327 37.3926 26.9891 37.4341C26.9456 37.4756 26.911 37.5251 26.8874 37.5797C26.8637 37.6344 26.8516 37.693 26.8516 37.7523C26.8516 37.8115 26.8637 37.8703 26.8874 37.9249C26.911 37.9796 26.9456 38.0291 26.9891 38.0705C27.0327 38.112 27.0843 38.1447 27.141 38.1665C27.1977 38.1884 27.2583 38.199 27.3193 38.1978H33.7964C33.8574 38.199 33.918 38.1884 33.9747 38.1665C34.0314 38.1447 34.083 38.112 34.1266 38.0705C34.1701 38.0291 34.2047 37.9796 34.2283 37.9249C34.252 37.8703 34.2641 37.8115 34.2641 37.7523C34.2641 37.693 34.252 37.6344 34.2283 37.5797C34.2047 37.5251 34.1701 37.4756 34.1266 37.4341C34.083 37.3926 34.0314 37.36 33.9747 37.3381C33.918 37.3163 33.8574 37.3055 33.7964 37.3067H27.3193Z" fill="#4B5563"/>
<path fill-rule="evenodd" clip-rule="evenodd" d="M21.8312 39.0997C21.7611 39.0988 21.6915 39.1098 21.6265 39.1321C21.5615 39.1543 21.5023 39.1873 21.4524 39.2291C21.4026 39.271 21.3629 39.3209 21.3359 39.3759C21.3088 39.4309 21.2949 39.4899 21.2949 39.5495C21.2949 39.6091 21.3088 39.6681 21.3359 39.7231C21.3629 39.7781 21.4026 39.828 21.4524 39.8698C21.5023 39.9117 21.5615 39.9447 21.6265 39.9669C21.6915 39.9892 21.7611 40.0002 21.8312 39.9993H27.24C27.3101 40.0002 27.3796 39.9892 27.4447 39.9669C27.5097 39.9447 27.5688 39.9117 27.6187 39.8698C27.6686 39.828 27.7082 39.7781 27.7353 39.7231C27.7623 39.6681 27.7763 39.6091 27.7763 39.5495C27.7763 39.4899 27.7623 39.4309 27.7353 39.3759C27.7082 39.3209 27.6686 39.271 27.6187 39.2291C27.5688 39.1873 27.5097 39.1543 27.4447 39.1321C27.3796 39.1098 27.3101 39.0988 27.24 39.0997H21.8312Z" fill="#4B5563"/>
<path fill-rule="evenodd" clip-rule="evenodd" d="M15.9043 5.16605C15.7445 5.16605 15.6169 5.29631 15.6194 5.45159C15.6194 5.64655 15.5337 5.73499 15.3346 5.73499C14.9432 5.72599 14.9432 6.30274 15.3346 6.29734C15.5263 6.29734 15.6194 6.34863 15.6194 6.5686C15.6139 6.94889 16.2037 6.94889 16.1982 6.5686C16.1982 6.36914 16.2943 6.29734 16.4842 6.29734C16.8756 6.30633 16.8756 5.72959 16.4842 5.73499C16.2262 5.73499 16.1982 5.59158 16.1982 5.45159C16.2001 5.29289 16.0677 5.16353 15.9043 5.16605Z" fill="#4B5563"/>
<path fill-rule="evenodd" clip-rule="evenodd" d="M8.04031 16.0606C7.82094 16.0606 7.64589 16.2394 7.64933 16.4525C7.64933 16.7202 7.53165 16.8415 7.25836 16.8415C6.72117 16.8325 6.72117 17.6208 7.25836 17.6134C7.5215 17.6134 7.64933 17.6844 7.64933 17.9857C7.64192 18.5075 8.45128 18.5075 8.44368 17.9857C8.44368 17.7119 8.57554 17.6134 8.8362 17.6134C9.3734 17.6224 9.3734 16.8341 8.8362 16.8415C8.48205 16.8415 8.44368 16.6446 8.44368 16.4525C8.44646 16.2347 8.26452 16.0572 8.04031 16.0606Z" fill="#4B5563"/>
<path fill-rule="evenodd" clip-rule="evenodd" d="M10.1642 22.336C10.0437 22.336 9.94761 22.4341 9.9495 22.5512C9.9495 22.698 9.88487 22.7647 9.73487 22.7647C9.43994 22.7647 9.43994 23.1925 9.73487 23.1884C9.87933 23.1884 9.9495 23.2271 9.9495 23.3928C9.94487 23.6794 10.3898 23.6794 10.3856 23.3928C10.3856 23.2425 10.458 23.1884 10.6011 23.1884C10.896 23.1884 10.896 22.7605 10.6011 22.7647C10.4067 22.7647 10.3856 22.6566 10.3856 22.5512C10.3875 22.4315 10.2872 22.3341 10.1642 22.336Z" fill="#4B5563"/>
<path fill-rule="evenodd" clip-rule="evenodd" d="M7.81055 5.8848C7.65072 5.8848 7.52318 6.01506 7.52568 6.17034C7.52568 6.3653 7.43994 6.45374 7.24082 6.45374C6.84941 6.44474 6.84941 7.02154 7.24082 7.01614C7.43255 7.01614 7.52568 7.0674 7.52568 7.28746C7.52012 7.66766 8.10999 7.66766 8.10445 7.28746C8.10445 7.08791 8.20053 7.01614 8.39044 7.01614C8.78185 7.02514 8.78185 6.44834 8.39044 6.45374C8.1324 6.45374 8.10445 6.31033 8.10445 6.17034C8.1063 6.01164 7.97392 5.88228 7.81055 5.8848Z" fill="#4B5563"/>
<path fill-rule="evenodd" clip-rule="evenodd" d="M34.1544 1.39651C34.034 1.39831 33.9379 1.4947 33.9397 1.61171C33.9397 1.75862 33.8751 1.82526 33.7251 1.82526C33.4302 1.82076 33.4302 2.25306 33.7251 2.24901C33.8696 2.24901 33.9397 2.28767 33.9397 2.45339C33.9351 2.73994 34.38 2.73994 34.3758 2.45339C34.3758 2.30306 34.4482 2.24901 34.5913 2.24901C34.8863 2.24901 34.8863 1.82117 34.5913 1.82526C34.3969 1.82526 34.3758 1.71715 34.3758 1.61171C34.3777 1.49211 34.2775 1.39464 34.1544 1.39651Z" fill="#4B5563"/>
<path fill-rule="evenodd" clip-rule="evenodd" d="M28.2383 4.42386C28.0785 4.42386 27.9509 4.55412 27.9534 4.7094C27.9534 4.90436 27.8677 4.9928 27.6686 4.9928C27.2771 4.98381 27.2771 5.5606 27.6686 5.55521C27.8603 5.55521 27.9534 5.60646 27.9534 5.82652C27.9479 6.20672 28.5377 6.20672 28.5322 5.82652C28.5322 5.62698 28.6283 5.55521 28.8182 5.55521C29.2096 5.5642 29.2096 4.9874 28.8182 4.9928C28.5601 4.9928 28.5322 4.84939 28.5322 4.7094C28.534 4.5507 28.4016 4.42135 28.2383 4.42386Z" fill="#4B5563"/>
<path fill-rule="evenodd" clip-rule="evenodd" d="M38.1817 15.4746C38.0613 15.4746 37.9652 15.5729 37.9671 15.6898C37.9671 15.8367 37.9025 15.9034 37.7524 15.9034C37.4575 15.9034 37.4575 16.3312 37.7524 16.3272C37.8969 16.3272 37.9671 16.3659 37.9671 16.5316C37.9624 16.8181 38.4074 16.8181 38.4032 16.5316C38.4032 16.3812 38.4756 16.3272 38.6187 16.3272C38.9136 16.3272 38.9136 15.8993 38.6187 15.9034C38.4242 15.9034 38.4032 15.7953 38.4032 15.6898C38.405 15.5703 38.3048 15.4728 38.1817 15.4746Z" fill="#4B5563"/>
<path fill-rule="evenodd" clip-rule="evenodd" d="M44.1028 22.4786C43.8834 22.4786 43.7084 22.6573 43.7118 22.8705C43.7118 23.1381 43.5941 23.2594 43.3209 23.2594C42.7837 23.2504 42.7837 24.0388 43.3209 24.0314C43.584 24.0314 43.7118 24.1024 43.7118 24.4037C43.7044 24.9255 44.5138 24.9255 44.5062 24.4037C44.5062 24.1299 44.6381 24.0314 44.8987 24.0314C45.4359 24.0403 45.4359 23.252 44.8987 23.2594C44.5445 23.2594 44.5062 23.0625 44.5062 22.8705C44.509 22.6527 44.327 22.4751 44.1028 22.4786Z" fill="#4B5563"/>
<path fill-rule="evenodd" clip-rule="evenodd" d="M40.332 6.4473C40.1722 6.4473 40.0447 6.57756 40.0472 6.73284C40.0472 6.9278 39.9614 7.01624 39.7623 7.01624C39.3709 7.00724 39.3709 7.58404 39.7623 7.57864C39.954 7.57864 40.0472 7.6299 40.0472 7.84996C40.0416 8.23016 40.6315 8.23016 40.6259 7.84996C40.6259 7.65041 40.722 7.57864 40.9119 7.57864C41.3033 7.58764 41.3033 7.01084 40.9119 7.01624C40.6539 7.01624 40.6259 6.87283 40.6259 6.73284C40.6278 6.57414 40.4954 6.44478 40.332 6.4473Z" fill="#4B5563"/>
<path fill-rule="evenodd" clip-rule="evenodd" d="M21.0637 2.73476e-05C20.9402 0.00182669 20.8416 0.100747 20.8435 0.220771C20.8435 0.371448 20.7772 0.439758 20.6234 0.439758C20.3209 0.43526 20.3209 0.878639 20.6234 0.874438C20.7715 0.874438 20.8435 0.914268 20.8435 1.08409C20.8398 1.37798 21.2951 1.37798 21.2908 1.08409C21.2908 0.929895 21.3652 0.874438 21.5119 0.874438C21.8144 0.878936 21.8144 0.435557 21.5119 0.439758C21.3124 0.439758 21.2908 0.32893 21.2908 0.220771C21.2918 0.0980835 21.1899 -0.00189795 21.0637 2.73476e-05Z" fill="#4B5563"/>
<path d="M14.8986 18.8526C14.2224 18.9493 13.5514 19.1618 12.9184 19.4975C12.1742 19.892 11.5493 20.4203 11.0611 21.0349C11.024 21.0818 10.9966 21.1353 10.9807 21.1924C10.9649 21.2495 10.9607 21.3091 10.9685 21.3677C10.9763 21.4264 10.9959 21.483 11.0262 21.5343C11.0565 21.5856 11.097 21.6306 11.1452 21.6667C11.1934 21.7028 11.2484 21.7294 11.3072 21.7448C11.366 21.7603 11.4273 21.7643 11.4877 21.7567C11.5481 21.7491 11.6063 21.73 11.6591 21.7006C11.7119 21.6711 11.7582 21.6318 11.7954 21.585C12.2072 21.0663 12.733 20.6206 13.3632 20.2864C14.4356 19.7179 15.6226 19.5713 16.7359 19.7839C16.7957 19.7953 16.8571 19.7951 16.9168 19.7835C16.9765 19.7718 17.0332 19.7489 17.0838 19.716C17.1343 19.683 17.1777 19.6407 17.2114 19.5914C17.2451 19.5422 17.2685 19.487 17.2803 19.4289C17.2921 19.3709 17.2919 19.3112 17.2799 19.2532C17.2679 19.1952 17.2443 19.1401 17.2104 19.091C17.1764 19.0418 17.1329 18.9997 17.0822 18.967C17.0315 18.9342 16.9747 18.9114 16.915 18.9C16.2568 18.7743 15.5747 18.7558 14.8986 18.8524V18.8526ZM10.7664 21.9417C10.6753 21.9411 10.586 21.9666 10.5098 22.015C10.4336 22.0635 10.3737 22.1327 10.3378 22.214C10.2529 22.3987 10.1781 22.5879 10.1135 22.7798C10.0947 22.836 10.0874 22.8953 10.092 22.9542C10.0967 23.0131 10.1133 23.0706 10.1409 23.1233C10.1684 23.176 10.2064 23.2229 10.2526 23.2614C10.2988 23.2998 10.3523 23.3291 10.4101 23.3474C10.468 23.3658 10.5289 23.3728 10.5896 23.3683C10.6502 23.3637 10.7094 23.3476 10.7636 23.3208C10.8178 23.2941 10.8661 23.2572 10.9057 23.2123C10.9453 23.1674 10.9754 23.1154 10.9942 23.0592C11.0488 22.8969 11.1124 22.7374 11.1841 22.5813C11.2168 22.5129 11.2314 22.4376 11.2263 22.3623C11.2213 22.287 11.1968 22.2142 11.1552 22.1505C11.1136 22.0868 11.0562 22.0343 10.9882 21.9979C10.9203 21.9614 10.844 21.9421 10.7664 21.9417ZM10.2709 23.7779C10.1561 23.783 10.0475 23.8294 9.96592 23.908C9.88438 23.9865 9.8358 24.0917 9.82962 24.2032C9.75648 25.2678 9.98575 26.3675 10.5494 27.3713C12.1264 30.1801 15.7475 31.1975 18.6293 29.6697C19.7505 29.0753 20.6023 28.1793 21.1285 27.1447C21.1989 27.0064 21.2635 26.8658 21.322 26.7229C21.3445 26.668 21.3556 26.6093 21.3547 26.5502C21.3538 26.4911 21.3409 26.4328 21.3168 26.3785C21.2927 26.3243 21.2579 26.2752 21.2142 26.234C21.1706 26.1928 21.1191 26.1605 21.0625 26.1387C21.006 26.1169 20.9456 26.1061 20.8848 26.1069C20.824 26.1078 20.764 26.1203 20.7081 26.1437C20.6523 26.1671 20.6017 26.201 20.5594 26.2434C20.517 26.2858 20.4837 26.3359 20.4612 26.3908C20.4118 26.5115 20.3578 26.6308 20.2985 26.7475C19.8537 27.6219 19.1379 28.3745 18.1863 28.879C15.7402 30.1758 12.6989 29.3231 11.3613 26.9408C10.8833 26.0894 10.6919 25.1649 10.7537 24.2647C10.7592 24.2009 10.7506 24.1367 10.7285 24.0764C10.7064 24.0161 10.6714 23.9612 10.6257 23.9151C10.58 23.869 10.5247 23.833 10.4635 23.8093C10.4023 23.7857 10.3366 23.775 10.2709 23.7779Z" fill="#4B5563"/>
<path d="M16.0115 22.2684C15.5857 22.2387 15.1623 22.3512 14.7854 22.5513C14.3846 22.7638 14.0684 23.0625 13.8794 23.4124C13.6904 23.7622 13.6315 24.2021 13.8432 24.5791C14.0399 24.9294 14.4077 25.1499 14.8017 25.2117C15.1957 25.2738 15.6222 25.1927 16.0278 24.978C16.2829 24.8427 16.4914 24.8179 16.6282 24.8409C16.7649 24.8643 16.8379 24.9174 16.8958 25.0202C16.9309 25.0831 16.9398 25.1753 16.8524 25.3365C16.7651 25.4976 16.578 25.6895 16.3226 25.8249C16.0775 25.9549 15.8042 26.0171 15.6064 26.0024C15.5443 25.995 15.4812 25.9998 15.4211 26.0167C15.3609 26.0336 15.3049 26.0622 15.2564 26.1007C15.208 26.1392 15.168 26.1869 15.1391 26.2408C15.1101 26.2948 15.0927 26.3539 15.088 26.4146C15.0832 26.4753 15.0911 26.5362 15.1113 26.5938C15.1315 26.6514 15.1635 26.7044 15.2054 26.7497C15.2472 26.7949 15.2981 26.8315 15.3549 26.8571C15.4118 26.8826 15.4733 26.8968 15.5359 26.8986C15.9665 26.9301 16.39 26.8131 16.7656 26.6139C17.1661 26.4017 17.4823 26.1058 17.6716 25.7564C17.861 25.407 17.9213 24.9667 17.7096 24.5897C17.5207 24.2531 17.1731 24.0203 16.7873 23.9553C16.4016 23.8905 15.9855 23.975 15.5847 24.1873C15.3344 24.32 15.1067 24.3492 14.9482 24.3243C14.7897 24.2991 14.7072 24.2379 14.657 24.1486C14.6219 24.0865 14.6132 23.9904 14.7004 23.8288C14.7877 23.6673 14.9734 23.4773 15.2285 23.3421C15.4683 23.2149 15.7478 23.1509 15.9464 23.1645C16.0089 23.1722 16.0723 23.1674 16.1328 23.1505C16.1933 23.1335 16.2495 23.1048 16.2982 23.066C16.3469 23.0272 16.3869 22.9791 16.4158 22.9247C16.4447 22.8704 16.4619 22.8109 16.4663 22.7499C16.4707 22.6889 16.4623 22.6277 16.4415 22.5699C16.4208 22.5122 16.3881 22.4591 16.3456 22.4141C16.303 22.369 16.2514 22.3328 16.194 22.3078C16.1366 22.2827 16.0745 22.2693 16.0115 22.2684H16.0115Z" fill="#4B5563"/>
<path d="M14.2957 21.5059C14.2152 21.5068 14.1364 21.528 14.0669 21.5676C13.9975 21.6071 13.9398 21.6635 13.8997 21.7313C13.8595 21.799 13.8382 21.8758 13.8379 21.954C13.8376 22.0322 13.8582 22.1091 13.8978 22.1771L14.4584 23.1753C14.4875 23.2272 14.5269 23.273 14.5742 23.3102C14.6215 23.3473 14.6759 23.3751 14.7343 23.3918C14.7926 23.4085 14.8538 23.4138 14.9143 23.4076C14.9748 23.4013 15.0335 23.3836 15.0869 23.3553C15.1403 23.327 15.1875 23.2888 15.2257 23.2429C15.264 23.1969 15.2925 23.144 15.3097 23.0873C15.3269 23.0306 15.3325 22.9711 15.326 22.9123C15.3196 22.8536 15.3013 22.7966 15.2722 22.7446L14.7116 21.7467C14.6719 21.6732 14.612 21.6118 14.5386 21.5693C14.4652 21.5268 14.3811 21.5048 14.2957 21.5059Z" fill="#4B5563"/>
<path d="M16.6726 25.7403C16.5922 25.7412 16.5133 25.7624 16.4439 25.8019C16.3744 25.8414 16.3168 25.8979 16.2766 25.9656C16.2365 26.0334 16.2152 26.1102 16.2148 26.1883C16.2145 26.2665 16.2352 26.3434 16.2748 26.4115L16.8661 27.4658C16.9249 27.5707 17.0241 27.6486 17.142 27.6824C17.2598 27.7162 17.3866 27.703 17.4946 27.6459C17.6025 27.5888 17.6826 27.4925 17.7174 27.378C17.7521 27.2634 17.7387 27.1402 17.6799 27.0353L17.0886 25.981C17.0489 25.9075 16.989 25.8461 16.9156 25.8036C16.8422 25.7611 16.7581 25.7392 16.6726 25.7403Z" fill="#4B5563"/>
<path d="M34.2483 18.8173C34.2375 18.8169 34.2266 18.8169 34.2158 18.8173C34.0098 18.8389 33.8032 18.8703 33.5991 18.9122C33.479 18.9371 33.3739 19.0074 33.3071 19.1076C33.2403 19.2078 33.2172 19.3296 33.2428 19.4463C33.2685 19.5631 33.3408 19.6651 33.4439 19.7301C33.547 19.795 33.6725 19.8174 33.7926 19.7925C33.9639 19.7574 34.1373 19.7296 34.3134 19.7116C34.4359 19.7031 34.5499 19.6477 34.6304 19.5576C34.7109 19.4675 34.7513 19.35 34.7426 19.231C34.734 19.1119 34.6771 19.0011 34.5844 18.9228C34.4917 18.8445 34.3708 18.8053 34.2483 18.8136V18.8173ZM35.5359 18.8362C35.4199 18.8418 35.3103 18.8895 35.2288 18.97C35.1474 19.0504 35.1 19.1577 35.0962 19.2705C35.0923 19.3833 35.1322 19.4934 35.208 19.5789C35.2837 19.6644 35.3898 19.7192 35.5052 19.7323C36.1734 19.8196 36.8326 20.0385 37.4456 20.4017C39.8225 21.8106 40.5687 24.8265 39.1147 27.1423C38.7742 27.6847 38.3467 28.1363 37.8579 28.4953C37.8083 28.5305 37.7663 28.5748 37.7345 28.6259C37.7028 28.6769 37.6817 28.7336 37.6727 28.7926C37.6636 28.8516 37.6668 28.9118 37.6819 28.9696C37.697 29.0275 37.7239 29.0818 37.7608 29.1294C37.7977 29.1771 37.8441 29.2172 37.8971 29.2473C37.9501 29.2774 38.0088 29.297 38.0696 29.3048C38.1305 29.3127 38.1924 29.3087 38.2517 29.2931C38.3109 29.2775 38.3664 29.2506 38.4149 29.214C38.9945 28.7884 39.5035 28.2493 39.905 27.6097C41.6194 24.8791 40.7347 21.2972 37.9284 19.6339C37.2047 19.205 36.4202 18.943 35.6281 18.8397C35.5975 18.8367 35.5666 18.8367 35.5359 18.8397L35.5359 18.8362ZM29.6333 26.0089C29.561 26.0142 29.491 26.0359 29.4289 26.0723C29.3668 26.1087 29.3144 26.1587 29.2759 26.2184C29.2374 26.278 29.2138 26.3457 29.2071 26.4158C29.2004 26.4859 29.2107 26.5566 29.2372 26.6222C29.6907 27.7894 30.5383 28.8256 31.7184 29.525C32.8086 30.1712 34.0321 30.4418 35.2176 30.3667C35.549 30.346 35.8768 30.2974 36.1978 30.2244C36.5183 30.1506 36.8335 30.0516 37.1381 29.9274C37.1958 29.9057 37.2485 29.8729 37.2929 29.8311C37.3373 29.7893 37.3727 29.7392 37.3969 29.6839C37.4211 29.6286 37.4337 29.5691 37.4338 29.509C37.4339 29.4489 37.4217 29.3894 37.3978 29.3339C37.3738 29.2785 37.3387 29.2282 37.2945 29.1862C37.2502 29.1442 37.1978 29.1112 37.1402 29.0892C37.0826 29.0672 37.0211 29.0566 36.9592 29.0582C36.8974 29.0597 36.8365 29.0733 36.7801 29.098C36.5229 29.2029 36.2572 29.2872 35.9862 29.3493C35.7135 29.4114 35.4353 29.4529 35.1561 29.4704C34.1547 29.5343 33.1268 29.3074 32.2012 28.7588C31.1996 28.1652 30.4866 27.2937 30.1034 26.3075C30.0693 26.2149 30.0048 26.1357 29.9199 26.0821C29.835 26.0284 29.7343 26.0033 29.6333 26.0106V26.0089Z" fill="#4B5563"/>
<path d="M34.9195 22.3999C34.5132 22.4161 34.0918 22.5851 33.8616 22.9516C33.6477 23.2923 33.6329 23.712 33.7748 24.0744C33.9167 24.4368 34.205 24.7562 34.5994 24.9899C34.8475 25.137 34.9729 25.3009 35.0208 25.4275C35.0686 25.554 35.0584 25.6417 34.9955 25.742C34.9573 25.8032 34.8771 25.8562 34.6899 25.8632C34.5026 25.8722 34.2402 25.8083 33.9918 25.6612C33.7534 25.5198 33.5604 25.3218 33.4746 25.1481C33.4484 25.0948 33.4116 25.047 33.3663 25.0075C33.3211 24.968 33.2683 24.9375 33.2109 24.9179C33.1536 24.8982 33.0928 24.8897 33.0321 24.8928C32.9713 24.896 32.9118 24.9108 32.857 24.9363C32.8021 24.9618 32.753 24.9976 32.7123 25.0415C32.6717 25.0855 32.6404 25.1368 32.6201 25.1925C32.5999 25.2483 32.5912 25.3073 32.5944 25.3663C32.5977 25.4253 32.6129 25.4831 32.6391 25.5364C32.826 25.9146 33.1437 26.2126 33.509 26.429C33.8984 26.6601 34.3199 26.7764 34.726 26.7611C35.1322 26.7459 35.5556 26.576 35.7857 26.2094C35.9912 25.8821 36.0238 25.4734 35.8888 25.1164C35.7538 24.7594 35.4702 24.4531 35.0805 24.222C34.837 24.0778 34.6981 23.9005 34.641 23.7546C34.5839 23.6088 34.5973 23.5076 34.6519 23.4208C34.69 23.3605 34.7698 23.3051 34.9575 23.2978C35.1451 23.2888 35.4093 23.3527 35.6573 23.4998C35.8911 23.6384 36.0864 23.8414 36.1727 24.0147C36.1992 24.0679 36.2362 24.1155 36.2816 24.1548C36.3271 24.1941 36.38 24.2244 36.4374 24.2438C36.4949 24.2632 36.5557 24.2715 36.6164 24.2681C36.6771 24.2646 36.7365 24.2496 36.7913 24.2239C36.846 24.1982 36.895 24.1622 36.9354 24.118C36.9759 24.0739 37.007 24.0225 37.027 23.9667C37.0469 23.9109 37.0554 23.8517 37.0519 23.7927C37.0484 23.7337 37.0329 23.676 37.0064 23.6228C36.8199 23.2486 36.5044 22.949 36.1384 22.732C35.7486 22.501 35.3258 22.384 34.9195 22.3999Z" fill="#4B5563"/>
<path d="M36.4435 21.5764C36.3604 21.5738 36.2781 21.5929 36.2052 21.6319C36.1323 21.6708 36.0716 21.7282 36.0294 21.7978L35.42 22.7695C35.3852 22.82 35.3614 22.8768 35.3498 22.9364C35.3382 22.9961 35.3392 23.0574 35.3527 23.1166C35.3661 23.1759 35.3918 23.2319 35.4281 23.2813C35.4645 23.3307 35.5107 23.3724 35.5641 23.404C35.6174 23.4355 35.6768 23.4563 35.7386 23.4649C35.8005 23.4736 35.8635 23.47 35.9238 23.4544C35.9842 23.4388 36.0407 23.4115 36.0899 23.3741C36.1391 23.3367 36.1801 23.2901 36.2102 23.2369L36.8197 22.267C36.8634 22.2 36.8881 22.1229 36.8913 22.0437C36.8945 21.9644 36.8761 21.8857 36.8379 21.8156C36.7997 21.7455 36.7431 21.6865 36.6738 21.6444C36.6046 21.6024 36.5251 21.579 36.4435 21.5764Z" fill="#4B5563"/>
<path d="M33.8563 25.6956C33.7732 25.6929 33.6908 25.7121 33.618 25.751C33.5451 25.79 33.4844 25.8473 33.4422 25.917L32.7984 26.9414C32.7344 27.0432 32.7146 27.1656 32.7434 27.2816C32.7722 27.3976 32.8473 27.4977 32.9521 27.5599C33.0569 27.6221 33.1828 27.6414 33.3022 27.6134C33.4216 27.5854 33.5246 27.5124 33.5887 27.4105L34.2325 26.3844C34.2757 26.3174 34.3001 26.2406 34.3031 26.1615C34.306 26.0825 34.2875 26.0042 34.2494 25.9343C34.2112 25.8645 34.1548 25.8056 34.0858 25.7636C34.0168 25.7217 33.9376 25.6983 33.8563 25.6956Z" fill="#4B5563"/>
<path d="M25.1545 11.0957C23.912 11.0957 22.727 11.3495 21.6553 11.8073C21.5996 11.8311 21.5492 11.8653 21.5071 11.908C21.465 11.9506 21.432 12.0009 21.4099 12.056C21.3878 12.1111 21.3771 12.1698 21.3784 12.2289C21.3797 12.288 21.3929 12.3463 21.4174 12.4004C21.4418 12.4545 21.477 12.5035 21.5209 12.5444C21.5649 12.5853 21.6166 12.6174 21.6733 12.6388C21.73 12.6603 21.7905 12.6707 21.8513 12.6694C21.9121 12.6682 21.9721 12.6553 22.0278 12.6315C22.9851 12.2225 24.0418 11.9954 25.1545 11.9954C29.4696 11.9954 32.965 15.404 32.965 19.6075C32.965 20.5919 32.7731 21.5283 32.4243 22.3873C32.3997 22.4426 32.3867 22.5022 32.3862 22.5625C32.3858 22.6228 32.3978 22.6826 32.4215 22.7383C32.4453 22.794 32.4804 22.8445 32.5246 22.8867C32.5689 22.929 32.6214 22.9622 32.6791 22.9844C32.7369 23.0065 32.7986 23.0172 32.8606 23.0157C32.9227 23.0142 32.9838 23.0006 33.0403 22.9757C33.0968 22.9509 33.1476 22.9152 33.1897 22.8709C33.2317 22.8265 33.2642 22.7744 33.2851 22.7176C33.6757 21.7557 33.8909 20.7057 33.8909 19.6075C33.8909 14.9181 29.9726 11.0957 25.1545 11.0957ZM20.1615 12.7333C20.0566 12.7328 19.9546 12.7669 19.8722 12.8301C19.6297 13.0098 19.3976 13.2017 19.1759 13.4046C19.1316 13.4451 19.096 13.4937 19.071 13.5476C19.0461 13.6014 19.0323 13.6596 19.0304 13.7187C19.0286 13.7777 19.0387 13.8365 19.0603 13.8918C19.0818 13.9471 19.1144 13.9976 19.156 14.0407C19.1977 14.0837 19.2477 14.1184 19.3032 14.1426C19.3586 14.1669 19.4185 14.1803 19.4792 14.1821C19.54 14.1839 19.6006 14.174 19.6575 14.1531C19.7143 14.1321 19.7664 14.1005 19.8107 14.06C20.009 13.8784 20.2176 13.7061 20.4346 13.5452C20.5129 13.489 20.571 13.4103 20.6007 13.3203C20.6303 13.2302 20.63 13.1334 20.5998 13.0435C20.5695 12.9536 20.5109 12.8753 20.4322 12.8196C20.3536 12.7639 20.2588 12.7337 20.1615 12.7333ZM18.1542 14.8297C18.0793 14.8333 18.0064 14.8545 17.9418 14.8916C17.8773 14.9286 17.8229 14.9803 17.7835 15.0422C16.9205 16.3619 16.4199 17.931 16.4199 19.6075C16.4199 24.2981 20.3413 28.0717 25.1545 28.0717C27.027 28.0717 28.7671 27.5034 30.1909 26.5307C30.5887 26.2591 30.9621 25.9563 31.3067 25.6257C31.65 25.2963 31.9654 24.9386 32.2489 24.5574C32.2845 24.5095 32.3101 24.4553 32.3242 24.3978C32.3382 24.3403 32.3405 24.2806 32.3308 24.2223C32.3212 24.164 32.2998 24.1081 32.2679 24.0578C32.236 24.0075 32.1942 23.9638 32.1449 23.9292C32.0957 23.8946 32.0398 23.8697 31.9807 23.856C31.9215 23.8424 31.8602 23.8402 31.8001 23.8496C31.7401 23.8589 31.6826 23.8797 31.6308 23.9107C31.579 23.9417 31.534 23.9823 31.4984 24.0302C31.2451 24.3707 30.9628 24.6896 30.6557 24.9844C30.3474 25.2801 30.0146 25.5519 29.6593 25.7944C29.6587 25.7944 29.658 25.7944 29.6574 25.7944C28.3845 26.664 26.834 27.172 25.1545 27.172C20.8377 27.172 17.3458 23.8124 17.3458 19.6075C17.3458 18.1048 17.7927 16.7059 18.5646 15.5255C18.6115 15.456 18.6376 15.3753 18.6401 15.2923C18.6427 15.2093 18.6215 15.1273 18.579 15.0553C18.5365 14.9832 18.4743 14.924 18.3993 14.8842C18.3243 14.8444 18.2395 14.8255 18.1541 14.8297H18.1542Z" fill="#4B5563"/>
<path d="M25.3535 16.4355C24.7086 16.4355 24.1131 16.5976 23.65 16.8976C23.1869 17.1976 22.8398 17.6703 22.8398 18.226C22.8398 18.7514 23.1164 19.2311 23.5433 19.5527C23.9702 19.8743 24.5458 20.0553 25.1962 20.0553C25.6752 20.0553 26.0208 20.1805 26.2342 20.3452C26.4476 20.5098 26.5435 20.7024 26.5435 20.9461C26.5435 21.1436 26.4282 21.3412 26.1474 21.5225C25.8666 21.7038 25.4369 21.8336 24.9575 21.8336C24.5 21.8336 24.0528 21.7185 23.7531 21.5295C23.702 21.4973 23.645 21.4753 23.5851 21.4645C23.5253 21.4537 23.4638 21.4545 23.4043 21.4669C23.3448 21.4792 23.2883 21.5028 23.2382 21.5363C23.188 21.5698 23.1452 21.6126 23.112 21.6622C23.0789 21.7118 23.0562 21.7673 23.0451 21.8254C23.034 21.8836 23.0348 21.9433 23.0475 22.0011C23.0602 22.0589 23.0845 22.1138 23.119 22.1625C23.1535 22.2113 23.1975 22.2529 23.2485 22.2851C23.744 22.5975 24.3513 22.7332 24.9575 22.7332C25.602 22.7332 26.196 22.5702 26.6592 22.271C27.1224 21.9719 27.4694 21.5018 27.4694 20.9461C27.4694 20.4364 27.2224 19.9579 26.8111 19.6406C26.3998 19.3233 25.8411 19.1556 25.1962 19.1556C24.7226 19.1556 24.3496 19.0224 24.1112 18.8429C23.8727 18.6632 23.7657 18.4541 23.7657 18.226C23.7657 18.0285 23.8827 17.8282 24.1636 17.6462C24.4445 17.4642 24.8745 17.3352 25.3535 17.3352C25.8044 17.3352 26.2568 17.452 26.5561 17.6392C26.6072 17.6713 26.6642 17.6932 26.7241 17.7039C26.7839 17.7145 26.8452 17.7137 26.9047 17.7013C26.9641 17.6889 27.0205 17.6652 27.0705 17.6316C27.1206 17.5981 27.1633 17.5552 27.1963 17.5056C27.2293 17.456 27.252 17.4006 27.2629 17.3425C27.2739 17.2844 27.2729 17.2247 27.2602 17.1669C27.2474 17.1091 27.2231 17.0544 27.1885 17.0058C27.154 16.9572 27.1099 16.9156 27.0589 16.8836C26.5663 16.5754 25.9595 16.4355 25.3535 16.4355Z" fill="#4B5563"/>
<path d="M25.1491 14.6348C25.0883 14.6357 25.0283 14.6483 24.9725 14.6717C24.9167 14.6952 24.8662 14.7291 24.8239 14.7715C24.7816 14.8139 24.7483 14.8641 24.7259 14.919C24.7035 14.9739 24.6925 15.0326 24.6934 15.0916V16.8014C24.6925 16.861 24.7039 16.9202 24.7268 16.9755C24.7496 17.0308 24.7836 17.0811 24.8267 17.1236C24.8697 17.166 24.9211 17.1997 24.9777 17.2227C25.0343 17.2458 25.095 17.2576 25.1564 17.2576C25.2177 17.2576 25.2785 17.2458 25.3351 17.2227C25.3917 17.1997 25.443 17.166 25.4861 17.1236C25.5291 17.0811 25.5631 17.0308 25.586 16.9755C25.6089 16.9202 25.6202 16.861 25.6193 16.8014V15.0916C25.6203 15.0314 25.6088 14.9715 25.5855 14.9157C25.5622 14.8598 25.5276 14.8091 25.4838 14.7665C25.4399 14.7239 25.3877 14.6903 25.3302 14.6677C25.2727 14.645 25.2111 14.6339 25.1491 14.6348Z" fill="#4B5563"/>
<path d="M25.1491 21.8926C25.0267 21.8945 24.91 21.9435 24.8245 22.0288C24.7391 22.114 24.692 22.2287 24.6934 22.3477V24.1541C24.6925 24.2137 24.7039 24.2729 24.7267 24.3282C24.7496 24.3835 24.7836 24.4339 24.8267 24.4763C24.8697 24.5188 24.9211 24.5525 24.9777 24.5755C25.0343 24.5985 25.095 24.6103 25.1564 24.6103C25.2177 24.6103 25.2785 24.5985 25.3351 24.5755C25.3917 24.5525 25.443 24.5188 25.4861 24.4763C25.5291 24.4339 25.5631 24.3835 25.586 24.3282C25.6088 24.2729 25.6202 24.2137 25.6193 24.1541V22.3477C25.62 22.2876 25.6083 22.2279 25.5849 22.1723C25.5615 22.1167 25.5269 22.0662 25.4831 22.0238C25.4393 21.9813 25.3871 21.9479 25.3298 21.9254C25.2724 21.9028 25.211 21.8917 25.1491 21.8926Z" fill="#4B5563"/>
</svg>
