<svg width="17" height="19" viewBox="0 0 17 19" fill="none" xmlns="http://www.w3.org/2000/svg">
<path d="M12.1496 8.89062L12.1406 8.91353C12.1434 8.90663 12.1457 8.89953 12.1485 8.89262L12.1496 8.89062Z" fill="#313232"/>
<mask id="path-2-inside-1_336_1410" fill="white">
<path d="M8.25041 0C4.85182 0 2.0625 2.45101 2.0625 5.4406C2.0625 6.59919 2.48325 7.67887 3.19275 8.56328L3.16738 8.52836L7.12862 14.5646L7.14862 14.5877C7.30826 14.7714 7.46625 14.9194 7.65744 15.0308C7.84864 15.1423 8.09346 15.2127 8.33394 15.1914C8.81451 15.1488 9.09377 14.8561 9.35179 14.5477L9.36787 14.5286L13.735 7.9767L13.7385 7.97125C13.8431 7.80488 13.9188 7.63705 13.9835 7.4745C14.283 6.8289 14.4372 6.1381 14.4375 5.4406C14.4375 2.45101 11.649 0 8.25041 0ZM8.25041 0.90913C11.0872 0.90913 13.4062 2.94885 13.4062 5.4406C13.4064 6.0226 13.2775 6.59901 13.0268 7.1374L13.0216 7.14867L13.0171 7.16049C12.9628 7.29813 12.9038 7.42304 12.8358 7.53141L8.51297 14.0164C8.32178 14.2384 8.18813 14.291 8.23103 14.287C8.25309 14.2852 8.27351 14.3004 8.22628 14.2728C8.18111 14.2464 8.08892 14.1692 7.97961 14.0462L4.04869 8.05489L4.03487 8.03798C3.44231 7.29977 3.09375 6.40573 3.09375 5.4406C3.09375 2.94904 5.41365 0.90913 8.25041 0.90913ZM8.25041 2.33646C6.29887 2.33646 4.72044 3.72307 4.72044 5.4406C4.72044 7.15812 6.29908 8.54473 8.25041 8.54473C10.2017 8.54473 11.7796 7.15794 11.7796 5.4406C11.7796 3.72307 10.2017 2.33646 8.25041 2.33646ZM8.25041 3.24559C9.65642 3.24559 10.7483 4.20654 10.7483 5.4406C10.7483 6.67465 9.65662 7.6356 8.25041 7.6356C6.8442 7.6356 5.75169 6.67447 5.75169 5.4406C5.75169 4.20654 6.84441 3.24559 8.25041 3.24559Z"/>
</mask>
<path d="M3.19275 8.56328L1.63272 9.81479L4.81069 7.38757L3.19275 8.56328ZM3.16738 8.52836L4.78532 7.35266L1.49528 9.62567L3.16738 8.52836ZM7.12862 14.5646L5.45652 15.6619L5.52969 15.7734L5.61703 15.8742L7.12862 14.5646ZM7.14862 14.5877L5.63703 15.8973L5.6392 15.8998L7.14862 14.5877ZM8.33394 15.1914L8.51018 17.1836L8.51033 17.1836L8.33394 15.1914ZM9.35179 14.5477L7.82233 13.259L7.81789 13.2643L9.35179 14.5477ZM9.36787 14.5286L10.8973 15.8173L10.9697 15.7314L11.0321 15.6379L9.36787 14.5286ZM13.735 7.9767L15.3992 9.08596L15.4084 9.0721L15.4175 9.05809L13.735 7.9767ZM13.7385 7.97125L15.421 9.05263L15.4264 9.04411L15.4318 9.03554L13.7385 7.97125ZM13.9835 7.4745L12.1693 6.63285L12.146 6.68295L12.1256 6.73427L13.9835 7.4745ZM14.4375 5.4406L16.4375 5.44139V5.4406H14.4375ZM13.4062 5.4406H11.4062V5.44123L13.4062 5.4406ZM13.0268 7.1374L11.2137 6.29293L11.208 6.30547L13.0268 7.1374ZM13.0216 7.14867L11.2028 6.31674L11.1769 6.37348L11.1545 6.43173L13.0216 7.14867ZM13.0171 7.16049L14.8778 7.89378L14.881 7.88562L14.8841 7.87743L13.0171 7.16049ZM12.8358 7.53141L14.4999 8.64072L14.515 8.61813L14.5294 8.59514L12.8358 7.53141ZM8.51297 14.0164L10.0284 15.3215L10.1088 15.2282L10.1771 15.1257L8.51297 14.0164ZM8.23103 14.287L8.0668 12.2937L8.05607 12.2946L8.04534 12.2956L8.23103 14.287ZM8.22628 14.2728L9.23637 12.5466L9.23449 12.5455L8.22628 14.2728ZM7.97961 14.0462L6.30739 15.1434L6.38776 15.2659L6.48512 15.3753L7.97961 14.0462ZM4.04869 8.05489L5.7209 6.95775L5.66352 6.8703L5.59734 6.78932L4.04869 8.05489ZM4.03487 8.03798L2.47518 9.28993L2.48067 9.29676L2.48622 9.30355L4.03487 8.03798ZM8.25041 -2C3.99724 -2 0.0625 1.11203 0.0625 5.4406H4.0625C4.0625 3.79 5.7064 2 8.25041 2V-2ZM0.0625 5.4406C0.0625 7.09716 0.666498 8.61039 1.63272 9.81479L4.75278 7.31176C4.3 6.74736 4.0625 6.10122 4.0625 5.4406H0.0625ZM4.81069 7.38757L4.78532 7.35266L1.54944 9.70407L1.57481 9.73898L4.81069 7.38757ZM1.49528 9.62567L5.45652 15.6619L8.80072 13.4673L4.83948 7.43106L1.49528 9.62567ZM5.61703 15.8742L5.63704 15.8973L8.66021 13.2781L8.64021 13.255L5.61703 15.8742ZM5.6392 15.8998C5.87632 16.1726 6.19916 16.4957 6.65018 16.7587L8.66471 13.303C8.68013 13.312 8.69294 13.3206 8.70273 13.3278C8.71236 13.3348 8.71753 13.3394 8.71792 13.3397C8.71815 13.3399 8.71346 13.3358 8.70333 13.3254C8.69307 13.3148 8.67829 13.2989 8.65805 13.2756L5.6392 15.8998ZM6.65018 16.7587C7.13411 17.0408 7.78835 17.2474 8.51018 17.1836L8.15771 13.1992C8.28722 13.1877 8.39082 13.2027 8.46345 13.2209C8.53585 13.239 8.60179 13.2663 8.66471 13.303L6.65018 16.7587ZM8.51033 17.1836C9.8605 17.064 10.5994 16.1732 10.8857 15.8311L7.81789 13.2643C7.76438 13.3282 7.7377 13.3576 7.72233 13.3733C7.70888 13.387 7.72096 13.3727 7.75566 13.3476C7.79296 13.3207 7.8521 13.2845 7.93097 13.2536C8.01132 13.2222 8.08975 13.2052 8.15756 13.1992L8.51033 17.1836ZM10.8812 15.8364L10.8973 15.8173L7.83843 13.2399L7.82234 13.259L10.8812 15.8364ZM11.0321 15.6379L15.3992 9.08596L12.0708 6.86745L7.70368 13.4194L11.0321 15.6379ZM15.4175 9.05809L15.421 9.05263L12.0561 6.88987L12.0526 6.89532L15.4175 9.05809ZM15.4318 9.03554C15.6269 8.72511 15.7544 8.43334 15.8415 8.21474L12.1256 6.73427C12.0831 6.84077 12.0592 6.88465 12.0452 6.90696L15.4318 9.03554ZM15.7978 8.31615C16.217 7.4126 16.4371 6.43537 16.4375 5.44139L12.4375 5.4398C12.4373 5.84084 12.3491 6.2452 12.1693 6.63285L15.7978 8.31615ZM16.4375 5.4406C16.4375 1.11235 12.5039 -2 8.25041 -2V2C10.7941 2 12.4375 3.78968 12.4375 5.4406H16.4375ZM8.25041 2.90913C10.2325 2.90913 11.4062 4.28778 11.4062 5.4406H15.4062C15.4062 1.60993 11.9418 -1.09087 8.25041 -1.09087V2.90913ZM11.4062 5.44123C11.4063 5.72516 11.3439 6.01365 11.2138 6.29295L14.8397 7.98184C15.2112 7.18438 15.4065 6.32003 15.4062 5.43996L11.4062 5.44123ZM11.208 6.30547L11.2028 6.31674L14.8404 7.9806L14.8455 7.96933L11.208 6.30547ZM11.1545 6.43173L11.15 6.44355L14.8841 7.87743L14.8887 7.86561L11.1545 6.43173ZM11.1563 6.42719C11.1439 6.45876 11.1356 6.47686 11.1318 6.48475C11.1279 6.4927 11.1309 6.48548 11.1421 6.46768L14.5294 8.59514C14.6851 8.34727 14.7962 8.10069 14.8778 7.89378L11.1563 6.42719ZM11.1716 6.42211L6.8488 12.9071L10.1771 15.1257L14.4999 8.64072L11.1716 6.42211ZM6.9975 12.7113C7.00594 12.7015 7.02716 12.6804 7.05665 12.6575C7.0607 12.6543 7.0634 12.6524 7.05512 12.6586C7.05306 12.6601 7.04137 12.6688 7.02974 12.6776C7.01975 12.6852 6.99093 12.7071 6.95654 12.7355C6.9355 12.7529 6.84228 12.8293 6.74041 12.9421C6.69033 12.9975 6.58581 13.1185 6.48596 13.2937C6.40182 13.4412 6.1969 13.8388 6.22571 14.39C6.26157 15.0763 6.63285 15.6142 7.07609 15.9246C7.43101 16.1732 7.77132 16.2392 7.89983 16.2604C8.17069 16.3051 8.38981 16.2808 8.41671 16.2783L8.04534 12.2956C8.06687 12.2936 8.28201 12.2695 8.55021 12.3136C8.6774 12.3346 9.01671 12.4003 9.37094 12.6484C9.81351 12.9584 10.1844 13.4957 10.2203 14.1812C10.249 14.7317 10.0444 15.1284 9.96082 15.2749C9.86156 15.449 9.75794 15.5688 9.70905 15.623C9.60957 15.7331 9.51995 15.8062 9.50365 15.8197C9.46048 15.8554 9.41751 15.8866 9.44682 15.8648C9.45673 15.8574 9.48175 15.8387 9.51177 15.8154C9.64516 15.7117 9.8288 15.5534 10.0284 15.3215L6.9975 12.7113ZM8.39525 16.2802C8.16381 16.2993 7.9829 16.2721 7.90349 16.2583C7.85831 16.2504 7.82331 16.2426 7.81839 16.2415C7.80801 16.2392 7.82959 16.244 7.84854 16.2479C7.86002 16.2503 7.88618 16.2556 7.91959 16.2613C7.94522 16.2657 8.01953 16.278 8.11555 16.2847C8.11851 16.2849 8.49053 16.3264 8.91694 16.1768C9.15436 16.0935 9.7214 15.8405 10.0501 15.1712C10.3999 14.459 10.2243 13.8095 10.0951 13.5059C9.97087 13.2142 9.80678 13.024 9.74175 12.9517C9.66082 12.8618 9.58818 12.7976 9.54729 12.763C9.4659 12.6941 9.39685 12.6471 9.37202 12.6304C9.31627 12.5928 9.26996 12.5659 9.26389 12.5624C9.24979 12.5541 9.23819 12.5476 9.23588 12.5463C9.22424 12.5397 9.23279 12.5445 9.23637 12.5466L7.2162 15.999C7.24339 16.0149 7.26709 16.0282 7.26422 16.0266C7.2641 16.0265 7.25429 16.021 7.24162 16.0135C7.23698 16.0108 7.19172 15.9846 7.13669 15.9475C7.11223 15.931 7.04345 15.8842 6.96226 15.8155C6.92147 15.7809 6.84891 15.7169 6.76803 15.627C6.70306 15.5548 6.53901 15.3647 6.41481 15.073C6.28559 14.7695 6.11001 14.12 6.4598 13.4078C6.7885 12.7386 7.3555 12.4856 7.59287 12.4023C8.01917 12.2528 8.39102 12.2942 8.39373 12.2944C8.4895 12.3011 8.5635 12.3134 8.58875 12.3177C8.62179 12.3233 8.64751 12.3285 8.65849 12.3308C8.67644 12.3345 8.69678 12.3391 8.68496 12.3365C8.67716 12.3347 8.63844 12.3261 8.58898 12.3175C8.50101 12.3022 8.30928 12.2737 8.0668 12.2937L8.39525 16.2802ZM9.23449 12.5455C9.28232 12.5734 9.31953 12.5981 9.34412 12.6151C9.36976 12.6328 9.39019 12.6481 9.40492 12.6594C9.43381 12.6817 9.4529 12.6983 9.46213 12.7066C9.48057 12.7231 9.48307 12.7272 9.47409 12.7171L6.48512 15.3753C6.64282 15.5527 6.90108 15.8151 7.21807 16.0001L9.23449 12.5455ZM9.65182 12.9491L5.7209 6.95775L2.37648 9.15203L6.30739 15.1434L9.65182 12.9491ZM5.59734 6.78932L5.58352 6.77241L2.48622 9.30355L2.50003 9.32046L5.59734 6.78932ZM5.59456 6.78603C5.25868 6.36759 5.09375 5.90721 5.09375 5.4406H1.09375C1.09375 6.90425 1.62595 8.23194 2.47518 9.28993L5.59456 6.78603ZM5.09375 5.4406C5.09375 4.2883 6.26791 2.90913 8.25041 2.90913V-1.09087C4.55938 -1.09087 1.09375 1.60977 1.09375 5.4406H5.09375ZM8.25041 0.336464C5.44425 0.336464 2.72044 2.38412 2.72044 5.4406H6.72044C6.72044 5.06202 7.1535 4.33646 8.25041 4.33646V0.336464ZM2.72044 5.4406C2.72044 8.49714 5.44454 10.5447 8.25041 10.5447V6.54473C7.15363 6.54473 6.72044 5.81911 6.72044 5.4406H2.72044ZM8.25041 10.5447C11.057 10.5447 13.7796 8.49633 13.7796 5.4406H9.77956C9.77956 5.81956 9.34648 6.54473 8.25041 6.54473V10.5447ZM13.7796 5.4406C13.7796 2.38461 11.0569 0.336464 8.25041 0.336464V4.33646C9.34656 4.33646 9.77956 5.06152 9.77956 5.4406H13.7796ZM8.25041 5.24559C8.4994 5.24559 8.64577 5.32937 8.70608 5.38239C8.73593 5.40863 8.74524 5.42681 8.74682 5.43014C8.74735 5.43128 8.74831 5.43181 8.74831 5.4406H12.7483C12.7483 2.86772 10.5112 1.24559 8.25041 1.24559V5.24559ZM8.74831 5.4406C8.74831 5.44944 8.74734 5.45 8.7468 5.45114C8.74523 5.45447 8.73593 5.47263 8.70611 5.49884C8.64589 5.55179 8.49956 5.6356 8.25041 5.6356V9.6356C10.5115 9.6356 12.7483 8.01338 12.7483 5.4406H8.74831ZM8.25041 5.6356C8.0013 5.6356 7.85459 5.55176 7.794 5.49851C7.76403 5.47217 7.75468 5.45392 7.75311 5.45061C7.75258 5.44949 7.75169 5.44911 7.75169 5.4406H3.75169C3.75169 8.0139 5.99012 9.6356 8.25041 9.6356V5.6356ZM7.75169 5.4406C7.75169 5.43205 7.75259 5.43167 7.75311 5.43057C7.75467 5.42727 7.76401 5.40903 7.79399 5.38269C7.85461 5.32942 8.00136 5.24559 8.25041 5.24559V1.24559C5.99056 1.24559 3.75169 2.86691 3.75169 5.4406H7.75169Z" fill="#313232" mask="url(#path-2-inside-1_336_1410)"/>
<path d="M4.95124 12.5547C2.03775 12.9176 0 13.7858 0 15.0639C0 16.7854 3.40477 18.1809 8.25 18.1809C13.0952 18.1809 16.5 16.7854 16.5 15.0639C16.5 13.7858 14.4625 12.9176 11.5492 12.5547L11.1455 13.1605C13.3413 13.4291 14.85 13.9935 14.85 14.6484C14.85 15.5666 11.8951 16.3108 8.25 16.3108C4.60494 16.3108 1.65 15.5666 1.65 14.6484C1.64979 13.9957 3.14861 13.4318 5.35116 13.1622C5.21812 12.9596 5.08427 12.7574 4.95103 12.5547H4.95124Z" fill="#313232"/>
</svg>

