<svg width="65" height="16" viewBox="0 0 89 19" fill="none" xmlns="http://www.w3.org/2000/svg">
<path d="M12.1496 9.25781L12.1406 9.28072C12.1434 9.27381 12.1457 9.26672 12.1485 9.25981L12.1496 9.25781Z" fill="#313232"/>
<mask id="path-2-inside-1_1407_2196" fill="white">
<path d="M8.25041 0.365234C4.85182 0.365234 2.0625 2.81625 2.0625 5.80583C2.0625 6.96443 2.48325 8.04411 3.19275 8.92851L3.16738 8.8936L7.12862 14.9299L7.14862 14.9529C7.30826 15.1366 7.46625 15.2846 7.65744 15.3961C7.84864 15.5075 8.09346 15.5779 8.33394 15.5566C8.81451 15.5141 9.09377 15.2213 9.35179 14.9129L9.36787 14.8939L13.735 8.34194L13.7385 8.33648C13.8431 8.17011 13.9188 8.00229 13.9835 7.83974C14.283 7.19413 14.4372 6.50334 14.4375 5.80583C14.4375 2.81625 11.649 0.365234 8.25041 0.365234ZM8.25041 1.27436C11.0872 1.27436 13.4062 3.31409 13.4062 5.80583C13.4064 6.38783 13.2775 6.96425 13.0268 7.50263L13.0216 7.5139L13.0171 7.52572C12.9628 7.66336 12.9038 7.78828 12.8358 7.89665L8.51297 14.3817C8.32178 14.6037 8.18813 14.6562 8.23103 14.6522C8.25309 14.6504 8.27351 14.6657 8.22628 14.638C8.18111 14.6117 8.08892 14.5344 7.97961 14.4115L4.04869 8.42012L4.03487 8.40321C3.44231 7.665 3.09375 6.77096 3.09375 5.80583C3.09375 3.31427 5.41365 1.27436 8.25041 1.27436ZM8.25041 2.7017C6.29887 2.7017 4.72044 4.0883 4.72044 5.80583C4.72044 7.52336 6.29908 8.90996 8.25041 8.90996C10.2017 8.90996 11.7796 7.52318 11.7796 5.80583C11.7796 4.0883 10.2017 2.7017 8.25041 2.7017V2.7017ZM8.25041 3.61083C9.65642 3.61083 10.7483 4.57178 10.7483 5.80583C10.7483 7.03988 9.65662 8.00083 8.25041 8.00083C6.8442 8.00083 5.75169 7.0397 5.75169 5.80583C5.75169 4.57178 6.84441 3.61083 8.25041 3.61083V3.61083Z"/>
</mask>
<path d="M3.19275 8.92851L1.63272 10.18L4.81069 7.75281L3.19275 8.92851ZM3.16738 8.8936L4.78532 7.7179L1.49528 9.9909L3.16738 8.8936ZM7.12862 14.9299L5.45652 16.0272L5.52969 16.1387L5.61703 16.2395L7.12862 14.9299ZM7.14862 14.9529L5.63703 16.2626L5.6392 16.2651L7.14862 14.9529ZM8.33394 15.5566L8.51018 17.5488L8.51033 17.5488L8.33394 15.5566ZM9.35179 14.9129L7.82233 13.6242L7.81789 13.6295L9.35179 14.9129ZM9.36787 14.8939L10.8973 16.1826L10.9697 16.0966L11.0321 16.0031L9.36787 14.8939ZM13.735 8.34194L15.3992 9.4512L15.4084 9.43734L15.4175 9.42332L13.735 8.34194ZM13.7385 8.33648L15.421 9.41787L15.4264 9.40935L15.4318 9.40077L13.7385 8.33648ZM13.9835 7.83974L12.1693 6.99808L12.146 7.04819L12.1256 7.0995L13.9835 7.83974ZM14.4375 5.80583L16.4375 5.80662V5.80583H14.4375ZM13.4062 5.80583H11.4062V5.80646L13.4062 5.80583ZM13.0268 7.50263L11.2137 6.65817L11.208 6.6707L13.0268 7.50263ZM13.0216 7.5139L11.2028 6.68197L11.1769 6.73872L11.1545 6.79696L13.0216 7.5139ZM13.0171 7.52572L14.8778 8.25902L14.881 8.25085L14.8841 8.24266L13.0171 7.52572ZM12.8358 7.89665L14.4999 9.00595L14.515 8.98337L14.5294 8.96038L12.8358 7.89665ZM8.51297 14.3817L10.0284 15.6868L10.1088 15.5934L10.1771 15.491L8.51297 14.3817ZM8.23103 14.6522L8.0668 12.659L8.05607 12.6598L8.04534 12.6608L8.23103 14.6522ZM8.22628 14.638L9.23637 12.9118L9.23449 12.9107L8.22628 14.638ZM7.97961 14.4115L6.30739 15.5086L6.38776 15.6311L6.48512 15.7406L7.97961 14.4115ZM4.04869 8.42012L5.7209 7.32299L5.66352 7.23554L5.59734 7.15455L4.04869 8.42012ZM4.03487 8.40321L2.47518 9.65516L2.48067 9.662L2.48622 9.66879L4.03487 8.40321ZM8.25041 -1.63477C3.99724 -1.63477 0.0625 1.47726 0.0625 5.80583H4.0625C4.0625 4.15524 5.7064 2.36523 8.25041 2.36523V-1.63477ZM0.0625 5.80583C0.0625 7.46239 0.666498 8.97562 1.63272 10.18L4.75278 7.67699C4.3 7.11259 4.0625 6.46646 4.0625 5.80583H0.0625ZM4.81069 7.75281L4.78532 7.7179L1.54944 10.0693L1.57481 10.1042L4.81069 7.75281ZM1.49528 9.9909L5.45652 16.0272L8.80072 13.8326L4.83948 7.7963L1.49528 9.9909ZM5.61703 16.2395L5.63704 16.2626L8.66021 13.6433L8.64021 13.6202L5.61703 16.2395ZM5.6392 16.2651C5.87632 16.5378 6.19916 16.861 6.65018 17.1239L8.66471 13.6682C8.68013 13.6772 8.69294 13.6858 8.70273 13.693C8.71236 13.7001 8.71753 13.7046 8.71792 13.705C8.71815 13.7052 8.71346 13.701 8.70333 13.6906C8.69307 13.68 8.67829 13.6641 8.65805 13.6408L5.6392 16.2651ZM6.65018 17.1239C7.13411 17.406 7.78835 17.6127 8.51018 17.5488L8.15771 13.5644C8.28722 13.5529 8.39082 13.5679 8.46345 13.5861C8.53585 13.6043 8.60179 13.6315 8.66471 13.6682L6.65018 17.1239ZM8.51033 17.5488C9.8605 17.4293 10.5994 16.5385 10.8857 16.1964L7.81789 13.6295C7.76438 13.6935 7.7377 13.7228 7.72233 13.7385C7.70888 13.7523 7.72096 13.7379 7.75566 13.7129C7.79296 13.6859 7.8521 13.6497 7.93097 13.6188C8.01132 13.5874 8.08975 13.5704 8.15756 13.5644L8.51033 17.5488ZM10.8812 16.2017L10.8973 16.1826L7.83843 13.6051L7.82234 13.6242L10.8812 16.2017ZM11.0321 16.0031L15.3992 9.4512L12.0708 7.23268L7.70368 13.7846L11.0321 16.0031ZM15.4175 9.42332L15.421 9.41787L12.0561 7.2551L12.0526 7.26056L15.4175 9.42332ZM15.4318 9.40077C15.6269 9.09034 15.7544 8.79858 15.8415 8.57997L12.1256 7.0995C12.0831 7.206 12.0592 7.24988 12.0452 7.27219L15.4318 9.40077ZM15.7978 8.68139C16.217 7.77783 16.4371 6.8006 16.4375 5.80662L12.4375 5.80504C12.4373 6.20607 12.3491 6.61044 12.1693 6.99808L15.7978 8.68139ZM16.4375 5.80583C16.4375 1.47758 12.5039 -1.63477 8.25041 -1.63477V2.36523C10.7941 2.36523 12.4375 4.15492 12.4375 5.80583H16.4375ZM8.25041 3.27436C10.2325 3.27436 11.4062 4.65302 11.4062 5.80583H15.4062C15.4062 1.97516 11.9418 -0.725636 8.25041 -0.725636V3.27436ZM11.4062 5.80646C11.4063 6.0904 11.3439 6.37888 11.2138 6.65819L14.8397 8.34707C15.2112 7.54962 15.4065 6.68527 15.4062 5.8052L11.4062 5.80646ZM11.208 6.6707L11.2028 6.68197L14.8404 8.34583L14.8455 8.33456L11.208 6.6707ZM11.1545 6.79696L11.15 6.80878L14.8841 8.24266L14.8887 8.23084L11.1545 6.79696ZM11.1563 6.79243C11.1439 6.824 11.1356 6.8421 11.1318 6.84999C11.1279 6.85793 11.1309 6.85072 11.1421 6.83292L14.5294 8.96038C14.6851 8.71251 14.7962 8.46593 14.8778 8.25902L11.1563 6.79243ZM11.1716 6.78734L6.8488 13.2723L10.1771 15.491L14.4999 9.00595L11.1716 6.78734ZM6.9975 13.0765C7.00594 13.0667 7.02716 13.0457 7.05665 13.0227C7.0607 13.0196 7.0634 13.0176 7.05512 13.0238C7.05306 13.0253 7.04137 13.034 7.02974 13.0429C7.01975 13.0504 6.99093 13.0723 6.95654 13.1007C6.9355 13.1181 6.84228 13.1945 6.74041 13.3073C6.69033 13.3628 6.58581 13.4838 6.48596 13.6589C6.40182 13.8065 6.1969 14.204 6.22571 14.7552C6.26157 15.4415 6.63285 15.9794 7.07609 16.2899C7.43101 16.5385 7.77132 16.6045 7.89983 16.6257C8.17069 16.6703 8.38981 16.6461 8.41671 16.6436L8.04534 12.6608C8.06687 12.6588 8.28201 12.6347 8.55021 12.6789C8.6774 12.6998 9.01671 12.7655 9.37094 13.0136C9.81351 13.3236 10.1844 13.8609 10.2203 14.5465C10.249 15.0969 10.0444 15.4936 9.96082 15.6401C9.86156 15.8142 9.75794 15.9341 9.70905 15.9882C9.60957 16.0983 9.51995 16.1715 9.50365 16.1849C9.46048 16.2206 9.41751 16.2519 9.44682 16.23C9.45673 16.2226 9.48175 16.204 9.51177 16.1806C9.64516 16.0769 9.8288 15.9186 10.0284 15.6868L6.9975 13.0765ZM8.39525 16.6455C8.16381 16.6645 7.9829 16.6373 7.90349 16.6235C7.85831 16.6157 7.82331 16.6078 7.81839 16.6067C7.80801 16.6044 7.82959 16.6093 7.84854 16.6132C7.86002 16.6156 7.88618 16.6209 7.91959 16.6266C7.94522 16.6309 8.01953 16.6433 8.11555 16.65C8.11851 16.6502 8.49053 16.6916 8.91694 16.542C9.15436 16.4587 9.7214 16.2057 10.0501 15.5364C10.3999 14.8242 10.2243 14.1747 10.0951 13.8712C9.97087 13.5794 9.80678 13.3893 9.74175 13.317C9.66082 13.227 9.58818 13.1629 9.54729 13.1282C9.4659 13.0593 9.39685 13.0123 9.37202 12.9956C9.31627 12.958 9.26996 12.9312 9.26389 12.9276C9.24979 12.9194 9.23819 12.9128 9.23588 12.9115C9.22424 12.9049 9.23279 12.9097 9.23637 12.9118L7.2162 16.3642C7.24339 16.3801 7.26709 16.3934 7.26422 16.3918C7.2641 16.3917 7.25429 16.3862 7.24162 16.3788C7.23698 16.3761 7.19172 16.3498 7.13669 16.3127C7.11223 16.2963 7.04345 16.2495 6.96226 16.1807C6.92147 16.1462 6.84891 16.0821 6.76803 15.9922C6.70306 15.92 6.53901 15.7299 6.41481 15.4382C6.28559 15.1347 6.11001 14.4852 6.4598 13.773C6.7885 13.1038 7.3555 12.8508 7.59287 12.7675C8.01917 12.618 8.39102 12.6595 8.39373 12.6596C8.4895 12.6663 8.5635 12.6786 8.58875 12.6829C8.62179 12.6885 8.64751 12.6938 8.65849 12.696C8.67644 12.6998 8.69678 12.7043 8.68496 12.7017C8.67716 12.7 8.63844 12.6913 8.58898 12.6827C8.50101 12.6674 8.30928 12.639 8.0668 12.659L8.39525 16.6455ZM9.23449 12.9107C9.28232 12.9387 9.31953 12.9634 9.34412 12.9803C9.36976 12.9981 9.39019 13.0133 9.40492 13.0247C9.43381 13.0469 9.4529 13.0636 9.46213 13.0719C9.48057 13.0884 9.48307 13.0925 9.47409 13.0824L6.48512 15.7406C6.64282 15.9179 6.90108 16.1803 7.21807 16.3653L9.23449 12.9107ZM9.65182 13.3143L5.7209 7.32299L2.37648 9.51726L6.30739 15.5086L9.65182 13.3143ZM5.59734 7.15455L5.58352 7.13764L2.48622 9.66879L2.50003 9.6857L5.59734 7.15455ZM5.59456 7.15127C5.25868 6.73283 5.09375 6.27244 5.09375 5.80583H1.09375C1.09375 7.26948 1.62595 8.59718 2.47518 9.65516L5.59456 7.15127ZM5.09375 5.80583C5.09375 4.65353 6.26791 3.27436 8.25041 3.27436V-0.725636C4.55938 -0.725636 1.09375 1.97501 1.09375 5.80583H5.09375ZM8.25041 0.701698C5.44425 0.701698 2.72044 2.74935 2.72044 5.80583H6.72044C6.72044 5.42725 7.1535 4.7017 8.25041 4.7017V0.701698ZM2.72044 5.80583C2.72044 8.86238 5.44454 10.91 8.25041 10.91V6.90996C7.15363 6.90996 6.72044 6.18434 6.72044 5.80583H2.72044ZM8.25041 10.91C11.057 10.91 13.7796 8.86156 13.7796 5.80583H9.77956C9.77956 6.18479 9.34648 6.90996 8.25041 6.90996V10.91ZM13.7796 5.80583C13.7796 2.74985 11.0569 0.701698 8.25041 0.701698V4.7017C9.34656 4.7017 9.77956 5.42676 9.77956 5.80583H13.7796ZM8.25041 5.61083C8.4994 5.61083 8.64577 5.6946 8.70608 5.74762C8.73593 5.77386 8.74524 5.79204 8.74682 5.79537C8.74735 5.79652 8.74831 5.79705 8.74831 5.80583H12.7483C12.7483 3.23295 10.5112 1.61083 8.25041 1.61083V5.61083ZM8.74831 5.80583C8.74831 5.81467 8.74734 5.81523 8.7468 5.81638C8.74523 5.81971 8.73593 5.83786 8.70611 5.86408C8.64589 5.91703 8.49956 6.00083 8.25041 6.00083V10.0008C10.5115 10.0008 12.7483 8.37861 12.7483 5.80583H8.74831ZM8.25041 6.00083C8.0013 6.00083 7.85459 5.91699 7.794 5.86375C7.76403 5.8374 7.75468 5.81916 7.75311 5.81584C7.75258 5.81473 7.75169 5.81435 7.75169 5.80583H3.75169C3.75169 8.37913 5.99012 10.0008 8.25041 10.0008V6.00083ZM7.75169 5.80583C7.75169 5.79729 7.75259 5.79691 7.75311 5.79581C7.75467 5.79251 7.76401 5.77427 7.79399 5.74792C7.85461 5.69465 8.00136 5.61083 8.25041 5.61083V1.61083C5.99056 1.61083 3.75169 3.23215 3.75169 5.80583H7.75169Z" fill="#313232" mask="url(#path-2-inside-1_1407_2196)"/>
<path d="M4.95124 12.9219C2.03775 13.2848 0 14.153 0 15.4311C0 17.1526 3.40477 18.5481 8.25 18.5481C13.0952 18.5481 16.5 17.1526 16.5 15.4311C16.5 14.153 14.4625 13.2848 11.5492 12.9219L11.1455 13.5277C13.3413 13.7963 14.85 14.3607 14.85 15.0156C14.85 15.9338 11.8951 16.678 8.25 16.678C4.60494 16.678 1.65 15.9338 1.65 15.0156C1.64979 14.3628 3.14861 13.799 5.35116 13.5294C5.21812 13.3268 5.08427 13.1246 4.95103 12.9219H4.95124Z" fill="#313232"/>
<path d="M27.5973 9.22852C27.5973 8.54185 27.7506 7.92852 28.0573 7.38852C28.3706 6.84185 28.7939 6.41852 29.3273 6.11852C29.8673 5.81185 30.4706 5.65852 31.1373 5.65852C31.9173 5.65852 32.6006 5.85852 33.1873 6.25852C33.7739 6.65852 34.1839 7.21185 34.4173 7.91852H32.8073C32.6473 7.58518 32.4206 7.33518 32.1273 7.16852C31.8406 7.00185 31.5073 6.91852 31.1273 6.91852C30.7206 6.91852 30.3573 7.01518 30.0373 7.20852C29.7239 7.39518 29.4773 7.66185 29.2973 8.00852C29.1239 8.35518 29.0373 8.76185 29.0373 9.22852C29.0373 9.68852 29.1239 10.0952 29.2973 10.4485C29.4773 10.7952 29.7239 11.0652 30.0373 11.2585C30.3573 11.4452 30.7206 11.5385 31.1273 11.5385C31.5073 11.5385 31.8406 11.4552 32.1273 11.2885C32.4206 11.1152 32.6473 10.8618 32.8073 10.5285H34.4173C34.1839 11.2418 33.7739 11.7985 33.1873 12.1985C32.6073 12.5918 31.9239 12.7885 31.1373 12.7885C30.4706 12.7885 29.8673 12.6385 29.3273 12.3385C28.7939 12.0318 28.3706 11.6085 28.0573 11.0685C27.7506 10.5285 27.5973 9.91518 27.5973 9.22852ZM40.763 9.83852C40.763 10.0385 40.7497 10.2185 40.723 10.3785H36.673C36.7064 10.7785 36.8464 11.0918 37.093 11.3185C37.3397 11.5452 37.643 11.6585 38.003 11.6585C38.523 11.6585 38.893 11.4352 39.113 10.9885H40.623C40.463 11.5218 40.1564 11.9618 39.703 12.3085C39.2497 12.6485 38.693 12.8185 38.033 12.8185C37.4997 12.8185 37.0197 12.7018 36.593 12.4685C36.173 12.2285 35.843 11.8918 35.603 11.4585C35.3697 11.0252 35.253 10.5252 35.253 9.95852C35.253 9.38518 35.3697 8.88185 35.603 8.44852C35.8364 8.01518 36.163 7.68185 36.583 7.44852C37.003 7.21518 37.4864 7.09852 38.033 7.09852C38.5597 7.09852 39.0297 7.21185 39.443 7.43852C39.863 7.66518 40.1864 7.98852 40.413 8.40852C40.6464 8.82185 40.763 9.29852 40.763 9.83852ZM39.313 9.43852C39.3064 9.07852 39.1764 8.79185 38.923 8.57852C38.6697 8.35852 38.3597 8.24852 37.993 8.24852C37.6464 8.24852 37.353 8.35518 37.113 8.56852C36.8797 8.77518 36.7364 9.06518 36.683 9.43852H39.313ZM43.1849 8.04852C43.3649 7.75518 43.5983 7.52518 43.8849 7.35852C44.1783 7.19185 44.5116 7.10852 44.8849 7.10852V8.57852H44.5149C44.0749 8.57852 43.7416 8.68185 43.5149 8.88852C43.2949 9.09518 43.1849 9.45518 43.1849 9.96852V12.7285H41.7849V7.18852H43.1849V8.04852ZM45.4679 9.95852C45.4679 9.38518 45.5846 8.88518 45.8179 8.45852C46.0512 8.02518 46.3746 7.69185 46.7879 7.45852C47.2012 7.21852 47.6746 7.09852 48.2079 7.09852C48.8946 7.09852 49.4612 7.27185 49.9079 7.61852C50.3612 7.95852 50.6646 8.43852 50.8179 9.05852H49.3079C49.2279 8.81852 49.0912 8.63185 48.8979 8.49852C48.7112 8.35852 48.4779 8.28852 48.1979 8.28852C47.7979 8.28852 47.4812 8.43518 47.2479 8.72852C47.0146 9.01518 46.8979 9.42518 46.8979 9.95852C46.8979 10.4852 47.0146 10.8952 47.2479 11.1885C47.4812 11.4752 47.7979 11.6185 48.1979 11.6185C48.7646 11.6185 49.1346 11.3652 49.3079 10.8585H50.8179C50.6646 11.4585 50.3612 11.9352 49.9079 12.2885C49.4546 12.6418 48.8879 12.8185 48.2079 12.8185C47.6746 12.8185 47.2012 12.7018 46.7879 12.4685C46.3746 12.2285 46.0512 11.8952 45.8179 11.4685C45.5846 11.0352 45.4679 10.5318 45.4679 9.95852ZM51.4835 9.93852C51.4835 9.37852 51.5935 8.88185 51.8135 8.44852C52.0402 8.01518 52.3435 7.68185 52.7235 7.44852C53.1102 7.21518 53.5402 7.09852 54.0135 7.09852C54.4268 7.09852 54.7868 7.18185 55.0935 7.34852C55.4068 7.51518 55.6568 7.72518 55.8435 7.97852V7.18852H57.2535V12.7285H55.8435V11.9185C55.6635 12.1785 55.4135 12.3952 55.0935 12.5685C54.7802 12.7352 54.4168 12.8185 54.0035 12.8185C53.5368 12.8185 53.1102 12.6985 52.7235 12.4585C52.3435 12.2185 52.0402 11.8818 51.8135 11.4485C51.5935 11.0085 51.4835 10.5052 51.4835 9.93852ZM55.8435 9.95852C55.8435 9.61852 55.7768 9.32852 55.6435 9.08852C55.5102 8.84185 55.3302 8.65518 55.1035 8.52852C54.8768 8.39518 54.6335 8.32852 54.3735 8.32852C54.1135 8.32852 53.8735 8.39185 53.6535 8.51852C53.4335 8.64518 53.2535 8.83185 53.1135 9.07852C52.9802 9.31852 52.9135 9.60518 52.9135 9.93852C52.9135 10.2718 52.9802 10.5652 53.1135 10.8185C53.2535 11.0652 53.4335 11.2552 53.6535 11.3885C53.8802 11.5218 54.1202 11.5885 54.3735 11.5885C54.6335 11.5885 54.8768 11.5252 55.1035 11.3985C55.3302 11.2652 55.5102 11.0785 55.6435 10.8385C55.7768 10.5918 55.8435 10.2985 55.8435 9.95852ZM60.6437 9.93852C60.6437 9.37852 60.7537 8.88185 60.9737 8.44852C61.2003 8.01518 61.5037 7.68185 61.8837 7.44852C62.2703 7.21518 62.7003 7.09852 63.1737 7.09852C63.587 7.09852 63.947 7.18185 64.2537 7.34852C64.567 7.51518 64.817 7.72518 65.0037 7.97852V7.18852H66.4137V12.7285H65.0037V11.9185C64.8237 12.1785 64.5737 12.3952 64.2537 12.5685C63.9403 12.7352 63.577 12.8185 63.1637 12.8185C62.697 12.8185 62.2703 12.6985 61.8837 12.4585C61.5037 12.2185 61.2003 11.8818 60.9737 11.4485C60.7537 11.0085 60.6437 10.5052 60.6437 9.93852ZM65.0037 9.95852C65.0037 9.61852 64.937 9.32852 64.8037 9.08852C64.6703 8.84185 64.4903 8.65518 64.2637 8.52852C64.037 8.39518 63.7937 8.32852 63.5337 8.32852C63.2737 8.32852 63.0337 8.39185 62.8137 8.51852C62.5937 8.64518 62.4137 8.83185 62.2737 9.07852C62.1403 9.31852 62.0737 9.60518 62.0737 9.93852C62.0737 10.2718 62.1403 10.5652 62.2737 10.8185C62.4137 11.0652 62.5937 11.2552 62.8137 11.3885C63.0403 11.5218 63.2803 11.5885 63.5337 11.5885C63.7937 11.5885 64.037 11.5252 64.2637 11.3985C64.4903 11.2652 64.6703 11.0785 64.8037 10.8385C64.937 10.5918 65.0037 10.2985 65.0037 9.95852ZM77.0438 7.10852C77.7238 7.10852 78.2705 7.31852 78.6838 7.73852C79.1038 8.15185 79.3138 8.73185 79.3138 9.47852V12.7285H77.9138V9.66852C77.9138 9.23518 77.8038 8.90518 77.5838 8.67852C77.3638 8.44518 77.0638 8.32852 76.6838 8.32852C76.3038 8.32852 76.0005 8.44518 75.7738 8.67852C75.5538 8.90518 75.4438 9.23518 75.4438 9.66852V12.7285H74.0438V9.66852C74.0438 9.23518 73.9338 8.90518 73.7138 8.67852C73.4938 8.44518 73.1938 8.32852 72.8138 8.32852C72.4272 8.32852 72.1205 8.44518 71.8938 8.67852C71.6738 8.90518 71.5638 9.23518 71.5638 9.66852V12.7285H70.1638V7.18852H71.5638V7.85852C71.7438 7.62518 71.9738 7.44185 72.2538 7.30852C72.5405 7.17518 72.8538 7.10852 73.1938 7.10852C73.6272 7.10852 74.0138 7.20185 74.3538 7.38852C74.6938 7.56852 74.9572 7.82852 75.1438 8.16852C75.3238 7.84852 75.5838 7.59185 75.9238 7.39852C76.2705 7.20518 76.6438 7.10852 77.0438 7.10852ZM82.1023 7.18852V12.7285H80.7023V7.18852H82.1023ZM82.4923 5.74852L80.1923 6.79852V5.79852L82.4923 4.60852V5.74852Z" fill="#313232"/>
</svg>
