<svg  width="17" height="19" viewBox="0 0 20 20" fill="none" xmlns="http://www.w3.org/2000/svg">
<path d="M13.6078 6.81622C13.6331 6.56449 13.5192 6.37901 13.3167 6.28627C12.9876 6.11404 12.7218 6.28627 12.494 6.538C10.5701 8.56504 8.63357 10.5788 6.70969 12.6059C6.43124 12.8974 6.21607 13.2286 6.54515 13.5995C6.91221 14.0102 7.24129 13.7718 7.54506 13.4538C9.45627 11.4532 11.3675 9.4527 13.2787 7.45215C13.4306 7.25342 13.6078 7.08119 13.6078 6.81622Z" fill="#87BE56"/>
<path d="M7.60782 9.38575C8.56975 9.45199 9.36715 8.69682 9.41778 7.68992C9.46841 6.69627 8.72164 5.84836 7.78502 5.79536C6.88637 5.74237 6.02569 6.57703 5.98772 7.55743C5.94974 8.48484 6.69651 9.31951 7.60782 9.38575ZM7.68376 7.01424C8.05081 7.00099 8.27864 7.18647 8.2913 7.58393C8.30396 7.96814 8.08879 8.16687 7.74705 8.20662C7.36733 8.18012 7.16482 7.96814 7.16482 7.58393C7.16482 7.23947 7.34202 7.02749 7.68376 7.01424Z" fill="#87BE56"/>
<path d="M19.6453 9.28045C19.177 8.8035 18.7593 8.2868 18.2784 7.8231C17.9493 7.49188 17.8101 7.18716 17.9113 6.68371C18.0632 5.96828 18.1138 5.22636 18.2151 4.41819C18.2531 3.90149 18.0885 3.64977 17.519 3.51728C17.1392 3.42454 16.7469 3.3053 16.3672 3.3053C15.2027 3.31855 14.4939 2.74886 14.1142 1.60947C13.9876 1.22526 13.7598 0.880795 13.5826 0.523081C13.3168 0.00638294 12.9371 -0.139352 12.4055 0.13887C11.7853 0.470086 11.1398 0.774806 10.5196 1.11927C10.1652 1.318 9.86143 1.33125 9.50704 1.13252C8.88684 0.774806 8.24133 0.483335 7.62113 0.152118C7.06422 -0.152601 6.67186 0.0196316 6.40606 0.576075C6.3048 0.774805 6.17823 0.947038 6.11495 1.15902C5.65929 2.58987 4.7733 3.26555 3.29242 3.41129C1.63435 3.57027 1.647 3.70276 1.90015 5.43834C1.90015 5.46483 1.90015 5.49133 1.9128 5.51783C2.31783 6.74995 2.0014 7.67736 1.05212 8.57827C-0.35281 9.90314 -0.35281 10.0489 1.06478 11.4002C1.95077 12.2482 2.22923 13.0828 1.97609 14.3149C1.57106 16.3155 1.60903 16.4347 3.53291 16.6467C4.81127 16.7792 5.48209 17.3621 6.00103 18.5545C6.7478 20.2901 6.87437 20.3298 8.46916 19.3759C9.55766 18.7267 10.4437 18.7003 11.5448 19.3627C13.1649 20.3298 13.2788 20.2901 14.0636 18.5015C14.5699 17.3356 15.2407 16.7924 16.4811 16.66C18.4049 16.448 18.4429 16.342 18.0379 14.2752C17.8227 13.1623 17.924 12.2746 18.8479 11.5725C19.1644 11.334 19.3922 10.9895 19.6707 10.6981C20.1263 10.2079 20.101 9.7574 19.6453 9.28045ZM17.8734 10.4596C16.4684 11.4797 16.114 12.8443 16.633 14.5004C16.7722 14.9509 16.6456 15.2026 16.2026 15.1894C14.4559 15.1629 13.3295 16.024 12.8105 17.7728C12.6966 18.1703 12.4688 18.3028 12.1144 18.0246C12.0764 17.9981 12.0131 17.9848 11.9752 17.9583C10.6462 16.9249 9.32984 16.9249 8.00085 17.9716C7.59582 18.2895 7.29205 18.21 7.15282 17.6801C7.14017 17.6536 7.11485 17.6404 7.11485 17.6139C6.62123 15.9843 5.55803 15.2026 3.93793 15.2291C3.38102 15.2423 3.21648 14.9641 3.39368 14.4077C3.8873 12.8046 3.50759 11.493 2.16594 10.5126C1.72295 10.1814 1.69763 9.85014 2.15329 9.51893C3.50759 8.51203 3.89996 7.17391 3.38102 5.54433C3.19117 4.96138 3.45696 4.7759 3.92527 4.78915C5.59601 4.81565 6.64654 3.96773 7.15282 2.33815C7.30471 1.8347 7.57051 1.68896 8.00085 2.02018C8.02616 2.03343 8.05147 2.04668 8.06413 2.05993C9.36781 3.09332 10.6715 3.05358 11.9625 2.04668C12.3928 1.71546 12.6966 1.7817 12.8738 2.3514C13.3801 3.99423 14.4559 4.8024 16.114 4.78915C16.3798 4.78915 16.8102 4.76265 16.6709 5.3191C16.6583 5.37209 16.6456 5.42509 16.633 5.47808C16.1393 7.13417 16.4558 8.51203 17.8734 9.53217C18.2784 9.8104 18.3037 10.1416 17.8734 10.4596Z" fill="#313232"/>
<path d="M12.367 10.5924C11.4051 10.5394 10.6077 11.3079 10.5697 12.3015C10.5318 13.2819 11.2912 14.1431 12.2278 14.1828C13.1264 14.2226 13.9871 13.3746 14.0124 12.4075C14.0378 11.4801 13.291 10.6454 12.367 10.5924ZM12.3164 12.9639C11.962 12.9772 11.7342 12.7917 11.7089 12.3942C11.6962 11.9968 11.9367 11.8378 12.2025 11.7716C12.6328 11.8113 12.8353 12.01 12.8353 12.3942C12.8353 12.7387 12.6455 12.9507 12.3164 12.9639Z" fill="#87BE56"/>
</svg>
