<svg width="35" height="35" viewBox="0 0 35 35" fill="" stroke="" xmlns="http://www.w3.org/2000/svg">
<path stroke="" d="M13.125 7.875V13.125H7.875V7.875H13.125ZM15.75 5.25H5.25V15.75H15.75V5.25ZM13.125 21.875V27.125H7.875V21.875H13.125ZM15.75 19.25H5.25V29.75H15.75V19.25ZM27.125 7.875V13.125H21.875V7.875H27.125ZM29.75 5.25H19.25V15.75H29.75V5.25ZM19.25 19.25H21.875V21.875H19.25V19.25ZM21.875 21.875H24.5V24.5H21.875V21.875ZM24.5 19.25H27.125V21.875H24.5V19.25ZM19.25 24.5H21.875V27.125H19.25V24.5ZM21.875 27.125H24.5V29.75H21.875V27.125ZM24.5 24.5H27.125V27.125H24.5V24.5ZM27.125 21.875H29.75V24.5H27.125V21.875ZM27.125 27.125H29.75V29.75H27.125V27.125ZM35 8.75H31.5V3.5H26.25V0H35V8.75ZM35 35V26.25H31.5V31.5H26.25V35H35ZM0 35H8.75V31.5H3.5V26.25H0V35ZM0 0V8.75H3.5V3.5H8.75V0H0Z" fill=""/>
</svg>
