<svg width="18" height="18" viewBox="0 0 16 16" fill="none" xmlns="http://www.w3.org/2000/svg">
<path d="M6.50802 1.02512C7.59242 1.02413 8.65276 1.34443 9.55488 1.94551C10.457 2.54658 11.1604 3.40141 11.5761 4.40187C11.9917 5.40233 12.101 6.50345 11.8901 7.56596C11.6791 8.62846 11.1574 9.6046 10.391 10.3709C9.62455 11.1372 8.6478 11.6592 7.58431 11.8709C6.52081 12.0825 5.41836 11.9744 4.41641 11.5601C3.41446 11.1458 2.55803 10.444 1.95546 9.54341C1.3529 8.64283 1.03127 7.58397 1.03127 6.50078C1.03785 5.05143 1.61681 3.66324 2.64234 2.63792C3.66786 1.6126 5.05707 1.03301 6.50802 1.02512ZM6.50802 0C5.22086 0 3.9626 0.381264 2.89236 1.09558C1.82212 1.80989 0.987973 2.82518 0.495396 4.01304C0.00281991 5.2009 -0.126061 6.50799 0.125053 7.76902C0.376166 9.03004 0.995995 10.1884 1.90616 11.0975C2.81632 12.0067 3.97594 12.6258 5.23837 12.8766C6.5008 13.1275 7.80935 12.9987 8.99853 12.5067C10.1877 12.0147 11.2041 11.1815 11.9192 10.1124C12.6344 9.04337 13.016 7.78651 13.016 6.50078C13.016 4.77666 12.3304 3.12317 11.1099 1.90403C9.8894 0.684901 8.23406 0 6.50802 0Z" fill="#4B5563"/>
<path d="M15.8535 15.1479L12.164 11.4375L11.4531 12.1426L15.1427 15.853C15.189 15.8997 15.2441 15.9367 15.3048 15.9621C15.3655 15.9874 15.4306 16.0006 15.4963 16.0008C15.5621 16.0011 15.6273 15.9883 15.6882 15.9634C15.749 15.9385 15.8044 15.9018 15.851 15.8555C15.8977 15.8092 15.9348 15.7542 15.9602 15.6936C15.9856 15.633 15.9988 15.568 15.999 15.5023C15.9992 15.4365 15.9865 15.3714 15.9616 15.3106C15.9366 15.2499 15.8999 15.1946 15.8535 15.1479Z" fill="#4B5563"/>
</svg>
