<svg viewBox="0 0 100 100" fill="none" xmlns="http://www.w3.org/2000/svg">
<path d="M71.8668 57.8336C70.9744 56.9553 69.7849 56.4438 68.5335 56.4003C68.4565 55.44 68.128 54.5169 67.5808 53.724C67.0337 52.9311 66.2873 52.2963 65.4168 51.8836L67.7835 49.517L91.1168 26.1838C91.273 26.0289 91.397 25.8445 91.4817 25.6414C91.5663 25.4383 91.6098 25.2205 91.6098 25.0005C91.6098 24.7804 91.5663 24.5626 91.4817 24.3595C91.397 24.1564 91.273 23.9721 91.1168 23.8171L67.7835 0.483951C67.5431 0.245267 67.2357 0.0855064 66.9022 0.0259551C66.5687 -0.0335961 66.225 0.00988999 65.9168 0.15062C60.9168 4.63393 43.8668 22.2005 38.7502 27.1505C35.4168 30.4838 28.7502 37.1504 25.4168 40.4837C25.2606 40.6386 25.1366 40.823 25.052 41.0261C24.9674 41.2292 24.9238 41.447 24.9238 41.667C24.9238 41.887 24.9674 42.1049 25.052 42.308C25.1366 42.5111 25.2606 42.6954 25.4168 42.8504L34.3168 51.667L28.8168 57.1503C28.6624 57.306 28.5401 57.4907 28.4572 57.6938C28.3743 57.8968 28.3322 58.1142 28.3335 58.3336V76.6668C28.3322 76.8862 28.3743 77.1036 28.4572 77.3067C28.5401 77.5097 28.6624 77.6944 28.8168 77.8501L36.6668 85.6834V98.3333C36.6668 98.7754 36.8424 99.1993 37.155 99.5118C37.4675 99.8244 37.8915 100 38.3335 100H58.3335C58.7755 100 59.1994 99.8244 59.512 99.5118C59.8246 99.1993 60.0002 98.7754 60.0002 98.3333V84.0168L66.1835 77.8501C66.338 77.6944 66.4602 77.5097 66.5431 77.3067C66.6261 77.1036 66.6681 76.8862 66.6668 76.6668V70.6835L72.1668 65.2002C72.6585 64.7114 73.0432 64.1256 73.2964 63.4802C73.5496 62.8347 73.6657 62.1437 73.6375 61.4509C73.6093 60.7581 73.4373 60.0788 73.1325 59.4561C72.8277 58.8333 72.3967 58.2808 71.8668 57.8336ZM68.3335 5.68392L87.6502 25.0005L82.6502 30.0004L81.8335 28.3338L83.1168 25.7505C83.2435 25.4993 83.3045 25.2201 83.2942 24.9389C83.2839 24.6578 83.2026 24.3838 83.0578 24.1425C82.9131 23.9013 82.7096 23.7006 82.4664 23.5592C82.2232 23.4178 81.9481 23.3403 81.6668 23.3338H76.6668V21.6672C76.6671 21.3949 76.6006 21.1267 76.4733 20.886C76.3459 20.6453 76.1615 20.4395 75.9362 20.2866C75.711 20.1337 75.4516 20.0383 75.1809 20.0087C74.9103 19.9792 74.6365 20.0164 74.3835 20.1172L68.3335 22.5338V5.68392ZM78.5168 29.0171L78.9668 29.9338H76.6668V26.6671H78.9668C78.6002 27.3671 78.0502 28.3338 78.5168 29.0838V29.0171ZM68.3335 26.1338L73.3335 24.1338V30.8004L68.3335 28.8004V26.1338ZM68.3335 32.4671L74.3835 34.8837C74.6365 34.9845 74.9103 35.0217 75.1809 34.9922C75.4516 34.9626 75.711 34.8672 75.9362 34.7143C76.1615 34.5614 76.3459 34.3556 76.4733 34.1149C76.6006 33.8742 76.6671 33.606 76.6668 33.3337H79.3168L68.3335 44.317V32.4671ZM31.6668 44.317L29.0168 41.667L31.6668 39.017V44.317ZM61.6668 9.01723L65.0002 5.68392V21.6672H61.6668V9.01723ZM61.6668 25.0005H65.0002V30.0004H61.6668V25.0005ZM61.6668 33.3337H65.0002V47.6503L61.6668 50.9836V33.3337ZM61.1835 56.1836C61.7335 55.6669 62.4835 54.617 63.3335 54.717C64.7835 54.717 65.9835 56.7169 64.8002 57.8336L61.1668 61.4669C59.6168 63.1336 56.9335 60.3836 58.5335 58.8336L61.1835 56.1836ZM58.3335 28.8671L53.3335 30.8671V24.2005L58.3335 26.2005V28.8671ZM58.3335 12.3505V22.5338L52.2835 20.1172C52.0305 20.0164 51.7567 19.9792 51.486 20.0087C51.2154 20.0383 50.956 20.1337 50.7307 20.2866C50.5055 20.4395 50.3211 20.6453 50.1937 20.886C50.0664 21.1267 49.9999 21.3949 50.0002 21.6672V23.3338H47.3502L58.3335 12.3505ZM48.1502 27.5838L47.7002 26.6671H50.0002V30.0004H47.7002C48.0668 29.3004 48.6168 28.3338 48.1502 27.5838ZM41.6668 37.3504L42.8502 36.1837L41.6668 35.0004V29.0171L43.9835 26.6671L44.8002 28.3338L43.6335 30.6838L42.1502 32.1504L44.5168 34.5171L45.6835 33.3337H50.0002C49.9999 33.606 50.0664 33.8742 50.1937 34.1149C50.3211 34.3556 50.5055 34.5614 50.7307 34.7143C50.956 34.8672 51.2154 34.9626 51.486 34.9922C51.7567 35.0217 52.0305 34.9845 52.2835 34.8837L58.3335 32.4671V54.317L50.0002 62.6502L45.6835 58.3336L48.0668 55.9669L49.7335 54.3003C50.5095 53.5262 51.1253 52.6066 51.5454 51.5942C51.9655 50.5818 52.1817 49.4964 52.1817 48.4003C52.1817 47.3042 51.9655 46.2189 51.5454 45.2064C51.1253 44.194 50.5095 43.2744 49.7335 42.5004L47.7835 40.5504C47.6286 40.3942 47.4442 40.2702 47.2411 40.1856C47.038 40.1009 46.8202 40.0574 46.6002 40.0574C46.3801 40.0574 46.1623 40.1009 45.9592 40.1856C45.7561 40.2702 45.5718 40.3942 45.4168 40.5504L41.6668 44.317V37.3504ZM35.0002 35.6837L38.3335 32.3504V35.9837L35.0002 39.317V35.6837ZM35.0002 41.667L36.1835 42.8504L38.3335 40.6837V47.6503L36.6668 49.317L35.0002 47.6503V41.667ZM63.3335 75.9835L57.1502 82.1501C56.9957 82.3058 56.8735 82.4905 56.7905 82.6936C56.7076 82.8967 56.6656 83.1141 56.6668 83.3334V96.6667H40.0002V85.0001C40.0014 84.7807 39.9594 84.5633 39.8764 84.3603C39.7935 84.1572 39.6713 83.9725 39.5168 83.8168L31.6668 75.9835V59.0169L46.6668 44.017C47.2773 44.4494 47.7876 45.0081 48.1632 45.6551C48.5387 46.3021 48.7708 47.0223 48.8435 47.7668C48.9162 48.5114 48.8279 49.2629 48.5846 49.9703C48.3414 50.6778 47.9488 51.3246 47.4335 51.867L45.7668 53.5336L42.2168 57.0836C42.0606 57.2385 41.9366 57.4229 41.852 57.626C41.7674 57.8291 41.7238 58.0469 41.7238 58.2669C41.7238 58.4869 41.7674 58.7048 41.852 58.9079C41.9366 59.111 42.0606 59.2953 42.2168 59.4502L48.3335 65.6835V71.6668H51.6668V65.6835L55.2002 62.1502C55.6227 63.0148 56.2597 63.7567 57.0504 64.3052C57.841 64.8537 58.759 65.1905 59.7168 65.2835C59.8163 66.3299 60.2082 67.3272 60.8478 68.1613C61.4873 68.9954 62.3488 69.6326 63.3335 70.0002V75.9835ZM69.8002 62.8336L66.1668 66.4669C64.6168 68.0335 61.9335 65.3835 63.5335 63.8336L67.1668 60.2002C67.4773 59.8923 67.8963 59.7188 68.3335 59.7169C69.7835 59.7169 70.9835 61.6669 69.8002 62.8336Z" fill="#FFAD3F"/>
<path d="M6.66699 14.9993H10.0003C10.0003 13.6732 10.5271 12.4014 11.4648 11.4638C12.4025 10.5261 13.6742 9.9993 15.0003 9.9993V6.66598C13.6742 6.66598 12.4025 6.1392 11.4648 5.20153C10.5271 4.26385 10.0003 2.99209 10.0003 1.66602H6.66699C6.66699 2.99209 6.14021 4.26385 5.20253 5.20153C4.26484 6.1392 2.99307 6.66598 1.66699 6.66598V9.9993C2.99307 9.9993 4.26484 10.5261 5.20253 11.4638C6.14021 12.4014 6.66699 13.6732 6.66699 14.9993ZM8.33366 6.66598C8.81166 7.29403 9.37228 7.85465 10.0003 8.33264C9.37228 8.81064 8.81166 9.37125 8.33366 9.9993C7.85566 9.37125 7.29504 8.81064 6.66699 8.33264C7.29504 7.85465 7.85566 7.29403 8.33366 6.66598V6.66598Z" fill="#FFAD3F"/>
<path d="M18.3333 58.332H15C15 59.6581 14.4732 60.9299 13.5355 61.8675C12.5979 62.8052 11.3261 63.332 10 63.332V66.6653C11.3261 66.6653 12.5979 67.1921 13.5355 68.1298C14.4732 69.0674 15 70.3392 15 71.6653H18.3333C18.3333 70.3392 18.8601 69.0674 19.7978 68.1298C20.7355 67.1921 22.0073 66.6653 23.3333 66.6653V63.332C22.0073 63.332 20.7355 62.8052 19.7978 61.8675C18.8601 60.9299 18.3333 59.6581 18.3333 58.332ZM16.6667 66.6653C16.1887 66.0373 15.628 65.4767 15 64.9987C15.628 64.5207 16.1887 63.96 16.6667 63.332C17.1447 63.96 17.7053 64.5207 18.3333 64.9987C17.7053 65.4767 17.1447 66.0373 16.6667 66.6653V66.6653Z" fill="#FFAD3F"/>
<path d="M91.6663 54.9993V51.666C90.3403 51.666 89.0685 51.1392 88.1308 50.2015C87.1931 49.2638 86.6663 47.9921 86.6663 46.666H83.333C83.333 47.9921 82.8062 49.2638 81.8685 50.2015C80.9309 51.1392 79.6591 51.666 78.333 51.666V54.9993C79.6591 54.9993 80.9309 55.5261 81.8685 56.4638C82.8062 57.4014 83.333 58.6732 83.333 59.9993H86.6663C86.6663 58.6732 87.1931 57.4014 88.1308 56.4638C89.0685 55.5261 90.3403 54.9993 91.6663 54.9993ZM84.9997 54.9993C84.5217 54.3713 83.9611 53.8106 83.333 53.3326C83.9611 52.8546 84.5217 52.294 84.9997 51.666C85.4777 52.294 86.0383 52.8546 86.6663 53.3326C86.0383 53.8106 85.4777 54.3713 84.9997 54.9993V54.9993Z" fill="#FFAD3F"/>
<path d="M33.333 26.6672H36.6663C36.6663 25.3412 37.1931 24.0694 38.1308 23.1317C39.0685 22.194 40.3403 21.6673 41.6663 21.6673V18.334C40.3403 18.334 39.0685 17.8072 38.1308 16.8695C37.1931 15.9318 36.6663 14.6601 36.6663 13.334H33.333C33.333 14.6601 32.8062 15.9318 31.8685 16.8695C30.9309 17.8072 29.6591 18.334 28.333 18.334V21.6673C29.6591 21.6673 30.9309 22.194 31.8685 23.1317C32.8062 24.0694 33.333 25.3412 33.333 26.6672ZM34.9997 18.334C35.4777 18.962 36.0383 19.5226 36.6663 20.0006C36.0383 20.4786 35.4777 21.0392 34.9997 21.6673C34.5217 21.0392 33.9611 20.4786 33.333 20.0006C33.9611 19.5226 34.5217 18.962 34.9997 18.334V18.334Z" fill="#FFAD3F"/>
<path d="M95.0003 1.66602H91.667C91.667 2.99209 91.1402 4.26385 90.2025 5.20153C89.2648 6.1392 87.9931 6.66598 86.667 6.66598V9.9993C87.9931 9.9993 89.2648 10.5261 90.2025 11.4638C91.1402 12.4014 91.667 13.6732 91.667 14.9993H95.0003C95.0003 13.6732 95.5271 12.4014 96.4648 11.4638C97.4025 10.5261 98.6742 9.9993 100 9.9993V6.66598C98.6742 6.66598 97.4025 6.1392 96.4648 5.20153C95.5271 4.26385 95.0003 2.99209 95.0003 1.66602V1.66602ZM93.3337 9.9993C92.8557 9.37125 92.295 8.81064 91.667 8.33264C92.295 7.85465 92.8557 7.29403 93.3337 6.66598C93.8117 7.29403 94.3723 7.85465 95.0003 8.33264C94.3723 8.81064 93.8117 9.37125 93.3337 9.9993V9.9993Z" fill="#FFAD3F"/>
<path d="M8.33333 85H5C5 86.3261 4.47322 87.5978 3.53553 88.5355C2.59785 89.4732 1.32608 90 0 90V93.3333C1.32608 93.3333 2.59785 93.8601 3.53553 94.7977C4.47322 95.7354 5 97.0072 5 98.3333H8.33333C8.33333 97.0072 8.86012 95.7354 9.7978 94.7977C10.7355 93.8601 12.0073 93.3333 13.3333 93.3333V90C12.0073 90 10.7355 89.4732 9.7978 88.5355C8.86012 87.5978 8.33333 86.3261 8.33333 85V85ZM6.66667 93.3333C6.18867 92.7052 5.62805 92.1446 5 91.6666C5.62805 91.1886 6.18867 90.628 6.66667 90C7.14466 90.628 7.70529 91.1886 8.33333 91.6666C7.70529 92.1446 7.14466 92.7052 6.66667 93.3333V93.3333Z" fill="#FFAD3F"/>
<path d="M93.3333 85H90C90 86.3261 89.4732 87.5978 88.5355 88.5355C87.5978 89.4732 86.3261 90 85 90V93.3333C86.3261 93.3333 87.5978 93.8601 88.5355 94.7977C89.4732 95.7354 90 97.0072 90 98.3333H93.3333C93.3333 97.0072 93.8601 95.7354 94.7978 94.7977C95.7355 93.8601 97.0073 93.3333 98.3333 93.3333V90C97.0073 90 95.7355 89.4732 94.7978 88.5355C93.8601 87.5978 93.3333 86.3261 93.3333 85V85ZM91.6667 93.3333C91.1887 92.7052 90.628 92.1446 90 91.6666C90.628 91.1886 91.1887 90.628 91.6667 90C92.1447 90.628 92.7053 91.1886 93.3333 91.6666C92.7053 92.1446 92.1447 92.7052 91.6667 93.3333V93.3333Z" fill="#FFAD3F"/>
</svg>
