<svg viewBox="0 0 30 30" fill="none" xmlns="http://www.w3.org/2000/svg">
<path d="M29.8939 23.6571L27.0951 9.72857C26.9039 8.54281 26.2294 7.45335 25.1911 6.65322C24.1528 5.85309 22.8177 5.39395 21.4224 5.35714H21.2474C21.2474 3.93634 20.5892 2.57373 19.4176 1.56907C18.246 0.564412 16.6569 0 15 0C13.3431 0 11.754 0.564412 10.5824 1.56907C9.41077 2.57373 8.75256 3.93634 8.75256 5.35714H8.57763C7.18231 5.39395 5.84723 5.85309 4.80892 6.65322C3.77062 7.45335 3.09613 8.54281 2.90495 9.72857L0.106094 23.6571C-0.065813 24.4652 -0.0284481 25.2958 0.215544 26.0901C0.459536 26.8844 0.904189 27.623 1.51802 28.2536C2.03521 28.795 2.68506 29.2321 3.42143 29.5339C4.15779 29.8358 4.96262 29.9949 5.77877 30H24.2212C25.0374 29.9949 25.8422 29.8358 26.5786 29.5339C27.3149 29.2321 27.9648 28.795 28.482 28.2536C29.0958 27.623 29.5405 26.8844 29.7845 26.0901C30.0284 25.2958 30.0658 24.4652 29.8939 23.6571ZM15 2.14286C15.9942 2.14286 16.9476 2.4815 17.6506 3.0843C18.3535 3.6871 18.7485 4.50466 18.7485 5.35714H11.2515C11.2515 4.50466 11.6465 3.6871 12.3494 3.0843C13.0524 2.4815 14.0058 2.14286 15 2.14286ZM26.5703 26.8714C26.2879 27.1743 25.9308 27.4198 25.5247 27.5902C25.1185 27.7606 24.6734 27.8518 24.2212 27.8571H5.77877C5.32663 27.8518 4.88148 27.7606 4.47532 27.5902C4.06916 27.4198 3.71208 27.1743 3.42973 26.8714C3.04896 26.4807 2.77411 26.0224 2.62502 25.5295C2.47592 25.0367 2.45631 24.5216 2.56759 24.0214L5.36644 10.0929C5.45945 9.40545 5.83267 8.76832 6.42021 8.29391C7.00775 7.8195 7.77184 7.53832 8.57763 7.5H21.4224C22.2282 7.53832 22.9923 7.8195 23.5798 8.29391C24.1673 8.76832 24.5405 9.40545 24.6336 10.0929L27.4324 24.0214C27.5437 24.5216 27.5241 25.0367 27.375 25.5295C27.2259 26.0224 26.951 26.4807 26.5703 26.8714Z" fill="white"/>
</svg>
