<svg width="291" height="60" viewBox="0 0 291 60" fill="none" xmlns="http://www.w3.org/2000/svg">
<g filter="url(#filter0_d_1_4316)">
<rect x="4" y="34.5" width="95.6391" height="17.3399" rx="5" fill="#F6F6F6"/>
</g>
<path d="M30.965 39.3506V40.1646H27.632V42.7496H30.338V43.5636H27.632V47.0176H26.631V39.3506H30.965ZM31.58 43.9816C31.58 43.3656 31.7047 42.8266 31.954 42.3646C32.2033 41.8952 32.5443 41.5322 32.977 41.2756C33.417 41.0189 33.9047 40.8906 34.44 40.8906C34.968 40.8906 35.4263 41.0042 35.815 41.2316C36.2037 41.4589 36.4933 41.7449 36.684 42.0896V40.9896H37.696V47.0176H36.684V45.8956C36.486 46.2476 36.189 46.5409 35.793 46.7756C35.4043 47.0029 34.9497 47.1166 34.429 47.1166C33.8937 47.1166 33.4097 46.9846 32.977 46.7206C32.5443 46.4566 32.2033 46.0862 31.954 45.6096C31.7047 45.1329 31.58 44.5902 31.58 43.9816ZM36.684 43.9926C36.684 43.5379 36.5923 43.1419 36.409 42.8046C36.2257 42.4672 35.9763 42.2106 35.661 42.0346C35.353 41.8512 35.012 41.7596 34.638 41.7596C34.264 41.7596 33.923 41.8476 33.615 42.0236C33.307 42.1996 33.0613 42.4562 32.878 42.7936C32.6947 43.1309 32.603 43.5269 32.603 43.9816C32.603 44.4436 32.6947 44.8469 32.878 45.1916C33.0613 45.5289 33.307 45.7892 33.615 45.9726C33.923 46.1486 34.264 46.2366 34.638 46.2366C35.012 46.2366 35.353 46.1486 35.661 45.9726C35.9763 45.7892 36.2257 45.5289 36.409 45.1916C36.5923 44.8469 36.684 44.4472 36.684 43.9926ZM41.3016 47.1166C40.8396 47.1166 40.4252 47.0396 40.0586 46.8856C39.6919 46.7242 39.4022 46.5042 39.1896 46.2256C38.9769 45.9396 38.8596 45.6132 38.8376 45.2466H39.8716C39.9009 45.5472 40.0402 45.7929 40.2896 45.9836C40.5462 46.1742 40.8799 46.2696 41.2906 46.2696C41.6719 46.2696 41.9726 46.1852 42.1926 46.0166C42.4126 45.8479 42.5226 45.6352 42.5226 45.3786C42.5226 45.1146 42.4052 44.9202 42.1706 44.7956C41.9359 44.6636 41.5729 44.5352 41.0816 44.4106C40.6342 44.2932 40.2676 44.1759 39.9816 44.0586C39.7029 43.9339 39.4609 43.7542 39.2556 43.5196C39.0576 43.2776 38.9586 42.9622 38.9586 42.5736C38.9586 42.2656 39.0502 41.9832 39.2336 41.7266C39.4169 41.4699 39.6772 41.2682 40.0146 41.1216C40.3519 40.9676 40.7369 40.8906 41.1696 40.8906C41.8369 40.8906 42.3759 41.0592 42.7866 41.3966C43.1972 41.7339 43.4172 42.1959 43.4466 42.7826H42.4456C42.4236 42.4672 42.2952 42.2142 42.0606 42.0236C41.8332 41.8329 41.5252 41.7376 41.1366 41.7376C40.7772 41.7376 40.4912 41.8146 40.2786 41.9686C40.0659 42.1226 39.9596 42.3242 39.9596 42.5736C39.9596 42.7716 40.0219 42.9366 40.1466 43.0686C40.2786 43.1932 40.4399 43.2959 40.6306 43.3766C40.8286 43.4499 41.0999 43.5342 41.4446 43.6296C41.8772 43.7469 42.2292 43.8642 42.5006 43.9816C42.7719 44.0916 43.0029 44.2602 43.1936 44.4876C43.3916 44.7149 43.4942 45.0119 43.5016 45.3786C43.5016 45.7086 43.4099 46.0056 43.2266 46.2696C43.0432 46.5336 42.7829 46.7426 42.4456 46.8966C42.1156 47.0432 41.7342 47.1166 41.3016 47.1166ZM45.9157 41.8146V45.3676C45.9157 45.6609 45.978 45.8699 46.1027 45.9946C46.2273 46.1119 46.4437 46.1706 46.7517 46.1706H47.4887V47.0176H46.5867C46.0293 47.0176 45.6113 46.8892 45.3327 46.6326C45.054 46.3759 44.9147 45.9542 44.9147 45.3676V41.8146H44.1337V40.9896H44.9147V39.4716H45.9157V40.9896H47.4887V41.8146H45.9157ZM55.5281 39.3506V40.1646H52.1951V42.7496H54.9011V43.5636H52.1951V47.0176H51.1941V39.3506H55.5281ZM59.1461 47.1166C58.5814 47.1166 58.0681 46.9882 57.6061 46.7316C57.1514 46.4749 56.7921 46.1119 56.5281 45.6426C56.2714 45.1659 56.1431 44.6159 56.1431 43.9926C56.1431 43.3766 56.2751 42.8339 56.5391 42.3646C56.8104 41.8879 57.1771 41.5249 57.6391 41.2756C58.1011 41.0189 58.6181 40.8906 59.1901 40.8906C59.7621 40.8906 60.2791 41.0189 60.7411 41.2756C61.2031 41.5249 61.5661 41.8842 61.8301 42.3536C62.1014 42.8229 62.2371 43.3692 62.2371 43.9926C62.2371 44.6159 62.0977 45.1659 61.8191 45.6426C61.5477 46.1119 61.1774 46.4749 60.7081 46.7316C60.2387 46.9882 59.7181 47.1166 59.1461 47.1166ZM59.1461 46.2366C59.5054 46.2366 59.8427 46.1522 60.1581 45.9836C60.4734 45.8149 60.7264 45.5619 60.9171 45.2246C61.1151 44.8872 61.2141 44.4766 61.2141 43.9926C61.2141 43.5086 61.1187 43.0979 60.9281 42.7606C60.7374 42.4232 60.4881 42.1739 60.1801 42.0126C59.8721 41.8439 59.5384 41.7596 59.1791 41.7596C58.8124 41.7596 58.4751 41.8439 58.1671 42.0126C57.8664 42.1739 57.6244 42.4232 57.4411 42.7606C57.2577 43.0979 57.1661 43.5086 57.1661 43.9926C57.1661 44.4839 57.2541 44.8982 57.4301 45.2356C57.6134 45.5729 57.8554 45.8259 58.1561 45.9946C58.4567 46.1559 58.7867 46.2366 59.1461 46.2366ZM65.9622 47.1166C65.3975 47.1166 64.8842 46.9882 64.4222 46.7316C63.9675 46.4749 63.6082 46.1119 63.3442 45.6426C63.0875 45.1659 62.9592 44.6159 62.9592 43.9926C62.9592 43.3766 63.0912 42.8339 63.3552 42.3646C63.6265 41.8879 63.9932 41.5249 64.4552 41.2756C64.9172 41.0189 65.4342 40.8906 66.0062 40.8906C66.5782 40.8906 67.0952 41.0189 67.5572 41.2756C68.0192 41.5249 68.3822 41.8842 68.6462 42.3536C68.9175 42.8229 69.0532 43.3692 69.0532 43.9926C69.0532 44.6159 68.9139 45.1659 68.6352 45.6426C68.3639 46.1119 67.9935 46.4749 67.5242 46.7316C67.0549 46.9882 66.5342 47.1166 65.9622 47.1166ZM65.9622 46.2366C66.3215 46.2366 66.6589 46.1522 66.9742 45.9836C67.2895 45.8149 67.5425 45.5619 67.7332 45.2246C67.9312 44.8872 68.0302 44.4766 68.0302 43.9926C68.0302 43.5086 67.9349 43.0979 67.7442 42.7606C67.5535 42.4232 67.3042 42.1739 66.9962 42.0126C66.6882 41.8439 66.3545 41.7596 65.9952 41.7596C65.6285 41.7596 65.2912 41.8439 64.9832 42.0126C64.6825 42.1739 64.4405 42.4232 64.2572 42.7606C64.0739 43.0979 63.9822 43.5086 63.9822 43.9926C63.9822 44.4839 64.0702 44.8982 64.2462 45.2356C64.4295 45.5729 64.6715 45.8259 64.9722 45.9946C65.2729 46.1559 65.6029 46.2366 65.9622 46.2366ZM69.7753 43.9816C69.7753 43.3656 69.9 42.8266 70.1493 42.3646C70.3987 41.8952 70.7397 41.5322 71.1723 41.2756C71.6123 41.0189 72.1037 40.8906 72.6463 40.8906C73.1157 40.8906 73.552 41.0006 73.9553 41.2206C74.3587 41.4332 74.6667 41.7156 74.8793 42.0676V38.8776H75.8913V47.0176H74.8793V45.8846C74.6813 46.2439 74.388 46.5409 73.9993 46.7756C73.6107 47.0029 73.156 47.1166 72.6353 47.1166C72.1 47.1166 71.6123 46.9846 71.1723 46.7206C70.7397 46.4566 70.3987 46.0862 70.1493 45.6096C69.9 45.1329 69.7753 44.5902 69.7753 43.9816ZM74.8793 43.9926C74.8793 43.5379 74.7877 43.1419 74.6043 42.8046C74.421 42.4672 74.1717 42.2106 73.8563 42.0346C73.5483 41.8512 73.2073 41.7596 72.8333 41.7596C72.4593 41.7596 72.1183 41.8476 71.8103 42.0236C71.5023 42.1996 71.2567 42.4562 71.0733 42.7936C70.89 43.1309 70.7983 43.5269 70.7983 43.9816C70.7983 44.4436 70.89 44.8469 71.0733 45.1916C71.2567 45.5289 71.5023 45.7892 71.8103 45.9726C72.1183 46.1486 72.4593 46.2366 72.8333 46.2366C73.2073 46.2366 73.5483 46.1486 73.8563 45.9726C74.1717 45.7892 74.421 45.5289 74.6043 45.1916C74.7877 44.8469 74.8793 44.4472 74.8793 43.9926Z" fill="#8A8E9B"/>
<path d="M7.60742 4.28125H10.0879L13.7402 14.7207L17.3926 4.28125H19.873L14.7363 18.5H12.7441L7.60742 4.28125ZM6.26953 4.28125H8.74023L9.18945 14.457V18.5H6.26953V4.28125ZM18.7402 4.28125H21.2207V18.5H18.291V14.457L18.7402 4.28125ZM27.9785 16.498C28.3236 16.498 28.6296 16.4329 28.8965 16.3027C29.1634 16.166 29.3717 15.9772 29.5215 15.7363C29.6777 15.4889 29.7591 15.1992 29.7656 14.8672H32.4121C32.4056 15.6094 32.207 16.2702 31.8164 16.8496C31.4258 17.4225 30.9017 17.875 30.2441 18.207C29.5866 18.5326 28.8509 18.6953 28.0371 18.6953C27.2168 18.6953 26.5007 18.5586 25.8887 18.2852C25.2832 18.0117 24.7786 17.6341 24.375 17.1523C23.9714 16.6641 23.6686 16.0977 23.4668 15.4531C23.265 14.8021 23.1641 14.1055 23.1641 13.3633V13.0801C23.1641 12.3314 23.265 11.6348 23.4668 10.9902C23.6686 10.3392 23.9714 9.77279 24.375 9.29102C24.7786 8.80273 25.2832 8.42188 25.8887 8.14844C26.4941 7.875 27.2038 7.73828 28.0176 7.73828C28.8835 7.73828 29.6419 7.9043 30.293 8.23633C30.9505 8.56836 31.4648 9.04362 31.8359 9.66211C32.2135 10.2741 32.4056 11 32.4121 11.8398H29.7656C29.7591 11.4883 29.6842 11.1693 29.541 10.8828C29.4043 10.5964 29.2025 10.3685 28.9355 10.1992C28.6751 10.0234 28.3529 9.93555 27.9688 9.93555C27.5586 9.93555 27.2233 10.0234 26.9629 10.1992C26.7025 10.3685 26.5007 10.6029 26.3574 10.9023C26.2142 11.1953 26.1133 11.5306 26.0547 11.9082C26.0026 12.2793 25.9766 12.6699 25.9766 13.0801V13.3633C25.9766 13.7734 26.0026 14.1673 26.0547 14.5449C26.1068 14.9225 26.2044 15.2578 26.3477 15.5508C26.4974 15.8438 26.7025 16.0749 26.9629 16.2441C27.2233 16.4134 27.5618 16.498 27.9785 16.498ZM38.584 18.5H35.4883L35.5078 16.2148H38.584C39.3522 16.2148 40 16.0423 40.5273 15.6973C41.0547 15.3457 41.4518 14.8346 41.7188 14.1641C41.9922 13.4935 42.1289 12.6829 42.1289 11.7324V11.0391C42.1289 10.3099 42.0508 9.66862 41.8945 9.11523C41.7448 8.56185 41.5202 8.09635 41.2207 7.71875C40.9212 7.34115 40.5534 7.05794 40.1172 6.86914C39.681 6.67383 39.1797 6.57617 38.6133 6.57617H35.4297V4.28125H38.6133C39.5638 4.28125 40.4329 4.44401 41.2207 4.76953C42.015 5.08854 42.7018 5.54753 43.2812 6.14648C43.8607 6.74544 44.3066 7.46159 44.6191 8.29492C44.9382 9.12174 45.0977 10.043 45.0977 11.0586V11.7324C45.0977 12.7415 44.9382 13.6628 44.6191 14.4961C44.3066 15.3294 43.8607 16.0456 43.2812 16.6445C42.7083 17.237 42.0215 17.696 41.2207 18.0215C40.4264 18.3405 39.5475 18.5 38.584 18.5ZM37.1484 4.28125V18.5H34.2188V4.28125H37.1484ZM46.6016 13.3242V13.1191C46.6016 12.3444 46.7122 11.6315 46.9336 10.9805C47.1549 10.3229 47.4772 9.75326 47.9004 9.27148C48.3236 8.78971 48.8444 8.41536 49.4629 8.14844C50.0814 7.875 50.791 7.73828 51.5918 7.73828C52.3926 7.73828 53.1055 7.875 53.7305 8.14844C54.3555 8.41536 54.8796 8.78971 55.3027 9.27148C55.7324 9.75326 56.0579 10.3229 56.2793 10.9805C56.5007 11.6315 56.6113 12.3444 56.6113 13.1191V13.3242C56.6113 14.0924 56.5007 14.8053 56.2793 15.4629C56.0579 16.1139 55.7324 16.6836 55.3027 17.1719C54.8796 17.6536 54.3587 18.028 53.7402 18.2949C53.1217 18.5618 52.4121 18.6953 51.6113 18.6953C50.8105 18.6953 50.0977 18.5618 49.4727 18.2949C48.8542 18.028 48.3301 17.6536 47.9004 17.1719C47.4772 16.6836 47.1549 16.1139 46.9336 15.4629C46.7122 14.8053 46.6016 14.0924 46.6016 13.3242ZM49.4141 13.1191V13.3242C49.4141 13.7669 49.4531 14.1803 49.5312 14.5645C49.6094 14.9486 49.7331 15.2871 49.9023 15.5801C50.0781 15.8665 50.306 16.0911 50.5859 16.2539C50.8659 16.4167 51.2077 16.498 51.6113 16.498C52.002 16.498 52.3372 16.4167 52.6172 16.2539C52.8971 16.0911 53.1217 15.8665 53.291 15.5801C53.4603 15.2871 53.584 14.9486 53.6621 14.5645C53.7467 14.1803 53.7891 13.7669 53.7891 13.3242V13.1191C53.7891 12.6895 53.7467 12.2858 53.6621 11.9082C53.584 11.5241 53.457 11.1855 53.2812 10.8926C53.112 10.5931 52.8874 10.3587 52.6074 10.1895C52.3275 10.0202 51.9889 9.93555 51.5918 9.93555C51.1947 9.93555 50.8561 10.0202 50.5762 10.1895C50.3027 10.3587 50.0781 10.5931 49.9023 10.8926C49.7331 11.1855 49.6094 11.5241 49.5312 11.9082C49.4531 12.2858 49.4141 12.6895 49.4141 13.1191ZM61.0938 10.1895V18.5H58.2812V7.93359H60.918L61.0938 10.1895ZM60.6836 12.8457H59.9219C59.9219 12.0645 60.0228 11.3613 60.2246 10.7363C60.4264 10.1048 60.7096 9.56771 61.0742 9.125C61.4388 8.67578 61.8717 8.33398 62.373 8.09961C62.8809 7.85872 63.4473 7.73828 64.0723 7.73828C64.5671 7.73828 65.0195 7.8099 65.4297 7.95312C65.8398 8.09635 66.1914 8.32422 66.4844 8.63672C66.7839 8.94922 67.0117 9.36263 67.168 9.87695C67.3307 10.3913 67.4121 11.0195 67.4121 11.7617V18.5H64.5801V11.752C64.5801 11.2832 64.515 10.9186 64.3848 10.6582C64.2546 10.3978 64.0625 10.2155 63.8086 10.1113C63.5612 10.0007 63.2552 9.94531 62.8906 9.94531C62.513 9.94531 62.1842 10.0202 61.9043 10.1699C61.6309 10.3197 61.403 10.528 61.2207 10.7949C61.0449 11.0553 60.9115 11.3613 60.8203 11.7129C60.7292 12.0645 60.6836 12.4421 60.6836 12.8457ZM75.2539 16.1172V11.4102C75.2539 11.0716 75.1986 10.7819 75.0879 10.541C74.9772 10.2936 74.8047 10.1016 74.5703 9.96484C74.3424 9.82812 74.0462 9.75977 73.6816 9.75977C73.3691 9.75977 73.099 9.8151 72.8711 9.92578C72.6432 10.0299 72.4674 10.1829 72.3438 10.3848C72.2201 10.5801 72.1582 10.8112 72.1582 11.0781H69.3457C69.3457 10.6289 69.4499 10.2025 69.6582 9.79883C69.8665 9.39518 70.1693 9.04036 70.5664 8.73438C70.9635 8.42188 71.4355 8.17773 71.9824 8.00195C72.5358 7.82617 73.1543 7.73828 73.8379 7.73828C74.6582 7.73828 75.3874 7.875 76.0254 8.14844C76.6634 8.42188 77.1647 8.83203 77.5293 9.37891C77.9004 9.92578 78.0859 10.6094 78.0859 11.4297V15.9512C78.0859 16.5306 78.1217 17.0059 78.1934 17.377C78.265 17.7415 78.3691 18.0605 78.5059 18.334V18.5H75.6641C75.5273 18.2135 75.4232 17.8555 75.3516 17.4258C75.2865 16.9896 75.2539 16.5534 75.2539 16.1172ZM75.625 12.0645L75.6445 13.6562H74.0723C73.7012 13.6562 73.3789 13.6986 73.1055 13.7832C72.832 13.8678 72.6074 13.9883 72.4316 14.1445C72.2559 14.2943 72.1257 14.4701 72.041 14.6719C71.9629 14.8737 71.9238 15.0951 71.9238 15.3359C71.9238 15.5768 71.9792 15.7949 72.0898 15.9902C72.2005 16.179 72.36 16.3288 72.5684 16.4395C72.7767 16.5436 73.0208 16.5957 73.3008 16.5957C73.724 16.5957 74.0918 16.5111 74.4043 16.3418C74.7168 16.1725 74.9577 15.9642 75.127 15.7168C75.3027 15.4694 75.3939 15.235 75.4004 15.0137L76.1426 16.2051C76.0384 16.472 75.8952 16.7487 75.7129 17.0352C75.5371 17.3216 75.3125 17.5918 75.0391 17.8457C74.7656 18.0931 74.4368 18.2982 74.0527 18.4609C73.6686 18.6172 73.2129 18.6953 72.6855 18.6953C72.015 18.6953 71.4062 18.5618 70.8594 18.2949C70.319 18.0215 69.8893 17.6471 69.5703 17.1719C69.2578 16.6901 69.1016 16.1432 69.1016 15.5312C69.1016 14.9779 69.2057 14.4863 69.4141 14.0566C69.6224 13.627 69.9284 13.2656 70.332 12.9727C70.7422 12.6732 71.2533 12.4486 71.8652 12.2988C72.4772 12.1426 73.1868 12.0645 73.9941 12.0645H75.625ZM83.2227 3.5V18.5H80.4004V3.5H83.2227ZM91.7871 16.1953V3.5H94.6191V18.5H92.0703L91.7871 16.1953ZM85.1074 13.3438V13.1387C85.1074 12.3314 85.1986 11.599 85.3809 10.9414C85.5632 10.2773 85.8301 9.70768 86.1816 9.23242C86.5332 8.75716 86.9661 8.38932 87.4805 8.12891C87.9948 7.86849 88.5807 7.73828 89.2383 7.73828C89.8568 7.73828 90.3971 7.86849 90.8594 8.12891C91.3281 8.38932 91.7253 8.76042 92.0508 9.24219C92.3828 9.71745 92.6497 10.2806 92.8516 10.9316C93.0534 11.5762 93.1999 12.2826 93.291 13.0508V13.5C93.1999 14.2357 93.0534 14.9193 92.8516 15.5508C92.6497 16.1823 92.3828 16.7357 92.0508 17.2109C91.7253 17.6797 91.3281 18.0443 90.8594 18.3047C90.3906 18.5651 89.8438 18.6953 89.2188 18.6953C88.5612 18.6953 87.9753 18.5618 87.4609 18.2949C86.9531 18.028 86.5234 17.6536 86.1719 17.1719C85.8268 16.6901 85.5632 16.1237 85.3809 15.4727C85.1986 14.8216 85.1074 14.112 85.1074 13.3438ZM87.9199 13.1387V13.3438C87.9199 13.7799 87.9525 14.1868 88.0176 14.5645C88.0892 14.9421 88.2031 15.2773 88.3594 15.5703C88.5221 15.8568 88.7305 16.0814 88.9844 16.2441C89.2448 16.4004 89.5605 16.4785 89.9316 16.4785C90.4134 16.4785 90.8105 16.3711 91.123 16.1562C91.4355 15.9349 91.6732 15.6322 91.8359 15.248C92.0052 14.8639 92.1029 14.4212 92.1289 13.9199V12.6406C92.1094 12.2305 92.0508 11.8626 91.9531 11.5371C91.862 11.2051 91.7253 10.9219 91.543 10.6875C91.3672 10.4531 91.1458 10.2708 90.8789 10.1406C90.6185 10.0104 90.3092 9.94531 89.9512 9.94531C89.5866 9.94531 89.2741 10.0299 89.0137 10.1992C88.7533 10.362 88.5417 10.5866 88.3789 10.873C88.2227 11.1595 88.1055 11.498 88.0273 11.8887C87.9557 12.2728 87.9199 12.6895 87.9199 13.1387ZM99.3848 3.5V4.98438C99.3848 5.40755 99.3034 5.84375 99.1406 6.29297C98.9844 6.74219 98.7728 7.16862 98.5059 7.57227C98.2389 7.9694 97.946 8.30794 97.627 8.58789L96.3086 7.82617C96.5495 7.44206 96.7546 7.02539 96.9238 6.57617C97.0931 6.12044 97.1777 5.5931 97.1777 4.99414V3.5H99.3848ZM105.225 15.5801C105.225 15.3783 105.166 15.196 105.049 15.0332C104.932 14.8704 104.714 14.7207 104.395 14.584C104.082 14.4408 103.63 14.3105 103.037 14.1934C102.503 14.0762 102.005 13.9297 101.543 13.7539C101.087 13.5716 100.69 13.3535 100.352 13.0996C100.02 12.8457 99.7591 12.5462 99.5703 12.2012C99.3815 11.8496 99.2871 11.4492 99.2871 11C99.2871 10.5573 99.3815 10.1406 99.5703 9.75C99.7656 9.35938 100.042 9.01432 100.4 8.71484C100.765 8.40885 101.208 8.17122 101.729 8.00195C102.256 7.82617 102.848 7.73828 103.506 7.73828C104.424 7.73828 105.212 7.88477 105.869 8.17773C106.533 8.4707 107.041 8.87435 107.393 9.38867C107.751 9.89648 107.93 10.4759 107.93 11.127H105.117C105.117 10.8535 105.059 10.6094 104.941 10.3945C104.831 10.1732 104.655 10.0007 104.414 9.87695C104.18 9.74674 103.874 9.68164 103.496 9.68164C103.184 9.68164 102.913 9.73698 102.686 9.84766C102.458 9.95182 102.282 10.0951 102.158 10.2773C102.041 10.4531 101.982 10.6484 101.982 10.8633C101.982 11.026 102.015 11.1725 102.08 11.3027C102.152 11.4264 102.266 11.5404 102.422 11.6445C102.578 11.7487 102.78 11.8464 103.027 11.9375C103.281 12.0221 103.594 12.1003 103.965 12.1719C104.727 12.3281 105.407 12.5332 106.006 12.7871C106.605 13.0345 107.08 13.373 107.432 13.8027C107.783 14.2259 107.959 14.7826 107.959 15.4727C107.959 15.9414 107.855 16.3711 107.646 16.7617C107.438 17.1523 107.139 17.4941 106.748 17.7871C106.357 18.0736 105.889 18.2982 105.342 18.4609C104.801 18.6172 104.193 18.6953 103.516 18.6953C102.533 18.6953 101.699 18.5195 101.016 18.168C100.339 17.8164 99.8242 17.3704 99.4727 16.8301C99.1276 16.2832 98.9551 15.7233 98.9551 15.1504H101.621C101.634 15.5345 101.732 15.8438 101.914 16.0781C102.103 16.3125 102.34 16.4818 102.627 16.5859C102.92 16.6901 103.236 16.7422 103.574 16.7422C103.939 16.7422 104.242 16.6934 104.482 16.5957C104.723 16.4915 104.906 16.3548 105.029 16.1855C105.16 16.0098 105.225 15.8079 105.225 15.5801Z" fill="#313232"/>
<circle cx="132" cy="10.5" r="9.5" fill="#87BE56" stroke="#313232"/>
<path d="M127 9.66536L130.75 14.6654L137 6.33203" stroke="#313232"/>
<path d="M200.047 40.2812L200.037 40.3068C200.04 40.2991 200.043 40.2912 200.046 40.2835L200.047 40.2812V40.2812Z" fill="black"/>
<path d="M196.501 30.5C193.411 30.5 190.875 33.1959 190.875 36.4841C190.875 37.7585 191.258 38.946 191.903 39.9187L191.88 39.8803L195.481 46.5196L195.499 46.545C195.644 46.747 195.788 46.9098 195.962 47.0324C196.136 47.155 196.358 47.2324 196.577 47.209C197.014 47.1622 197.268 46.8402 197.502 46.501L197.517 46.48L201.487 39.2736L201.49 39.2676C201.585 39.0846 201.654 38.9 201.713 38.7212C201.985 38.0111 202.125 37.2513 202.125 36.4841C202.125 33.1959 199.59 30.5 196.501 30.5ZM196.501 31.5C199.08 31.5 201.188 33.7434 201.188 36.4841C201.188 37.1243 201.071 37.7583 200.843 38.3504L200.838 38.3628L200.834 38.3758C200.785 38.5272 200.731 38.6646 200.669 38.7838L196.74 45.9167C196.566 46.1608 196.444 46.2186 196.483 46.2142C196.503 46.2122 196.522 46.229 196.479 46.1986C196.438 46.1696 196.354 46.0846 196.255 45.9495L192.681 39.3596L192.669 39.341C192.13 38.529 191.813 37.5457 191.813 36.4841C191.813 33.7436 193.922 31.5 196.501 31.5ZM196.501 33.0699C194.727 33.0699 193.292 34.595 193.292 36.4841C193.292 38.3732 194.727 39.8983 196.501 39.8983C198.275 39.8983 199.709 38.373 199.709 36.4841C199.709 34.595 198.275 33.0699 196.501 33.0699V33.0699ZM196.501 34.0698C197.779 34.0698 198.772 35.1268 198.772 36.4841C198.772 37.8414 197.779 38.8984 196.501 38.8984C195.222 38.8984 194.229 37.8412 194.229 36.4841C194.229 35.1268 195.223 34.0698 196.501 34.0698V34.0698Z" fill="#313232"/>
<path d="M193.501 44.3125C193.501 44.3125 193.501 44.3125 193.501 44.3125H193.501C193.501 44.3125 193.501 44.3125 193.501 44.3125ZM193.501 44.3125C190.852 44.7117 189 45.6667 189 47.0724C189 48.9659 192.095 50.5008 196.5 50.5008C200.905 50.5008 204 48.9659 204 47.0724C204 45.6666 202.148 44.7117 199.499 44.3125L199.132 44.9789C201.128 45.2743 202.5 45.895 202.5 46.6154C202.5 47.6253 199.814 48.4439 196.5 48.4439C193.186 48.4439 190.5 47.6253 190.5 46.6154C190.5 45.8974 191.862 45.2773 193.865 44.9807C193.802 44.8645 193.738 44.7485 193.675 44.6325C193.617 44.5259 193.559 44.4193 193.501 44.3125Z" fill="#87BE56"/>
<path d="M193.501 44.3125C193.501 44.3125 193.501 44.3125 193.501 44.3125H193.501C193.501 44.3125 193.501 44.3125 193.501 44.3125ZM193.501 44.3125C190.852 44.7117 189 45.6667 189 47.0724C189 48.9659 192.095 50.5008 196.5 50.5008C200.905 50.5008 204 48.9659 204 47.0724C204 45.6666 202.148 44.7117 199.499 44.3125L199.132 44.9789C201.128 45.2743 202.5 45.895 202.5 46.6154C202.5 47.6253 199.814 48.4439 196.5 48.4439C193.186 48.4439 190.5 47.6253 190.5 46.6154C190.5 45.8974 191.862 45.2773 193.865 44.9807C193.802 44.8645 193.738 44.7485 193.675 44.6325C193.617 44.5259 193.559 44.4193 193.501 44.3125Z" stroke="#4B5563"/>
<path opacity="0.7" d="M124.44 47.729V46.97L128.301 41.624H129.5V46.86H130.6V47.729H129.5V49.5H128.51V47.729H124.44ZM128.554 42.669L125.595 46.86H128.554V42.669ZM132.084 49.566C131.893 49.566 131.732 49.5 131.6 49.368C131.468 49.236 131.402 49.0747 131.402 48.884C131.402 48.6933 131.468 48.532 131.6 48.4C131.732 48.268 131.893 48.202 132.084 48.202C132.267 48.202 132.421 48.268 132.546 48.4C132.678 48.532 132.744 48.6933 132.744 48.884C132.744 49.0747 132.678 49.236 132.546 49.368C132.421 49.5 132.267 49.566 132.084 49.566ZM138.981 42.416H135.12V44.924C135.288 44.6893 135.538 44.4987 135.868 44.352C136.198 44.198 136.553 44.121 136.935 44.121C137.543 44.121 138.038 44.2493 138.42 44.506C138.801 44.7553 139.072 45.0817 139.234 45.485C139.402 45.881 139.487 46.3027 139.487 46.75C139.487 47.278 139.388 47.751 139.19 48.169C138.992 48.587 138.687 48.917 138.277 49.159C137.873 49.401 137.371 49.522 136.77 49.522C136 49.522 135.376 49.324 134.9 48.928C134.423 48.532 134.133 48.004 134.031 47.344H135.01C135.105 47.762 135.307 48.0883 135.615 48.323C135.923 48.5577 136.311 48.675 136.781 48.675C137.36 48.675 137.796 48.5027 138.09 48.158C138.383 47.806 138.53 47.344 138.53 46.772C138.53 46.2 138.383 45.76 138.09 45.452C137.796 45.1367 137.364 44.979 136.792 44.979C136.403 44.979 136.062 45.0743 135.769 45.265C135.483 45.4483 135.274 45.7013 135.142 46.024H134.196V41.536H138.981V42.416Z" fill="#4B5563"/>
<path opacity="0.7" d="M218.753 42.416H214.892V44.924C215.061 44.6893 215.31 44.4987 215.64 44.352C215.97 44.198 216.326 44.121 216.707 44.121C217.316 44.121 217.811 44.2493 218.192 44.506C218.573 44.7553 218.845 45.0817 219.006 45.485C219.175 45.881 219.259 46.3027 219.259 46.75C219.259 47.278 219.16 47.751 218.962 48.169C218.764 48.587 218.46 48.917 218.049 49.159C217.646 49.401 217.143 49.522 216.542 49.522C215.772 49.522 215.149 49.324 214.672 48.928C214.195 48.532 213.906 48.004 213.803 47.344H214.782C214.877 47.762 215.079 48.0883 215.387 48.323C215.695 48.5577 216.084 48.675 216.553 48.675C217.132 48.675 217.569 48.5027 217.862 48.158C218.155 47.806 218.302 47.344 218.302 46.772C218.302 46.2 218.155 45.76 217.862 45.452C217.569 45.1367 217.136 44.979 216.564 44.979C216.175 44.979 215.834 45.0743 215.541 45.265C215.255 45.4483 215.046 45.7013 214.914 46.024H213.968V41.536H218.753V42.416ZM220.589 45.441C220.589 44.1797 220.795 43.197 221.205 42.493C221.616 41.7817 222.335 41.426 223.361 41.426C224.381 41.426 225.096 41.7817 225.506 42.493C225.917 43.197 226.122 44.1797 226.122 45.441C226.122 46.7243 225.917 47.7217 225.506 48.433C225.096 49.1443 224.381 49.5 223.361 49.5C222.335 49.5 221.616 49.1443 221.205 48.433C220.795 47.7217 220.589 46.7243 220.589 45.441ZM225.132 45.441C225.132 44.803 225.088 44.264 225 43.824C224.92 43.3767 224.747 43.0173 224.483 42.746C224.227 42.4747 223.853 42.339 223.361 42.339C222.863 42.339 222.481 42.4747 222.217 42.746C221.961 43.0173 221.788 43.3767 221.7 43.824C221.62 44.264 221.579 44.803 221.579 45.441C221.579 46.101 221.62 46.6547 221.7 47.102C221.788 47.5493 221.961 47.9087 222.217 48.18C222.481 48.4513 222.863 48.587 223.361 48.587C223.853 48.587 224.227 48.4513 224.483 48.18C224.747 47.9087 224.92 47.5493 225 47.102C225.088 46.6547 225.132 46.101 225.132 45.441ZM227.496 45.441C227.496 44.1797 227.702 43.197 228.112 42.493C228.523 41.7817 229.242 41.426 230.268 41.426C231.288 41.426 232.003 41.7817 232.413 42.493C232.824 43.197 233.029 44.1797 233.029 45.441C233.029 46.7243 232.824 47.7217 232.413 48.433C232.003 49.1443 231.288 49.5 230.268 49.5C229.242 49.5 228.523 49.1443 228.112 48.433C227.702 47.7217 227.496 46.7243 227.496 45.441ZM232.039 45.441C232.039 44.803 231.995 44.264 231.907 43.824C231.827 43.3767 231.654 43.0173 231.39 42.746C231.134 42.4747 230.76 42.339 230.268 42.339C229.77 42.339 229.388 42.4747 229.124 42.746C228.868 43.0173 228.695 43.3767 228.607 43.824C228.527 44.264 228.486 44.803 228.486 45.441C228.486 46.101 228.527 46.6547 228.607 47.102C228.695 47.5493 228.868 47.9087 229.124 48.18C229.388 48.4513 229.77 48.587 230.268 48.587C230.76 48.587 231.134 48.4513 231.39 48.18C231.654 47.9087 231.827 47.5493 231.907 47.102C231.995 46.6547 232.039 46.101 232.039 45.441ZM244.75 43.362C245.22 43.362 245.638 43.461 246.004 43.659C246.371 43.8497 246.661 44.1393 246.873 44.528C247.086 44.9167 247.192 45.3897 247.192 45.947V49.5H246.202V46.09C246.202 45.4887 246.052 45.0303 245.751 44.715C245.458 44.3923 245.058 44.231 244.552 44.231C244.032 44.231 243.617 44.3997 243.309 44.737C243.001 45.067 242.847 45.5473 242.847 46.178V49.5H241.857V46.09C241.857 45.4887 241.707 45.0303 241.406 44.715C241.113 44.3923 240.713 44.231 240.207 44.231C239.687 44.231 239.272 44.3997 238.964 44.737C238.656 45.067 238.502 45.5473 238.502 46.178V49.5H237.501V43.472H238.502V44.341C238.7 44.0257 238.964 43.7837 239.294 43.615C239.632 43.4463 240.002 43.362 240.405 43.362C240.911 43.362 241.359 43.4757 241.747 43.703C242.136 43.9303 242.426 44.264 242.616 44.704C242.785 44.2787 243.064 43.9487 243.452 43.714C243.841 43.4793 244.274 43.362 244.75 43.362ZM250.055 44.297V47.85C250.055 48.1433 250.118 48.3523 250.242 48.477C250.367 48.5943 250.583 48.653 250.891 48.653H251.628V49.5H250.726C250.169 49.5 249.751 49.3717 249.472 49.115C249.194 48.8583 249.054 48.4367 249.054 47.85V44.297H248.273V43.472H249.054V41.954H250.055V43.472H251.628V44.297H250.055ZM253.842 44.451C254.018 44.1063 254.267 43.8387 254.59 43.648C254.92 43.4573 255.32 43.362 255.789 43.362V44.396H255.525C254.403 44.396 253.842 45.0047 253.842 46.222V49.5H252.841V43.472H253.842V44.451ZM259.079 49.599C258.617 49.599 258.202 49.522 257.836 49.368C257.469 49.2067 257.179 48.9867 256.967 48.708C256.754 48.422 256.637 48.0957 256.615 47.729H257.649C257.678 48.0297 257.817 48.2753 258.067 48.466C258.323 48.6567 258.657 48.752 259.068 48.752C259.449 48.752 259.75 48.6677 259.97 48.499C260.19 48.3303 260.3 48.1177 260.3 47.861C260.3 47.597 260.182 47.4027 259.948 47.278C259.713 47.146 259.35 47.0177 258.859 46.893C258.411 46.7757 258.045 46.6583 257.759 46.541C257.48 46.4163 257.238 46.2367 257.033 46.002C256.835 45.76 256.736 45.4447 256.736 45.056C256.736 44.748 256.827 44.4657 257.011 44.209C257.194 43.9523 257.454 43.7507 257.792 43.604C258.129 43.45 258.514 43.373 258.947 43.373C259.614 43.373 260.153 43.5417 260.564 43.879C260.974 44.2163 261.194 44.6783 261.224 45.265H260.223C260.201 44.9497 260.072 44.6967 259.838 44.506C259.61 44.3153 259.302 44.22 258.914 44.22C258.554 44.22 258.268 44.297 258.056 44.451C257.843 44.605 257.737 44.8067 257.737 45.056C257.737 45.254 257.799 45.419 257.924 45.551C258.056 45.6757 258.217 45.7783 258.408 45.859C258.606 45.9323 258.877 46.0167 259.222 46.112C259.654 46.2293 260.006 46.3467 260.278 46.464C260.549 46.574 260.78 46.7427 260.971 46.97C261.169 47.1973 261.271 47.4943 261.279 47.861C261.279 48.191 261.187 48.488 261.004 48.752C260.82 49.016 260.56 49.225 260.223 49.379C259.893 49.5257 259.511 49.599 259.079 49.599ZM263.011 49.566C262.82 49.566 262.659 49.5 262.527 49.368C262.395 49.236 262.329 49.0747 262.329 48.884C262.329 48.6933 262.395 48.532 262.527 48.4C262.659 48.268 262.82 48.202 263.011 48.202C263.194 48.202 263.348 48.268 263.473 48.4C263.605 48.532 263.671 48.6933 263.671 48.884C263.671 49.0747 263.605 49.236 263.473 49.368C263.348 49.5 263.194 49.566 263.011 49.566Z" fill="#4B5563"/>
<path d="M116.754 45.1823L117.473 49.5665L113.741 47.5139L113.5 47.3814L113.259 47.5139L109.526 49.5665L110.246 45.1805L110.287 44.9303L110.11 44.7493L107.042 41.6231L111.256 40.9826L111.521 40.9423L111.634 40.699L113.5 36.686L115.366 40.699L115.479 40.9423L115.744 40.9826L119.959 41.6231L116.89 44.7512L116.713 44.9321L116.754 45.1823Z" fill="#87BE56" stroke="black"/>
<path d="M213.418 9.46V8.547H215.486V16.5H214.474V9.46H213.418ZM217.205 12.441C217.205 11.1797 217.411 10.197 217.821 9.493C218.232 8.78167 218.951 8.426 219.977 8.426C220.997 8.426 221.712 8.78167 222.122 9.493C222.533 10.197 222.738 11.1797 222.738 12.441C222.738 13.7243 222.533 14.7217 222.122 15.433C221.712 16.1443 220.997 16.5 219.977 16.5C218.951 16.5 218.232 16.1443 217.821 15.433C217.411 14.7217 217.205 13.7243 217.205 12.441ZM221.748 12.441C221.748 11.803 221.704 11.264 221.616 10.824C221.536 10.3767 221.363 10.0173 221.099 9.746C220.843 9.47467 220.469 9.339 219.977 9.339C219.479 9.339 219.097 9.47467 218.833 9.746C218.577 10.0173 218.404 10.3767 218.316 10.824C218.236 11.264 218.195 11.803 218.195 12.441C218.195 13.101 218.236 13.6547 218.316 14.102C218.404 14.5493 218.577 14.9087 218.833 15.18C219.097 15.4513 219.479 15.587 219.977 15.587C220.469 15.587 220.843 15.4513 221.099 15.18C221.363 14.9087 221.536 14.5493 221.616 14.102C221.704 13.6547 221.748 13.101 221.748 12.441ZM226.836 13.464C226.836 12.848 226.961 12.309 227.21 11.847C227.46 11.3777 227.801 11.0147 228.233 10.758C228.673 10.5013 229.165 10.373 229.707 10.373C230.177 10.373 230.613 10.483 231.016 10.703C231.42 10.9157 231.728 11.198 231.94 11.55V8.36H232.952V16.5H231.94V15.367C231.742 15.7263 231.449 16.0233 231.06 16.258C230.672 16.4853 230.217 16.599 229.696 16.599C229.161 16.599 228.673 16.467 228.233 16.203C227.801 15.939 227.46 15.5687 227.21 15.092C226.961 14.6153 226.836 14.0727 226.836 13.464ZM231.94 13.475C231.94 13.0203 231.849 12.6243 231.665 12.287C231.482 11.9497 231.233 11.693 230.917 11.517C230.609 11.3337 230.268 11.242 229.894 11.242C229.52 11.242 229.179 11.33 228.871 11.506C228.563 11.682 228.318 11.9387 228.134 12.276C227.951 12.6133 227.859 13.0093 227.859 13.464C227.859 13.926 227.951 14.3293 228.134 14.674C228.318 15.0113 228.563 15.2717 228.871 15.455C229.179 15.631 229.52 15.719 229.894 15.719C230.268 15.719 230.609 15.631 230.917 15.455C231.233 15.2717 231.482 15.0113 231.665 14.674C231.849 14.3293 231.94 13.9297 231.94 13.475ZM235.161 9.493C234.97 9.493 234.809 9.427 234.677 9.295C234.545 9.163 234.479 9.00167 234.479 8.811C234.479 8.62033 234.545 8.459 234.677 8.327C234.809 8.195 234.97 8.129 235.161 8.129C235.344 8.129 235.498 8.195 235.623 8.327C235.755 8.459 235.821 8.62033 235.821 8.811C235.821 9.00167 235.755 9.163 235.623 9.295C235.498 9.427 235.344 9.493 235.161 9.493ZM235.645 10.472V16.5H234.644V10.472H235.645ZM239.485 16.599C239.023 16.599 238.609 16.522 238.242 16.368C237.875 16.2067 237.586 15.9867 237.373 15.708C237.16 15.422 237.043 15.0957 237.021 14.729H238.055C238.084 15.0297 238.224 15.2753 238.473 15.466C238.73 15.6567 239.063 15.752 239.474 15.752C239.855 15.752 240.156 15.6677 240.376 15.499C240.596 15.3303 240.706 15.1177 240.706 14.861C240.706 14.597 240.589 14.4027 240.354 14.278C240.119 14.146 239.756 14.0177 239.265 13.893C238.818 13.7757 238.451 13.6583 238.165 13.541C237.886 13.4163 237.644 13.2367 237.439 13.002C237.241 12.76 237.142 12.4447 237.142 12.056C237.142 11.748 237.234 11.4657 237.417 11.209C237.6 10.9523 237.861 10.7507 238.198 10.604C238.535 10.45 238.92 10.373 239.353 10.373C240.02 10.373 240.559 10.5417 240.97 10.879C241.381 11.2163 241.601 11.6783 241.63 12.265H240.629C240.607 11.9497 240.479 11.6967 240.244 11.506C240.017 11.3153 239.709 11.22 239.32 11.22C238.961 11.22 238.675 11.297 238.462 11.451C238.249 11.605 238.143 11.8067 238.143 12.056C238.143 12.254 238.205 12.419 238.33 12.551C238.462 12.6757 238.623 12.7783 238.814 12.859C239.012 12.9323 239.283 13.0167 239.628 13.112C240.061 13.2293 240.413 13.3467 240.684 13.464C240.955 13.574 241.186 13.7427 241.377 13.97C241.575 14.1973 241.678 14.4943 241.685 14.861C241.685 15.191 241.593 15.488 241.41 15.752C241.227 16.016 240.966 16.225 240.629 16.379C240.299 16.5257 239.918 16.599 239.485 16.599ZM244.099 11.583C244.297 11.2383 244.59 10.9523 244.979 10.725C245.375 10.4903 245.833 10.373 246.354 10.373C246.889 10.373 247.373 10.5013 247.806 10.758C248.246 11.0147 248.591 11.3777 248.84 11.847C249.089 12.309 249.214 12.848 249.214 13.464C249.214 14.0727 249.089 14.6153 248.84 15.092C248.591 15.5687 248.246 15.939 247.806 16.203C247.373 16.467 246.889 16.599 246.354 16.599C245.841 16.599 245.386 16.4853 244.99 16.258C244.601 16.0233 244.304 15.7337 244.099 15.389V19.36H243.098V10.472H244.099V11.583ZM248.191 13.464C248.191 13.0093 248.099 12.6133 247.916 12.276C247.733 11.9387 247.483 11.682 247.168 11.506C246.86 11.33 246.519 11.242 246.145 11.242C245.778 11.242 245.437 11.3337 245.122 11.517C244.814 11.693 244.565 11.9533 244.374 12.298C244.191 12.6353 244.099 13.0277 244.099 13.475C244.099 13.9297 244.191 14.3293 244.374 14.674C244.565 15.0113 244.814 15.2717 245.122 15.455C245.437 15.631 245.778 15.719 246.145 15.719C246.519 15.719 246.86 15.631 247.168 15.455C247.483 15.2717 247.733 15.0113 247.916 14.674C248.099 14.3293 248.191 13.926 248.191 13.464ZM253.161 16.599C252.596 16.599 252.083 16.4707 251.621 16.214C251.166 15.9573 250.807 15.5943 250.543 15.125C250.286 14.6483 250.158 14.0983 250.158 13.475C250.158 12.859 250.29 12.3163 250.554 11.847C250.825 11.3703 251.192 11.0073 251.654 10.758C252.116 10.5013 252.633 10.373 253.205 10.373C253.777 10.373 254.294 10.5013 254.756 10.758C255.218 11.0073 255.581 11.3667 255.845 11.836C256.116 12.3053 256.252 12.8517 256.252 13.475C256.252 14.0983 256.112 14.6483 255.834 15.125C255.562 15.5943 255.192 15.9573 254.723 16.214C254.253 16.4707 253.733 16.599 253.161 16.599ZM253.161 15.719C253.52 15.719 253.857 15.6347 254.173 15.466C254.488 15.2973 254.741 15.0443 254.932 14.707C255.13 14.3697 255.229 13.959 255.229 13.475C255.229 12.991 255.133 12.5803 254.943 12.243C254.752 11.9057 254.503 11.6563 254.195 11.495C253.887 11.3263 253.553 11.242 253.194 11.242C252.827 11.242 252.49 11.3263 252.182 11.495C251.881 11.6563 251.639 11.9057 251.456 12.243C251.272 12.5803 251.181 12.991 251.181 13.475C251.181 13.9663 251.269 14.3807 251.445 14.718C251.628 15.0553 251.87 15.3083 252.171 15.477C252.471 15.6383 252.801 15.719 253.161 15.719ZM260.505 10.362C261.238 10.362 261.832 10.5857 262.287 11.033C262.741 11.473 262.969 12.111 262.969 12.947V16.5H261.979V13.09C261.979 12.4887 261.828 12.0303 261.528 11.715C261.227 11.3923 260.816 11.231 260.296 11.231C259.768 11.231 259.346 11.396 259.031 11.726C258.723 12.056 258.569 12.5363 258.569 13.167V16.5H257.568V10.472H258.569V11.33C258.767 11.022 259.034 10.7837 259.372 10.615C259.716 10.4463 260.094 10.362 260.505 10.362ZM265.121 9.493C264.93 9.493 264.769 9.427 264.637 9.295C264.505 9.163 264.439 9.00167 264.439 8.811C264.439 8.62033 264.505 8.459 264.637 8.327C264.769 8.195 264.93 8.129 265.121 8.129C265.304 8.129 265.458 8.195 265.583 8.327C265.715 8.459 265.781 8.62033 265.781 8.811C265.781 9.00167 265.715 9.163 265.583 9.295C265.458 9.427 265.304 9.493 265.121 9.493ZM265.605 10.472V16.5H264.604V10.472H265.605ZM268.312 11.594C268.517 11.2347 268.818 10.9413 269.214 10.714C269.61 10.4867 270.061 10.373 270.567 10.373C271.11 10.373 271.597 10.5013 272.03 10.758C272.463 11.0147 272.804 11.3777 273.053 11.847C273.302 12.309 273.427 12.848 273.427 13.464C273.427 14.0727 273.302 14.6153 273.053 15.092C272.804 15.5687 272.459 15.939 272.019 16.203C271.586 16.467 271.102 16.599 270.567 16.599C270.046 16.599 269.588 16.4853 269.192 16.258C268.803 16.0307 268.51 15.741 268.312 15.389V16.5H267.311V8.36H268.312V11.594ZM272.404 13.464C272.404 13.0093 272.312 12.6133 272.129 12.276C271.946 11.9387 271.696 11.682 271.381 11.506C271.073 11.33 270.732 11.242 270.358 11.242C269.991 11.242 269.65 11.3337 269.335 11.517C269.027 11.693 268.778 11.9533 268.587 12.298C268.404 12.6353 268.312 13.0277 268.312 13.475C268.312 13.9297 268.404 14.3293 268.587 14.674C268.778 15.0113 269.027 15.2717 269.335 15.455C269.65 15.631 269.991 15.719 270.358 15.719C270.732 15.719 271.073 15.631 271.381 15.455C271.696 15.2717 271.946 15.0113 272.129 14.674C272.312 14.3293 272.404 13.926 272.404 13.464ZM275.745 8.36V16.5H274.744V8.36H275.745ZM282.951 13.255C282.951 13.4457 282.94 13.6473 282.918 13.86H278.1C278.137 14.454 278.339 14.9197 278.705 15.257C279.079 15.587 279.53 15.752 280.058 15.752C280.491 15.752 280.85 15.653 281.136 15.455C281.43 15.2497 281.635 14.9783 281.752 14.641H282.83C282.669 15.2203 282.346 15.6933 281.862 16.06C281.378 16.4193 280.777 16.599 280.058 16.599C279.486 16.599 278.973 16.4707 278.518 16.214C278.071 15.9573 277.719 15.5943 277.462 15.125C277.206 14.6483 277.077 14.0983 277.077 13.475C277.077 12.8517 277.202 12.3053 277.451 11.836C277.701 11.3667 278.049 11.0073 278.496 10.758C278.951 10.5013 279.472 10.373 280.058 10.373C280.63 10.373 281.136 10.4977 281.576 10.747C282.016 10.9963 282.354 11.341 282.588 11.781C282.83 12.2137 282.951 12.705 282.951 13.255ZM281.917 13.046C281.917 12.6647 281.833 12.3383 281.664 12.067C281.496 11.7883 281.265 11.5793 280.971 11.44C280.685 11.2933 280.366 11.22 280.014 11.22C279.508 11.22 279.076 11.3813 278.716 11.704C278.364 12.0267 278.163 12.474 278.111 13.046H281.917ZM286.407 16.599C285.945 16.599 285.53 16.522 285.164 16.368C284.797 16.2067 284.507 15.9867 284.295 15.708C284.082 15.422 283.965 15.0957 283.943 14.729H284.977C285.006 15.0297 285.145 15.2753 285.395 15.466C285.651 15.6567 285.985 15.752 286.396 15.752C286.777 15.752 287.078 15.6677 287.298 15.499C287.518 15.3303 287.628 15.1177 287.628 14.861C287.628 14.597 287.51 14.4027 287.276 14.278C287.041 14.146 286.678 14.0177 286.187 13.893C285.739 13.7757 285.373 13.6583 285.087 13.541C284.808 13.4163 284.566 13.2367 284.361 13.002C284.163 12.76 284.064 12.4447 284.064 12.056C284.064 11.748 284.155 11.4657 284.339 11.209C284.522 10.9523 284.782 10.7507 285.12 10.604C285.457 10.45 285.842 10.373 286.275 10.373C286.942 10.373 287.481 10.5417 287.892 10.879C288.302 11.2163 288.522 11.6783 288.552 12.265H287.551C287.529 11.9497 287.4 11.6967 287.166 11.506C286.938 11.3153 286.63 11.22 286.242 11.22C285.882 11.22 285.596 11.297 285.384 11.451C285.171 11.605 285.065 11.8067 285.065 12.056C285.065 12.254 285.127 12.419 285.252 12.551C285.384 12.6757 285.545 12.7783 285.736 12.859C285.934 12.9323 286.205 13.0167 286.55 13.112C286.982 13.2293 287.334 13.3467 287.606 13.464C287.877 13.574 288.108 13.7427 288.299 13.97C288.497 14.1973 288.599 14.4943 288.607 14.861C288.607 15.191 288.515 15.488 288.332 15.752C288.148 16.016 287.888 16.225 287.551 16.379C287.221 16.5257 286.839 16.599 286.407 16.599Z" fill="#4B5563"/>
<path d="M205 11.4688H200.333V13.3437H205V11.4688Z" fill="#313232"/>
<path d="M200.666 18.4998C200.578 18.4998 200.493 18.4504 200.431 18.3625C200.368 18.2746 200.333 18.1553 200.333 18.031V13.3437C200.333 13.2194 200.368 13.1002 200.431 13.0123C200.493 12.9244 200.578 12.875 200.666 12.875C200.755 12.875 200.84 12.9244 200.902 13.0123C200.965 13.1002 201 13.2194 201 13.3437V18.031C201 18.1553 200.965 18.2746 200.902 18.3625C200.84 18.4504 200.755 18.4998 200.666 18.4998Z" fill="#313232"/>
<path d="M205.666 18.4998C205.595 18.4998 205.525 18.4673 205.467 18.4071C205.41 18.3469 205.368 18.2622 205.347 18.1656L204.347 13.4783C204.334 13.4193 204.33 13.3574 204.335 13.2962C204.339 13.235 204.352 13.1756 204.373 13.1214C204.394 13.0672 204.422 13.0193 204.456 12.9804C204.49 12.9415 204.529 12.9124 204.571 12.8947C204.613 12.8771 204.657 12.8712 204.7 12.8774C204.744 12.8837 204.786 12.9019 204.825 12.9311C204.863 12.9603 204.897 12.9999 204.925 13.0476C204.952 13.0954 204.973 13.1503 204.986 13.2092L205.986 17.8965C205.998 17.9555 206.002 18.0174 205.998 18.0786C205.994 18.1399 205.981 18.1993 205.96 18.2535C205.939 18.3077 205.911 18.3556 205.877 18.3945C205.843 18.4333 205.804 18.4624 205.762 18.4801C205.731 18.493 205.699 18.4997 205.666 18.4998V18.4998Z" fill="#313232"/>
<path d="M204.666 11.9377C204.578 11.9377 204.493 11.8883 204.431 11.8004C204.368 11.7125 204.333 11.5933 204.333 11.469C204.332 8.93291 204.656 6.41737 205.291 4.04337L205.354 3.80478C205.385 3.6883 205.448 3.59387 205.528 3.54227C205.608 3.49067 205.7 3.48613 205.783 3.52964C205.866 3.57315 205.933 3.66115 205.97 3.77428C206.006 3.88742 206.01 4.01641 205.979 4.1329L205.915 4.37148C205.309 6.6406 204.999 9.04498 205 11.469C205 11.5933 204.965 11.7125 204.902 11.8004C204.84 11.8883 204.755 11.9377 204.666 11.9377Z" fill="#313232"/>
<path d="M191.667 11.4688H187V13.3437H191.667V11.4688Z" fill="#313232"/>
<path d="M191.333 18.4998C191.245 18.4998 191.16 18.4504 191.098 18.3625C191.035 18.2746 191 18.1553 191 18.031V13.3437C191 13.2194 191.035 13.1002 191.098 13.0123C191.16 12.9244 191.245 12.875 191.333 12.875C191.422 12.875 191.507 12.9244 191.569 13.0123C191.632 13.1002 191.667 13.2194 191.667 13.3437V18.031C191.667 18.1553 191.632 18.2746 191.569 18.3625C191.507 18.4504 191.422 18.4998 191.333 18.4998Z" fill="#313232"/>
<path d="M186.333 18.4998C186.301 18.4999 186.269 18.4933 186.238 18.4801C186.196 18.4624 186.157 18.4333 186.123 18.3945C186.089 18.3556 186.061 18.3077 186.04 18.2535C186.019 18.1993 186.006 18.1399 186.002 18.0786C185.997 18.0174 186.001 17.9555 186.014 17.8965L187.014 13.2092C187.039 13.0901 187.097 12.9901 187.175 12.9311C187.253 12.8721 187.344 12.859 187.429 12.8947C187.514 12.9304 187.585 13.0119 187.627 13.1214C187.669 13.2308 187.678 13.3592 187.653 13.4783L186.653 18.1656C186.632 18.2622 186.59 18.3469 186.532 18.4071C186.475 18.4673 186.405 18.4998 186.333 18.4998Z" fill="#313232"/>
<path d="M187.333 11.9368C187.245 11.9368 187.16 11.8874 187.098 11.7995C187.035 11.7116 187 11.5924 187 11.4681C187.001 9.04436 186.691 6.6403 186.085 4.37148L186.021 4.1329C186.006 4.07522 185.999 4.01386 186 3.95233C186.002 3.8908 186.012 3.8303 186.03 3.77428C186.048 3.71827 186.074 3.66783 186.106 3.62585C186.138 3.58388 186.176 3.55118 186.217 3.52964C186.258 3.5081 186.301 3.49812 186.345 3.50029C186.389 3.50246 186.432 3.51672 186.472 3.54227C186.512 3.56782 186.547 3.60416 186.577 3.6492C186.607 3.69424 186.63 3.74711 186.646 3.80478L186.709 4.04337C187.343 6.41707 187.668 8.93229 187.667 11.4681C187.667 11.5924 187.632 11.7116 187.569 11.7995C187.507 11.8874 187.422 11.9368 187.333 11.9368Z" fill="#313232"/>
<path d="M197.333 18.4995H194.666C194.578 18.4995 194.493 18.4501 194.431 18.3622C194.368 18.2743 194.333 18.1551 194.333 18.0308C194.333 17.9065 194.368 17.7873 194.431 17.6994C194.493 17.6114 194.578 17.5621 194.666 17.5621H196.8C196.581 17.1118 196.263 16.7743 195.896 16.6007C195.829 16.5699 195.771 16.5104 195.73 16.4305C195.689 16.3506 195.666 16.2545 195.666 16.1559V7.71873C195.666 7.59442 195.701 7.47519 195.764 7.38729C195.826 7.29938 195.911 7.25 196 7.25C196.088 7.25 196.173 7.29938 196.235 7.38729C196.298 7.47519 196.333 7.59442 196.333 7.71873V15.8362C196.641 16.0318 196.916 16.3145 197.143 16.6666C197.369 17.0187 197.542 17.4327 197.649 17.8827C197.666 17.9531 197.671 18.0282 197.663 18.1016C197.655 18.175 197.634 18.2447 197.603 18.305C197.573 18.3652 197.532 18.4143 197.485 18.4481C197.438 18.4819 197.386 18.4995 197.333 18.4995V18.4995Z" fill="#2E0D1A"/>
<path d="M201.334 5.84375H190.667V7.71867H201.334V5.84375Z" fill="#313232"/>
<path d="M192 5.84375L195.88 9.74124C196.1 9.96187 196.368 10.0658 196.637 10.0344C196.907 10.0031 197.159 9.8386 197.35 9.57016L200 5.84375" fill="#87BE56"/>
<path d="M205.915 4.37148L205.979 4.1329C206.01 4.01641 206.006 3.88742 205.97 3.77428C205.933 3.66115 205.866 3.57315 205.783 3.52964C205.7 3.48613 205.608 3.49067 205.528 3.54227C205.448 3.59387 205.385 3.6883 205.354 3.80478L205.291 4.04337C204.697 6.27002 204.376 8.62188 204.34 10.9993H200.666C200.578 10.9993 200.493 11.0487 200.431 11.1366C200.368 11.2245 200.333 11.3437 200.333 11.4681V18.0303C200.333 18.1546 200.368 18.2738 200.431 18.3617C200.493 18.4496 200.578 18.499 200.666 18.499C200.755 18.499 200.84 18.4496 200.902 18.3617C200.965 18.2738 201 18.1546 201 18.0303V13.8117H204.418L205.347 18.1648C205.368 18.2614 205.41 18.3461 205.467 18.4063C205.525 18.4665 205.595 18.499 205.666 18.499C205.699 18.4989 205.731 18.4922 205.762 18.4793C205.804 18.4617 205.843 18.4326 205.877 18.3937C205.911 18.3548 205.939 18.3069 205.96 18.2527C205.981 18.1985 205.994 18.1391 205.998 18.0778C206.002 18.0166 205.998 17.9547 205.986 17.8958L205 13.2741V11.4681C204.999 9.04436 205.309 6.6403 205.915 4.37148V4.37148ZM204.333 12.8742H201V11.9368H204.333V12.8742Z" fill="black"/>
<path d="M186.709 4.04337L186.646 3.80478C186.63 3.74711 186.607 3.69424 186.577 3.6492C186.547 3.60416 186.512 3.56782 186.472 3.54227C186.432 3.51672 186.389 3.50246 186.345 3.50029C186.301 3.49812 186.258 3.5081 186.217 3.52964C186.176 3.55118 186.138 3.58388 186.106 3.62585C186.074 3.66783 186.048 3.71827 186.03 3.77428C186.012 3.8303 186.002 3.8908 186 3.95233C185.999 4.01386 186.006 4.07522 186.021 4.1329L186.085 4.37148C186.691 6.6406 187.001 9.04498 187 11.469V13.275L186.014 17.8967C186.002 17.9557 185.997 18.0175 186.002 18.0788C186.006 18.14 186.019 18.1994 186.04 18.2536C186.061 18.3078 186.089 18.3557 186.123 18.3946C186.157 18.4335 186.196 18.4626 186.238 18.4803C186.269 18.4934 186.301 18.5 186.333 18.4999C186.405 18.5 186.475 18.4674 186.532 18.4072C186.59 18.347 186.632 18.2623 186.653 18.1657L187.581 13.8126H191V18.0312C191 18.1555 191.035 18.2748 191.098 18.3627C191.16 18.4506 191.245 18.4999 191.333 18.4999C191.422 18.4999 191.507 18.4506 191.569 18.3627C191.632 18.2748 191.667 18.1555 191.667 18.0312V11.469C191.667 11.3447 191.632 11.2255 191.569 11.1375C191.507 11.0496 191.422 11.0003 191.333 11.0003H187.659C187.624 8.62251 187.303 6.27032 186.709 4.04337V4.04337ZM187.667 11.9377H191V12.8752H187.667V11.9377Z" fill="black"/>
<defs>
<filter id="filter0_d_1_4316" x="0" y="34.5" width="103.639" height="25.3398" filterUnits="userSpaceOnUse" color-interpolation-filters="sRGB">
<feFlood flood-opacity="0" result="BackgroundImageFix"/>
<feColorMatrix in="SourceAlpha" type="matrix" values="0 0 0 0 0 0 0 0 0 0 0 0 0 0 0 0 0 0 127 0" result="hardAlpha"/>
<feOffset dy="4"/>
<feGaussianBlur stdDeviation="2"/>
<feComposite in2="hardAlpha" operator="out"/>
<feColorMatrix type="matrix" values="0 0 0 0 0 0 0 0 0 0 0 0 0 0 0 0 0 0 0.25 0"/>
<feBlend mode="normal" in2="BackgroundImageFix" result="effect1_dropShadow_1_4316"/>
<feBlend mode="normal" in="SourceGraphic" in2="effect1_dropShadow_1_4316" result="shape"/>
</filter>
</defs>
</svg>
