<svg width="234" height="53" viewBox="0 0 234 53" fill="none" xmlns="http://www.w3.org/2000/svg">
<circle cx="25" cy="15" r="14.5" stroke="#87BE56"/>
<circle cx="115" cy="15" r="14.5" stroke="#87BE56"/>
<circle cx="203" cy="15" r="14.5" stroke="#87BE56" fill="#87BE56"/>
<path d="M39.5 14.5H99.5" stroke="#FFAD3F"/>
<path d="M129 14H189" stroke="#FFAD3F"/>
<path d="M3.504 49.084C2.952 49.084 2.464 48.988 2.04 48.796C1.624 48.604 1.296 48.336 1.056 47.992C0.816 47.648 0.688 47.264 0.672 46.84H1.56C1.6 47.248 1.78 47.608 2.1 47.92C2.42 48.224 2.888 48.376 3.504 48.376C4.072 48.376 4.52 48.232 4.848 47.944C5.184 47.648 5.352 47.276 5.352 46.828C5.352 46.468 5.26 46.18 5.076 45.964C4.892 45.74 4.664 45.576 4.392 45.472C4.12 45.36 3.744 45.24 3.264 45.112C2.704 44.96 2.26 44.812 1.932 44.668C1.604 44.524 1.324 44.3 1.092 43.996C0.86 43.692 0.744 43.28 0.744 42.76C0.744 42.328 0.856 41.944 1.08 41.608C1.304 41.264 1.62 40.996 2.028 40.804C2.436 40.612 2.904 40.516 3.432 40.516C4.208 40.516 4.832 40.708 5.304 41.092C5.784 41.468 6.06 41.956 6.132 42.556H5.22C5.164 42.212 4.976 41.908 4.656 41.644C4.336 41.372 3.904 41.236 3.36 41.236C2.856 41.236 2.436 41.372 2.1 41.644C1.764 41.908 1.596 42.272 1.596 42.736C1.596 43.088 1.688 43.372 1.872 43.588C2.056 43.804 2.284 43.968 2.556 44.08C2.836 44.192 3.212 44.312 3.684 44.44C4.228 44.592 4.668 44.744 5.004 44.896C5.34 45.04 5.624 45.264 5.856 45.568C6.088 45.872 6.204 46.28 6.204 46.792C6.204 47.184 6.1 47.556 5.892 47.908C5.684 48.26 5.376 48.544 4.968 48.76C4.56 48.976 4.072 49.084 3.504 49.084ZM10.6952 49.096C10.0792 49.096 9.52319 48.96 9.02719 48.688C8.53919 48.408 8.15119 48.016 7.86319 47.512C7.58319 47 7.44319 46.404 7.44319 45.724C7.44319 45.044 7.58719 44.452 7.87519 43.948C8.16319 43.436 8.55519 43.044 9.05119 42.772C9.54719 42.492 10.1032 42.352 10.7192 42.352C11.3352 42.352 11.8912 42.492 12.3872 42.772C12.8912 43.044 13.2832 43.436 13.5632 43.948C13.8512 44.452 13.9952 45.044 13.9952 45.724C13.9952 46.396 13.8512 46.988 13.5632 47.5C13.2752 48.012 12.8792 48.408 12.3752 48.688C11.8712 48.96 11.3112 49.096 10.6952 49.096ZM10.6952 48.364C11.1272 48.364 11.5272 48.268 11.8952 48.076C12.2632 47.876 12.5592 47.58 12.7832 47.188C13.0152 46.788 13.1312 46.3 13.1312 45.724C13.1312 45.148 13.0192 44.664 12.7952 44.272C12.5712 43.872 12.2752 43.576 11.9072 43.384C11.5392 43.184 11.1392 43.084 10.7072 43.084C10.2752 43.084 9.87519 43.184 9.50719 43.384C9.13919 43.576 8.84319 43.872 8.61919 44.272C8.40319 44.664 8.29519 45.148 8.29519 45.724C8.29519 46.3 8.40319 46.788 8.61919 47.188C8.84319 47.58 9.13519 47.876 9.49519 48.076C9.86319 48.268 10.2632 48.364 10.6952 48.364ZM16.3664 40.12V49H15.5264V40.12H16.3664ZM18.6886 41.212C18.5206 41.212 18.3766 41.152 18.2566 41.032C18.1366 40.912 18.0766 40.764 18.0766 40.588C18.0766 40.412 18.1366 40.268 18.2566 40.156C18.3766 40.036 18.5206 39.976 18.6886 39.976C18.8566 39.976 19.0006 40.036 19.1206 40.156C19.2406 40.268 19.3006 40.412 19.3006 40.588C19.3006 40.764 19.2406 40.912 19.1206 41.032C19.0006 41.152 18.8566 41.212 18.6886 41.212ZM19.1086 42.448V49H18.2686V42.448H19.1086ZM20.6268 45.724C20.6268 45.044 20.7628 44.452 21.0348 43.948C21.3068 43.436 21.6828 43.044 22.1628 42.772C22.6428 42.492 23.1908 42.352 23.8068 42.352C24.6148 42.352 25.2788 42.552 25.7988 42.952C26.3268 43.352 26.6668 43.896 26.8188 44.584H25.9188C25.8068 44.112 25.5628 43.744 25.1868 43.48C24.8188 43.208 24.3588 43.072 23.8068 43.072C23.3668 43.072 22.9708 43.172 22.6188 43.372C22.2668 43.572 21.9868 43.872 21.7788 44.272C21.5788 44.664 21.4788 45.148 21.4788 45.724C21.4788 46.3 21.5788 46.788 21.7788 47.188C21.9868 47.588 22.2668 47.888 22.6188 48.088C22.9708 48.288 23.3668 48.388 23.8068 48.388C24.3588 48.388 24.8188 48.256 25.1868 47.992C25.5628 47.72 25.8068 47.344 25.9188 46.864H26.8188C26.6668 47.536 26.3268 48.076 25.7988 48.484C25.2708 48.892 24.6068 49.096 23.8068 49.096C23.1908 49.096 22.6428 48.96 22.1628 48.688C21.6828 48.408 21.3068 48.016 21.0348 47.512C20.7628 47 20.6268 46.404 20.6268 45.724ZM28.7902 41.212C28.6222 41.212 28.4782 41.152 28.3582 41.032C28.2382 40.912 28.1782 40.764 28.1782 40.588C28.1782 40.412 28.2382 40.268 28.3582 40.156C28.4782 40.036 28.6222 39.976 28.7902 39.976C28.9582 39.976 29.1022 40.036 29.2222 40.156C29.3422 40.268 29.4022 40.412 29.4022 40.588C29.4022 40.764 29.3422 40.912 29.2222 41.032C29.1022 41.152 28.9582 41.212 28.7902 41.212ZM29.2102 42.448V49H28.3702V42.448H29.2102ZM32.2043 43.156V47.224C32.2043 47.624 32.2803 47.9 32.4323 48.052C32.5843 48.204 32.8523 48.28 33.2363 48.28H34.0043V49H33.1043C32.5123 49 32.0723 48.864 31.7843 48.592C31.4963 48.312 31.3523 47.856 31.3523 47.224V43.156H30.4403V42.448H31.3523V40.804H32.2043V42.448H34.0043V43.156H32.2043ZM35.0057 45.712C35.0057 45.04 35.1377 44.452 35.4017 43.948C35.6737 43.436 36.0457 43.044 36.5177 42.772C36.9977 42.492 37.5377 42.352 38.1377 42.352C38.7617 42.352 39.2977 42.496 39.7457 42.784C40.2017 43.072 40.5297 43.44 40.7297 43.888V42.448H41.5697V49H40.7297V47.548C40.5217 47.996 40.1897 48.368 39.7337 48.664C39.2857 48.952 38.7497 49.096 38.1257 49.096C37.5337 49.096 36.9977 48.956 36.5177 48.676C36.0457 48.396 35.6737 48 35.4017 47.488C35.1377 46.976 35.0057 46.384 35.0057 45.712ZM40.7297 45.724C40.7297 45.196 40.6217 44.732 40.4057 44.332C40.1897 43.932 39.8937 43.624 39.5177 43.408C39.1497 43.192 38.7417 43.084 38.2937 43.084C37.8297 43.084 37.4137 43.188 37.0457 43.396C36.6777 43.604 36.3857 43.908 36.1697 44.308C35.9617 44.7 35.8577 45.168 35.8577 45.712C35.8577 46.248 35.9617 46.72 36.1697 47.128C36.3857 47.528 36.6777 47.836 37.0457 48.052C37.4137 48.26 37.8297 48.364 38.2937 48.364C38.7417 48.364 39.1497 48.256 39.5177 48.04C39.8937 47.824 40.1897 47.516 40.4057 47.116C40.6217 46.716 40.7297 46.252 40.7297 45.724ZM43.1033 45.712C43.1033 45.04 43.2393 44.452 43.5113 43.948C43.7833 43.436 44.1553 43.044 44.6273 42.772C45.1073 42.492 45.6473 42.352 46.2473 42.352C46.8233 42.352 47.3433 42.492 47.8073 42.772C48.2713 43.052 48.6113 43.416 48.8273 43.864V40.12H49.6673V49H48.8273V47.536C48.6273 47.992 48.2993 48.368 47.8433 48.664C47.3873 48.952 46.8513 49.096 46.2353 49.096C45.6353 49.096 45.0953 48.956 44.6153 48.676C44.1433 48.396 43.7713 48 43.4993 47.488C43.2353 46.976 43.1033 46.384 43.1033 45.712ZM48.8273 45.724C48.8273 45.196 48.7193 44.732 48.5033 44.332C48.2873 43.932 47.9913 43.624 47.6153 43.408C47.2473 43.192 46.8393 43.084 46.3913 43.084C45.9273 43.084 45.5113 43.188 45.1433 43.396C44.7753 43.604 44.4833 43.908 44.2673 44.308C44.0593 44.7 43.9553 45.168 43.9553 45.712C43.9553 46.248 44.0593 46.72 44.2673 47.128C44.4833 47.528 44.7753 47.836 45.1433 48.052C45.5113 48.26 45.9273 48.364 46.3913 48.364C46.8393 48.364 47.2473 48.256 47.6153 48.04C47.9913 47.824 48.2873 47.516 48.5033 47.116C48.7193 46.716 48.8273 46.252 48.8273 45.724ZM54.453 49.096C53.837 49.096 53.281 48.96 52.785 48.688C52.297 48.408 51.909 48.016 51.621 47.512C51.341 47 51.201 46.404 51.201 45.724C51.201 45.044 51.345 44.452 51.633 43.948C51.921 43.436 52.313 43.044 52.809 42.772C53.305 42.492 53.861 42.352 54.477 42.352C55.093 42.352 55.649 42.492 56.145 42.772C56.649 43.044 57.041 43.436 57.321 43.948C57.609 44.452 57.753 45.044 57.753 45.724C57.753 46.396 57.609 46.988 57.321 47.5C57.033 48.012 56.637 48.408 56.133 48.688C55.629 48.96 55.069 49.096 54.453 49.096ZM54.453 48.364C54.885 48.364 55.285 48.268 55.653 48.076C56.021 47.876 56.317 47.58 56.541 47.188C56.773 46.788 56.889 46.3 56.889 45.724C56.889 45.148 56.777 44.664 56.553 44.272C56.329 43.872 56.033 43.576 55.665 43.384C55.297 43.184 54.897 43.084 54.465 43.084C54.033 43.084 53.633 43.184 53.265 43.384C52.897 43.576 52.601 43.872 52.377 44.272C52.161 44.664 52.053 45.148 52.053 45.724C52.053 46.3 52.161 46.788 52.377 47.188C52.601 47.58 52.893 47.876 53.253 48.076C53.621 48.268 54.021 48.364 54.453 48.364Z" fill="#4B5563"/>
<path d="M86.324 43.024C86.324 43.744 86.088 44.324 85.616 44.764C85.144 45.204 84.436 45.424 83.492 45.424H81.8V49H80.96V40.612H83.492C84.428 40.612 85.132 40.832 85.604 41.272C86.084 41.712 86.324 42.296 86.324 43.024ZM83.492 44.704C84.804 44.704 85.46 44.144 85.46 43.024C85.46 42.464 85.304 42.04 84.992 41.752C84.68 41.464 84.18 41.32 83.492 41.32H81.8V44.704H83.492ZM88.5734 43.612C88.7574 43.204 89.0374 42.888 89.4134 42.664C89.7974 42.44 90.2654 42.328 90.8174 42.328V43.204H90.5894C89.9814 43.204 89.4934 43.368 89.1254 43.696C88.7574 44.024 88.5734 44.572 88.5734 45.34V49H87.7334V42.448H88.5734V43.612ZM98.0091 45.388C98.0091 45.676 98.0011 45.896 97.9851 46.048H92.5491C92.5731 46.544 92.6931 46.968 92.9091 47.32C93.1251 47.672 93.4091 47.94 93.7611 48.124C94.1131 48.3 94.4971 48.388 94.9131 48.388C95.4571 48.388 95.9131 48.256 96.2811 47.992C96.6571 47.728 96.9051 47.372 97.0251 46.924H97.9131C97.7531 47.564 97.4091 48.088 96.8811 48.496C96.3611 48.896 95.7051 49.096 94.9131 49.096C94.2971 49.096 93.7451 48.96 93.2571 48.688C92.7691 48.408 92.3851 48.016 92.1051 47.512C91.8331 47 91.6971 46.404 91.6971 45.724C91.6971 45.044 91.8331 44.448 92.1051 43.936C92.3771 43.424 92.7571 43.032 93.2451 42.76C93.7331 42.488 94.2891 42.352 94.9131 42.352C95.5371 42.352 96.0811 42.488 96.5451 42.76C97.0171 43.032 97.3771 43.4 97.6251 43.864C97.8811 44.32 98.0091 44.828 98.0091 45.388ZM97.1571 45.364C97.1651 44.876 97.0651 44.46 96.8571 44.116C96.6571 43.772 96.3811 43.512 96.0291 43.336C95.6771 43.16 95.2931 43.072 94.8771 43.072C94.2531 43.072 93.7211 43.272 93.2811 43.672C92.8411 44.072 92.5971 44.636 92.5491 45.364H97.1571ZM100.374 43.888C100.582 43.448 100.91 43.084 101.358 42.796C101.814 42.5 102.354 42.352 102.978 42.352C103.57 42.352 104.102 42.492 104.574 42.772C105.054 43.044 105.426 43.436 105.69 43.948C105.962 44.452 106.098 45.04 106.098 45.712C106.098 46.384 105.962 46.976 105.69 47.488C105.426 48 105.054 48.396 104.574 48.676C104.102 48.956 103.57 49.096 102.978 49.096C102.362 49.096 101.826 48.952 101.37 48.664C100.914 48.368 100.582 48 100.374 47.56V52.096H99.5459V42.448H100.374V43.888ZM105.246 45.712C105.246 45.168 105.138 44.7 104.922 44.308C104.714 43.908 104.426 43.604 104.058 43.396C103.69 43.188 103.274 43.084 102.81 43.084C102.362 43.084 101.95 43.192 101.574 43.408C101.206 43.624 100.914 43.932 100.698 44.332C100.482 44.732 100.374 45.196 100.374 45.724C100.374 46.252 100.482 46.716 100.698 47.116C100.914 47.516 101.206 47.824 101.574 48.04C101.95 48.256 102.362 48.364 102.81 48.364C103.274 48.364 103.69 48.26 104.058 48.052C104.426 47.836 104.714 47.528 104.922 47.128C105.138 46.72 105.246 46.248 105.246 45.712ZM107.26 45.712C107.26 45.04 107.392 44.452 107.656 43.948C107.928 43.436 108.3 43.044 108.772 42.772C109.252 42.492 109.792 42.352 110.392 42.352C111.016 42.352 111.552 42.496 112 42.784C112.456 43.072 112.784 43.44 112.984 43.888V42.448H113.824V49H112.984V47.548C112.776 47.996 112.444 48.368 111.988 48.664C111.54 48.952 111.004 49.096 110.38 49.096C109.788 49.096 109.252 48.956 108.772 48.676C108.3 48.396 107.928 48 107.656 47.488C107.392 46.976 107.26 46.384 107.26 45.712ZM112.984 45.724C112.984 45.196 112.876 44.732 112.66 44.332C112.444 43.932 112.148 43.624 111.772 43.408C111.404 43.192 110.996 43.084 110.548 43.084C110.084 43.084 109.668 43.188 109.3 43.396C108.932 43.604 108.64 43.908 108.424 44.308C108.216 44.7 108.112 45.168 108.112 45.712C108.112 46.248 108.216 46.72 108.424 47.128C108.64 47.528 108.932 47.836 109.3 48.052C109.668 48.26 110.084 48.364 110.548 48.364C110.996 48.364 111.404 48.256 111.772 48.04C112.148 47.824 112.444 47.516 112.66 47.116C112.876 46.716 112.984 46.252 112.984 45.724ZM116.581 43.612C116.765 43.204 117.045 42.888 117.421 42.664C117.805 42.44 118.273 42.328 118.825 42.328V43.204H118.597C117.989 43.204 117.501 43.368 117.133 43.696C116.765 44.024 116.581 44.572 116.581 45.34V49H115.741V42.448H116.581V43.612ZM119.705 45.712C119.705 45.04 119.837 44.452 120.101 43.948C120.373 43.436 120.745 43.044 121.217 42.772C121.697 42.492 122.237 42.352 122.837 42.352C123.461 42.352 123.997 42.496 124.445 42.784C124.901 43.072 125.229 43.44 125.429 43.888V42.448H126.269V49H125.429V47.548C125.221 47.996 124.889 48.368 124.433 48.664C123.985 48.952 123.449 49.096 122.825 49.096C122.233 49.096 121.697 48.956 121.217 48.676C120.745 48.396 120.373 48 120.101 47.488C119.837 46.976 119.705 46.384 119.705 45.712ZM125.429 45.724C125.429 45.196 125.321 44.732 125.105 44.332C124.889 43.932 124.593 43.624 124.217 43.408C123.849 43.192 123.441 43.084 122.993 43.084C122.529 43.084 122.113 43.188 121.745 43.396C121.377 43.604 121.085 43.908 120.869 44.308C120.661 44.7 120.557 45.168 120.557 45.712C120.557 46.248 120.661 46.72 120.869 47.128C121.085 47.528 121.377 47.836 121.745 48.052C122.113 48.26 122.529 48.364 122.993 48.364C123.441 48.364 123.849 48.256 124.217 48.04C124.593 47.824 124.889 47.516 125.105 47.116C125.321 46.716 125.429 46.252 125.429 45.724ZM127.803 45.724C127.803 45.044 127.939 44.452 128.211 43.948C128.483 43.436 128.859 43.044 129.339 42.772C129.819 42.492 130.367 42.352 130.983 42.352C131.791 42.352 132.455 42.552 132.975 42.952C133.503 43.352 133.843 43.896 133.995 44.584H133.095C132.983 44.112 132.739 43.744 132.363 43.48C131.995 43.208 131.535 43.072 130.983 43.072C130.543 43.072 130.147 43.172 129.795 43.372C129.443 43.572 129.163 43.872 128.955 44.272C128.755 44.664 128.655 45.148 128.655 45.724C128.655 46.3 128.755 46.788 128.955 47.188C129.163 47.588 129.443 47.888 129.795 48.088C130.147 48.288 130.543 48.388 130.983 48.388C131.535 48.388 131.995 48.256 132.363 47.992C132.739 47.72 132.983 47.344 133.095 46.864H133.995C133.843 47.536 133.503 48.076 132.975 48.484C132.447 48.892 131.783 49.096 130.983 49.096C130.367 49.096 129.819 48.96 129.339 48.688C128.859 48.408 128.483 48.016 128.211 47.512C127.939 47 127.803 46.404 127.803 45.724ZM135.966 41.212C135.798 41.212 135.654 41.152 135.534 41.032C135.414 40.912 135.354 40.764 135.354 40.588C135.354 40.412 135.414 40.268 135.534 40.156C135.654 40.036 135.798 39.976 135.966 39.976C136.134 39.976 136.278 40.036 136.398 40.156C136.518 40.268 136.578 40.412 136.578 40.588C136.578 40.764 136.518 40.912 136.398 41.032C136.278 41.152 136.134 41.212 135.966 41.212ZM136.386 42.448V49H135.546V42.448H136.386ZM141.156 49.096C140.54 49.096 139.984 48.96 139.488 48.688C139 48.408 138.612 48.016 138.324 47.512C138.044 47 137.904 46.404 137.904 45.724C137.904 45.044 138.048 44.452 138.336 43.948C138.624 43.436 139.016 43.044 139.512 42.772C140.008 42.492 140.564 42.352 141.18 42.352C141.796 42.352 142.352 42.492 142.848 42.772C143.352 43.044 143.744 43.436 144.024 43.948C144.312 44.452 144.456 45.044 144.456 45.724C144.456 46.396 144.312 46.988 144.024 47.5C143.736 48.012 143.34 48.408 142.836 48.688C142.332 48.96 141.772 49.096 141.156 49.096ZM141.156 48.364C141.588 48.364 141.988 48.268 142.356 48.076C142.724 47.876 143.02 47.58 143.244 47.188C143.476 46.788 143.592 46.3 143.592 45.724C143.592 45.148 143.48 44.664 143.256 44.272C143.032 43.872 142.736 43.576 142.368 43.384C142 43.184 141.6 43.084 141.168 43.084C140.736 43.084 140.336 43.184 139.968 43.384C139.6 43.576 139.304 43.872 139.08 44.272C138.864 44.664 138.756 45.148 138.756 45.724C138.756 46.3 138.864 46.788 139.08 47.188C139.304 47.58 139.596 47.876 139.956 48.076C140.324 48.268 140.724 48.364 141.156 48.364ZM142.308 40.456L139.848 41.884V41.236L142.308 39.7V40.456ZM149.059 42.328C149.843 42.328 150.483 42.572 150.979 43.06C151.475 43.54 151.723 44.24 151.723 45.16V49H150.895V45.256C150.895 44.544 150.715 44 150.355 43.624C150.003 43.248 149.519 43.06 148.903 43.06C148.271 43.06 147.767 43.26 147.391 43.66C147.015 44.06 146.827 44.648 146.827 45.424V49H145.987V42.448H146.827V43.564C147.035 43.164 147.335 42.86 147.727 42.652C148.119 42.436 148.563 42.328 149.059 42.328Z" fill="#4B5563"/>
<path d="M173.8 41.296V44.428H176.98V45.124H173.8V48.304H177.34V49H172.96V40.6H177.34V41.296H173.8ZM182.067 42.328C182.851 42.328 183.491 42.572 183.987 43.06C184.483 43.54 184.731 44.24 184.731 45.16V49H183.903V45.256C183.903 44.544 183.723 44 183.363 43.624C183.011 43.248 182.527 43.06 181.911 43.06C181.279 43.06 180.775 43.26 180.399 43.66C180.023 44.06 179.835 44.648 179.835 45.424V49H178.995V42.448H179.835V43.564C180.043 43.164 180.343 42.86 180.735 42.652C181.127 42.436 181.571 42.328 182.067 42.328ZM187.681 43.156V47.224C187.681 47.624 187.757 47.9 187.909 48.052C188.061 48.204 188.329 48.28 188.713 48.28H189.481V49H188.581C187.989 49 187.549 48.864 187.261 48.592C186.973 48.312 186.829 47.856 186.829 47.224V43.156H185.917V42.448H186.829V40.804H187.681V42.448H189.481V43.156H187.681ZM191.706 43.612C191.89 43.204 192.17 42.888 192.546 42.664C192.93 42.44 193.398 42.328 193.95 42.328V43.204H193.722C193.114 43.204 192.626 43.368 192.258 43.696C191.89 44.024 191.706 44.572 191.706 45.34V49H190.866V42.448H191.706V43.612ZM201.142 45.388C201.142 45.676 201.134 45.896 201.118 46.048H195.682C195.706 46.544 195.826 46.968 196.042 47.32C196.258 47.672 196.542 47.94 196.894 48.124C197.246 48.3 197.63 48.388 198.046 48.388C198.59 48.388 199.046 48.256 199.414 47.992C199.79 47.728 200.038 47.372 200.158 46.924H201.046C200.886 47.564 200.542 48.088 200.014 48.496C199.494 48.896 198.838 49.096 198.046 49.096C197.43 49.096 196.878 48.96 196.39 48.688C195.902 48.408 195.518 48.016 195.238 47.512C194.966 47 194.83 46.404 194.83 45.724C194.83 45.044 194.966 44.448 195.238 43.936C195.51 43.424 195.89 43.032 196.378 42.76C196.866 42.488 197.422 42.352 198.046 42.352C198.67 42.352 199.214 42.488 199.678 42.76C200.15 43.032 200.51 43.4 200.758 43.864C201.014 44.32 201.142 44.828 201.142 45.388ZM200.29 45.364C200.298 44.876 200.198 44.46 199.99 44.116C199.79 43.772 199.514 43.512 199.162 43.336C198.81 43.16 198.426 43.072 198.01 43.072C197.386 43.072 196.854 43.272 196.414 43.672C195.974 44.072 195.73 44.636 195.682 45.364H200.29ZM205.427 42.352C206.043 42.352 206.579 42.496 207.035 42.784C207.491 43.072 207.819 43.436 208.019 43.876V42.448H208.859V49.168C208.859 49.768 208.727 50.3 208.463 50.764C208.207 51.228 207.847 51.584 207.383 51.832C206.919 52.088 206.391 52.216 205.799 52.216C204.959 52.216 204.259 52.016 203.699 51.616C203.147 51.216 202.803 50.672 202.667 49.984H203.495C203.639 50.44 203.911 50.804 204.311 51.076C204.719 51.348 205.215 51.484 205.799 51.484C206.223 51.484 206.603 51.392 206.939 51.208C207.275 51.032 207.539 50.768 207.731 50.416C207.923 50.064 208.019 49.648 208.019 49.168V47.548C207.811 47.996 207.479 48.368 207.023 48.664C206.575 48.952 206.043 49.096 205.427 49.096C204.827 49.096 204.287 48.956 203.807 48.676C203.335 48.396 202.963 48 202.691 47.488C202.427 46.976 202.295 46.384 202.295 45.712C202.295 45.04 202.427 44.452 202.691 43.948C202.963 43.436 203.335 43.044 203.807 42.772C204.287 42.492 204.827 42.352 205.427 42.352ZM208.019 45.724C208.019 45.196 207.911 44.732 207.695 44.332C207.479 43.932 207.183 43.624 206.807 43.408C206.439 43.192 206.031 43.084 205.583 43.084C205.119 43.084 204.703 43.188 204.335 43.396C203.967 43.604 203.675 43.908 203.459 44.308C203.251 44.7 203.147 45.168 203.147 45.712C203.147 46.248 203.251 46.72 203.459 47.128C203.675 47.528 203.967 47.836 204.335 48.052C204.703 48.26 205.119 48.364 205.583 48.364C206.031 48.364 206.439 48.256 206.807 48.04C207.183 47.824 207.479 47.516 207.695 47.116C207.911 46.716 208.019 46.252 208.019 45.724ZM210.392 45.712C210.392 45.04 210.524 44.452 210.788 43.948C211.06 43.436 211.432 43.044 211.904 42.772C212.384 42.492 212.924 42.352 213.524 42.352C214.148 42.352 214.684 42.496 215.132 42.784C215.588 43.072 215.916 43.44 216.116 43.888V42.448H216.956V49H216.116V47.548C215.908 47.996 215.576 48.368 215.12 48.664C214.672 48.952 214.136 49.096 213.512 49.096C212.92 49.096 212.384 48.956 211.904 48.676C211.432 48.396 211.06 48 210.788 47.488C210.524 46.976 210.392 46.384 210.392 45.712ZM216.116 45.724C216.116 45.196 216.008 44.732 215.792 44.332C215.576 43.932 215.28 43.624 214.904 43.408C214.536 43.192 214.128 43.084 213.68 43.084C213.216 43.084 212.8 43.188 212.432 43.396C212.064 43.604 211.772 43.908 211.556 44.308C211.348 44.7 211.244 45.168 211.244 45.712C211.244 46.248 211.348 46.72 211.556 47.128C211.772 47.528 212.064 47.836 212.432 48.052C212.8 48.26 213.216 48.364 213.68 48.364C214.128 48.364 214.536 48.256 214.904 48.04C215.28 47.824 215.576 47.516 215.792 47.116C216.008 46.716 216.116 46.252 216.116 45.724ZM218.49 45.712C218.49 45.04 218.626 44.452 218.898 43.948C219.17 43.436 219.542 43.044 220.014 42.772C220.494 42.492 221.034 42.352 221.634 42.352C222.21 42.352 222.73 42.492 223.194 42.772C223.658 43.052 223.998 43.416 224.214 43.864V40.12H225.054V49H224.214V47.536C224.014 47.992 223.686 48.368 223.23 48.664C222.774 48.952 222.238 49.096 221.622 49.096C221.022 49.096 220.482 48.956 220.002 48.676C219.53 48.396 219.158 48 218.886 47.488C218.622 46.976 218.49 46.384 218.49 45.712ZM224.214 45.724C224.214 45.196 224.106 44.732 223.89 44.332C223.674 43.932 223.378 43.624 223.002 43.408C222.634 43.192 222.226 43.084 221.778 43.084C221.314 43.084 220.898 43.188 220.53 43.396C220.162 43.604 219.87 43.908 219.654 44.308C219.446 44.7 219.342 45.168 219.342 45.712C219.342 46.248 219.446 46.72 219.654 47.128C219.87 47.528 220.162 47.836 220.53 48.052C220.898 48.26 221.314 48.364 221.778 48.364C222.226 48.364 222.634 48.256 223.002 48.04C223.378 47.824 223.674 47.516 223.89 47.116C224.106 46.716 224.214 46.252 224.214 45.724ZM229.84 49.096C229.224 49.096 228.668 48.96 228.172 48.688C227.684 48.408 227.296 48.016 227.008 47.512C226.728 47 226.588 46.404 226.588 45.724C226.588 45.044 226.732 44.452 227.02 43.948C227.308 43.436 227.7 43.044 228.196 42.772C228.692 42.492 229.248 42.352 229.864 42.352C230.48 42.352 231.036 42.492 231.532 42.772C232.036 43.044 232.428 43.436 232.708 43.948C232.996 44.452 233.14 45.044 233.14 45.724C233.14 46.396 232.996 46.988 232.708 47.5C232.42 48.012 232.024 48.408 231.52 48.688C231.016 48.96 230.456 49.096 229.84 49.096ZM229.84 48.364C230.272 48.364 230.672 48.268 231.04 48.076C231.408 47.876 231.704 47.58 231.928 47.188C232.16 46.788 232.276 46.3 232.276 45.724C232.276 45.148 232.164 44.664 231.94 44.272C231.716 43.872 231.42 43.576 231.052 43.384C230.684 43.184 230.284 43.084 229.852 43.084C229.42 43.084 229.02 43.184 228.652 43.384C228.284 43.576 227.988 43.872 227.764 44.272C227.548 44.664 227.44 45.148 227.44 45.724C227.44 46.3 227.548 46.788 227.764 47.188C227.988 47.58 228.28 47.876 228.64 48.076C229.008 48.268 229.408 48.364 229.84 48.364Z" fill="#4B5563"/>
</svg>
