<svg width="30" height="30" viewBox="0 0 30 30" fill="none" xmlns="http://www.w3.org/2000/svg">
<path d="M30 15.0762H29V16.1275H30V15.0762Z" fill="#4B5563"/>
<path d="M28.5 5.76261H17.7025L12.5585 0.439642C12.2727 0.157449 11.893 0 11.498 0C11.103 0 10.7233 0.157449 10.4375 0.439642L5.293 5.76261H1.5C1.10217 5.76261 0.720645 5.92616 0.43934 6.21725C0.158035 6.50833 0 6.90316 0 7.3148V22.3193C0 22.731 0.158035 23.1258 0.43934 23.4169C0.720645 23.708 1.10217 23.8715 1.5 23.8715H12.8755L18.3585 29.5453C18.4978 29.6895 18.6632 29.8038 18.8451 29.8818C19.0271 29.9599 19.2222 30 19.4193 30C19.6163 30 19.8113 29.9599 19.9933 29.8818C20.1753 29.8038 20.3407 29.6895 20.48 29.5453L25.963 23.8715H28.5C28.8978 23.8715 29.2794 23.708 29.5606 23.4169C29.8419 23.1258 30 22.731 30 22.3193V17.1619H29V22.3193C29 22.4565 28.9473 22.5881 28.8535 22.6852C28.7598 22.7822 28.6326 22.8367 28.5 22.8367H19.5V21.8019H18.5V22.8367H8.5V15.7841L8.864 16.5721C8.90465 16.6599 8.96845 16.7341 9.0481 16.7861C9.1277 16.8381 9.21985 16.8658 9.314 16.8659H9.3235C9.41965 16.8641 9.51325 16.8336 9.59305 16.778C9.6729 16.7225 9.73555 16.6443 9.7735 16.5529L10.1365 15.6816L10.9785 16.0536C11.0719 16.0948 11.1753 16.1055 11.2747 16.0844C11.3742 16.0633 11.4652 16.0114 11.5354 15.9355C11.6056 15.8596 11.6518 15.7633 11.6679 15.6596C11.684 15.5558 11.6692 15.4495 11.6255 15.3546L10.4725 12.8509L10.842 12.9782C10.9539 13.0172 11.0755 13.014 11.1854 12.9691C11.2952 12.9243 11.3861 12.8406 11.442 12.733C11.5666 12.4875 11.6737 12.233 11.7625 11.9714H17.5V10.9366H12.0065C12.046 10.5929 12.046 10.2455 12.0065 9.90178H17.5V8.86699H11.7625C11.6734 8.60493 11.5658 8.35006 11.4405 8.10435C11.3846 7.99673 11.2937 7.91312 11.1839 7.86821C11.074 7.82335 10.9524 7.82009 10.8405 7.8591L8.5 8.66676V6.7974H18.5V7.83219H19.5V6.7974H28.5C28.6326 6.7974 28.7598 6.85194 28.8535 6.94895C28.9473 7.04596 29 7.17758 29 7.3148V8.86699H20.5V9.90178H29V10.9366H20.5V11.9714H29V14.041H30V7.3148C30 6.90316 29.8419 6.50833 29.5606 6.21725C29.2794 5.92616 28.8978 5.76261 28.5 5.76261ZM24.55 23.8715L19.7735 28.8137C19.6785 28.908 19.552 28.9608 19.4202 28.9608C19.2885 28.9608 19.162 28.908 19.067 28.8137L14.29 23.8715H24.55ZM1 7.3148C1 7.17758 1.05268 7.04596 1.14645 6.94895C1.24022 6.85194 1.36739 6.7974 1.5 6.7974H5.5V8.66417L3.1945 7.85962C3.08164 7.82019 2.95888 7.82376 2.84834 7.86965C2.73779 7.9156 2.64671 8.00081 2.5915 8.11004C2.46978 8.35456 2.36453 8.60746 2.2765 8.86699H1V7.3148ZM5.5 10.9366V11.082L3.2965 11.8513C3.22601 11.678 3.16622 11.5001 3.1175 11.3189C2.96151 10.7305 2.96151 10.1094 3.1175 9.52098C3.166 9.33916 3.22597 9.16077 3.297 8.98703L5.5 9.75588V9.90178H4.5405V10.9366H5.5ZM1 9.90178H2.034C1.99425 10.2455 1.99425 10.5929 2.034 10.9366H1V9.90178ZM5.5 22.8367H1.5C1.36739 22.8367 1.24022 22.7822 1.14645 22.6852C1.05268 22.5881 1 22.4565 1 22.3193V11.9714H2.2765C2.36472 12.2308 2.46996 12.4837 2.5915 12.7283C2.63382 12.8122 2.69754 12.8824 2.77573 12.9314C2.85392 12.9803 2.94359 13.0062 3.035 13.0062C3.08943 13.0062 3.14349 12.997 3.195 12.9787L3.5235 12.8644L2.3735 15.3546C2.32966 15.4495 2.3148 15.5559 2.3309 15.6598C2.347 15.7636 2.3933 15.86 2.46362 15.9359C2.53395 16.0118 2.62497 16.0637 2.72455 16.0848C2.82413 16.1058 2.92754 16.095 3.021 16.0536L3.863 15.6816L4.226 16.5529C4.26395 16.6443 4.3266 16.7225 4.40645 16.778C4.48625 16.8336 4.57985 16.8641 4.676 16.8659H4.6855C4.77965 16.8658 4.8718 16.8381 4.9514 16.7861C5.03105 16.7341 5.09485 16.6599 5.1355 16.5721L5.5 15.7841V22.8367ZM4.7085 15.098L4.584 14.7989C4.53175 14.6731 4.4334 14.5739 4.3105 14.5229C4.18765 14.472 4.05025 14.4736 3.9285 14.5273L3.847 14.5635L4.8445 12.4034L6.0825 11.9714H6.15L4.7085 15.098ZM7.5 22.8367H6.5V13.6182L7 12.5348L7.5 13.6182V22.8367ZM7.5 10.9366H6.5V9.90178H7.5V10.9366ZM7.5 8.86699H6.5V6.7974H7.5V8.86699ZM10.0715 14.5273C9.94975 14.4736 9.81235 14.472 9.6895 14.5229C9.5666 14.5739 9.46825 14.6731 9.416 14.7989L9.2915 15.098L7.85 11.9714H7.9215L9.157 12.3977L10.157 14.564L10.0715 14.5273ZM10.741 8.98444C10.8131 9.15833 10.8737 9.3371 10.9225 9.51943C11.0785 10.1079 11.0785 10.7289 10.9225 11.3174C10.874 11.5003 10.8133 11.6796 10.741 11.8539L8.5 11.0814V10.9366H9.5V9.90178H8.5V9.75691L10.741 8.98444ZM6.707 5.76261L11.1445 1.17124C11.2395 1.07682 11.3663 1.0241 11.498 1.0241C11.6298 1.0241 11.7564 1.07682 11.8515 1.17124L16.2885 5.76261H6.707Z" fill="#4B5563"/>
<path d="M25.9442 15.1777L21.3477 19.9342L22.0548 20.6659L26.6513 15.9094L25.9442 15.1777Z" fill="#4B5563"/>
<path d="M23.1153 14.4448C22.9055 14.2277 22.6382 14.0799 22.3472 14.02C22.0563 13.9602 21.7547 13.991 21.4806 14.1084C21.2065 14.2259 20.9723 14.4248 20.8075 14.6801C20.6427 14.9354 20.5547 15.2354 20.5547 15.5424C20.5547 15.8494 20.6427 16.1495 20.8075 16.4048C20.9723 16.66 21.2065 16.8589 21.4806 16.9764C21.7547 17.0939 22.0563 17.1247 22.3472 17.0648C22.6382 17.0049 22.9055 16.8571 23.1153 16.6401C23.2546 16.4959 23.3651 16.3248 23.4405 16.1365C23.5159 15.9482 23.5547 15.7463 23.5547 15.5424C23.5547 15.3386 23.5159 15.1367 23.4405 14.9484C23.3651 14.76 23.2546 14.5889 23.1153 14.4448ZM22.4083 15.9085C22.3383 15.9808 22.2492 16.03 22.1522 16.0499C22.0553 16.0699 21.9548 16.0596 21.8634 16.0204C21.7721 15.9812 21.694 15.9149 21.6391 15.8298C21.5842 15.7448 21.5549 15.6448 21.5549 15.5424C21.5549 15.4401 21.5842 15.3401 21.6391 15.2551C21.694 15.1699 21.7721 15.1037 21.8634 15.0644C21.9548 15.0253 22.0553 15.015 22.1522 15.035C22.2492 15.0549 22.3383 15.1041 22.4083 15.1764C22.4547 15.2244 22.4916 15.2815 22.5168 15.3443C22.542 15.4071 22.5549 15.4744 22.5549 15.5424C22.5549 15.6104 22.542 15.6778 22.5168 15.7406C22.4916 15.8034 22.4547 15.8604 22.4083 15.9085Z" fill="#4B5563"/>
<path d="M26.3 21.4852C26.5966 21.4852 26.8864 21.3941 27.133 21.2236C27.3796 21.0532 27.5718 20.8108 27.6854 20.5273C27.7989 20.2438 27.8287 19.9319 27.771 19.6308C27.7132 19.3298 27.5706 19.0533 27.361 18.8362C27.0752 18.5539 26.6953 18.3965 26.3002 18.3965C25.9052 18.3965 25.5253 18.5539 25.2395 18.8362C25.0299 19.0533 24.8873 19.3298 24.8295 19.6307C24.7718 19.9317 24.8015 20.2436 24.915 20.5271C25.0285 20.8106 25.2206 21.0529 25.4671 21.2234C25.7136 21.394 26.0035 21.4851 26.3 21.4852ZM25.947 19.5678C26.0407 19.4709 26.1678 19.4165 26.3002 19.4165C26.4327 19.4165 26.5597 19.4709 26.6535 19.5678C26.7235 19.6401 26.7712 19.7322 26.7906 19.8327C26.8099 19.9331 26.8001 20.0372 26.7623 20.1317C26.7244 20.2263 26.6604 20.3072 26.5781 20.364C26.4959 20.421 26.3992 20.4513 26.3002 20.4513C26.2013 20.4513 26.1046 20.421 26.0224 20.364C25.9401 20.3072 25.876 20.2263 25.8382 20.1317C25.8004 20.0372 25.7905 19.9331 25.8099 19.8327C25.8293 19.7322 25.877 19.6401 25.947 19.5678Z" fill="#4B5563"/>
<path d="M11 18.6973H9.5V19.7321H11V18.6973Z" fill="#4B5563"/>
<path d="M17.5 18.6973H12V19.7321H17.5V18.6973Z" fill="#4B5563"/>
<path d="M19.5 8.86719H18.5V10.4194H19.5V8.86719Z" fill="#4B5563"/>
<path d="M19.5 11.4551H18.5V13.0073H19.5V11.4551Z" fill="#4B5563"/>
<path d="M19.5 14.041H18.5V15.5932H19.5V14.041Z" fill="#4B5563"/>
<path d="M19.5 16.6289H18.5V18.1811H19.5V16.6289Z" fill="#4B5563"/>
<path d="M19.5 19.2148H18.5V20.767H19.5V19.2148Z" fill="#4B5563"/>
<path d="M17.5 20.7676H9.5V21.8024H17.5V20.7676Z" fill="#4B5563"/>
</svg>
