<svg width="20" height="20" viewBox="0 0 20 20" fill="none" xmlns="http://www.w3.org/2000/svg">
<path d="M6.15385 6.24992H7.69231V16.2498H6.15385V6.24992ZM9.23077 6.24992H10.7692V16.2498H9.23077V6.24992ZM12.3077 6.24992H13.8462V16.2498H12.3077V6.24992ZM0 2.49997H20V3.74995H0V2.49997ZM13.8462 2.49997H12.3077V1.87498C12.3077 1.49998 12 1.24998 11.5385 1.24998H8.46154C8 1.24998 7.69231 1.49998 7.69231 1.87498V2.49997H6.15385V1.87498C6.15385 0.81249 7.15385 0 8.46154 0H11.5385C12.8462 0 13.8462 0.81249 13.8462 1.87498V2.49997Z" fill="#FFAD3F"/>
<path d="M14.615 19.9998H5.38424C4.15347 19.9998 3.07655 19.1873 2.9227 18.1873L1.53809 3.1875L3.07655 3.0625L4.46116 18.0623C4.46116 18.4373 4.9227 18.7498 5.38424 18.7498H14.615C15.0765 18.7498 15.4612 18.4373 15.5381 18.0623L16.9227 3.0625L18.4612 3.1875L17.0765 18.1873C16.9227 19.1873 15.8458 19.9998 14.615 19.9998Z" fill="#FFAD3F"/>
</svg>
