<svg viewBox="0 0 30 30" fill="none" xmlns="http://www.w3.org/2000/svg">
<path d="M29.8293 21.6368C29.7146 21.3533 29.5452 21.0952 29.3309 20.8775C29.1166 20.6597 28.8616 20.4866 28.5805 20.3679C28.2994 20.2493 27.9977 20.1875 27.6928 20.1861C27.3878 20.1847 27.0856 20.2438 26.8034 20.3598L20.219 22.6854C20.2722 22.3672 20.2558 22.0411 20.1711 21.7298C20.0863 21.4185 19.9351 21.1294 19.728 20.8825C19.5209 20.6356 19.2628 20.4369 18.9716 20.3C18.6803 20.1632 18.3629 20.0915 18.0414 20.0899H14.3172C14.124 20.0902 13.9337 20.0421 13.7638 19.9498L10.1948 18.055C9.87547 17.8878 9.52056 17.8005 9.16034 17.8007H4.5569V15.9371C4.5569 15.7994 4.5024 15.6674 4.4054 15.57C4.3084 15.4727 4.17684 15.418 4.03966 15.418H0.517241C0.38006 15.418 0.248498 15.4727 0.151496 15.57C0.0544949 15.6674 0 15.7994 0 15.9371V28.6551C0 28.7928 0.0544949 28.9249 0.151496 29.0222C0.248498 29.1196 0.38006 29.1742 0.517241 29.1742H4.03966C4.17684 29.1742 4.3084 29.1196 4.4054 29.0222C4.5024 28.9249 4.5569 28.7928 4.5569 28.6551V27.4664C5.99483 27.4041 7.53621 27.5079 8.80862 28.2399L13.1121 29.5065C13.7352 29.8314 14.4271 30.001 15.1293 30.001C15.8315 30.001 16.5234 29.8314 17.1466 29.5065L28.7483 24.5283C29.2522 24.2651 29.6414 23.8243 29.841 23.2905C30.0406 22.7567 30.0364 22.1677 29.8293 21.6368ZM3.52241 28.136H1.03448V16.4562H3.52241V28.136ZM28.3086 23.6354L16.7069 28.6084C16.2003 28.867 15.6381 28.9966 15.0698 28.9857C14.5016 28.9749 13.9447 28.8239 13.4483 28.5461L9.15517 27.2588C7.77414 26.4801 6.10862 26.3711 4.5569 26.4282V18.8181H9.16034C9.35287 18.8185 9.54256 18.8647 9.71379 18.9531L13.2828 20.8478C13.6008 21.019 13.9563 21.1082 14.3172 21.1074H18.0414C18.2801 21.1104 18.5124 21.1854 18.708 21.3227C18.9037 21.46 19.0537 21.6531 19.1385 21.8771C19.2233 22.1011 19.239 22.3454 19.1835 22.5785C19.1281 22.8115 19.0041 23.0224 18.8276 23.1838L17.9534 23.4901H12.3C12.1628 23.4901 12.0313 23.5447 11.9343 23.6421C11.8373 23.7394 11.7828 23.8715 11.7828 24.0092C11.7828 24.1468 11.8373 24.2789 11.9343 24.3762C12.0313 24.4736 12.1628 24.5283 12.3 24.5283H18.0414C18.5043 24.5291 18.9554 24.3818 19.3293 24.1078L27.181 21.3306C27.4814 21.2094 27.8163 21.2067 28.1186 21.3231C28.4209 21.4394 28.6681 21.6661 28.8108 21.9577C28.9535 22.2494 28.981 22.5843 28.8879 22.8955C28.7947 23.2066 28.5878 23.471 28.3086 23.6354Z" fill="#FFAD3F"/>
<path d="M11.7306 15.0333H26.5444C27.4603 15.0319 28.3383 14.6661 28.986 14.0161C29.6337 13.3661 29.9982 12.4849 29.9995 11.5657C29.9995 11.428 29.945 11.2959 29.848 11.1986C29.751 11.1012 29.6195 11.0466 29.4823 11.0466H28.8719C28.7427 8.63528 27.7302 6.35699 26.0288 4.64949C24.3274 2.942 22.0573 1.92578 19.6547 1.7961V0.519105C19.6547 0.38143 19.6002 0.249393 19.5032 0.152042C19.4062 0.0546912 19.2746 0 19.1375 0C19.0003 0 18.8687 0.0546912 18.7717 0.152042C18.6747 0.249393 18.6202 0.38143 18.6202 0.519105V1.7961C16.2176 1.92578 13.9475 2.942 12.2461 4.64949C10.5448 6.35699 9.53218 8.63528 9.40298 11.0466H8.79263C8.65545 11.0466 8.52389 11.1012 8.42689 11.1986C8.32989 11.2959 8.27539 11.428 8.27539 11.5657C8.27676 12.4849 8.64122 13.3661 9.2889 14.0161C9.93657 14.6661 10.8146 15.0319 11.7306 15.0333ZM19.1375 2.80836C21.36 2.81229 23.4973 3.66671 25.1139 5.19745C26.7304 6.72819 27.7045 8.82002 27.8375 11.0466H10.4375C10.5704 8.82002 11.5445 6.72819 13.161 5.19745C14.7776 3.66671 16.9149 2.81229 19.1375 2.80836ZM28.9081 12.0848C28.7893 12.6255 28.4904 13.1094 28.0607 13.4567C27.6309 13.804 27.0961 13.9939 26.5444 13.9951H11.7306C11.1788 13.9939 10.644 13.804 10.2142 13.4567C9.78452 13.1094 9.48559 12.6255 9.36677 12.0848H28.9081Z" fill="#FFAD3F"/>
<path d="M17.8917 3.94968C16.8785 4.11885 15.9093 4.48929 15.0406 5.03927C14.172 5.58925 13.4215 6.30772 12.8331 7.15255C12.7901 7.20823 12.7588 7.2721 12.7412 7.34028C12.7236 7.40847 12.7199 7.47954 12.7306 7.54917C12.7412 7.6188 12.7658 7.68553 12.803 7.7453C12.8401 7.80507 12.889 7.85663 12.9466 7.89683C13.0043 7.93704 13.0694 7.96505 13.1382 7.97917C13.207 7.99328 13.2779 7.9932 13.3466 7.97894C13.4153 7.96467 13.4805 7.93651 13.538 7.89618C13.5956 7.85585 13.6443 7.80418 13.6813 7.74433C14.1922 7.01514 14.8419 6.39474 15.5929 5.91895C16.344 5.44317 17.1815 5.12143 18.0572 4.97231C18.1853 4.9428 18.2973 4.86549 18.3707 4.75606C18.444 4.64663 18.4731 4.5133 18.452 4.38314C18.4309 4.25298 18.3613 4.13574 18.2572 4.05523C18.1532 3.97473 18.0225 3.93699 17.8917 3.94968Z" fill="#FFAD3F"/>
</svg>

