<svg viewBox="0 0 40 72" fill="#fff" xmlns="http://www.w3.org/2000/svg">
<ellipse cx="19.9197" cy="65.0313" rx="12.8787" ry="6.96879" fill="#4B5563"/>
<path d="M37.0849 25.8944C30.6781 39.2991 20 54.6187 20 54.6187C20 54.6187 9.32192 39.2991 2.91507 25.8944C-3.49178 12.4897 7.1863 1 20 1C32.8137 1 43.4918 12.4897 37.0849 25.8944Z" stroke="#4B5563" stroke-width="2" stroke-linecap="round" stroke-linejoin="round"/>
<path d="M16.5508 13.1426H16.6754V17.5294H16.5508V13.1426Z" fill="black" stroke="#4B5563"/>
<path d="M16.5517 20.6643L16.543 20.2477L16.1317 20.1811C15.4573 20.0719 14.8492 19.7382 14.4131 19.2444C13.9775 18.7511 13.741 18.1298 13.7402 17.4908V13.143H13.8648V17.4911C13.8648 18.2023 14.1599 18.8797 14.6777 19.3758C15.1948 19.8711 15.8917 20.1458 16.6141 20.1458C17.3365 20.1458 18.0333 19.8711 18.5504 19.3758C19.0682 18.8797 19.3633 18.2023 19.3633 17.4911V13.143H19.4879L19.4879 17.4906C19.4879 17.4907 19.4879 17.4908 19.4879 17.491C19.4871 18.1299 19.2506 18.7512 18.815 19.2444C18.3789 19.7382 17.7709 20.0719 17.0965 20.1811L16.653 20.2529L16.6771 20.7015L16.9956 26.6305L16.674 26.533L16.5517 20.6643ZM23.3618 13.143H23.3711L23.3803 13.1426C23.7622 13.1284 24.1427 13.19 24.4975 13.3232C24.8523 13.4563 25.1731 13.6577 25.4402 13.9136C25.7073 14.1695 25.915 14.4742 26.0514 14.808C26.1878 15.1417 26.2505 15.498 26.236 15.8548L26.2356 15.8649V15.875V21.2618C26.2356 21.3846 26.1929 21.5065 26.111 21.6076V21.2618V15.875C26.111 15.7393 26.0907 15.2047 25.8269 14.6466C25.5524 14.0661 25.0118 13.4628 24.0156 13.2773L23.4241 13.1671V13.7688V21.2618V21.7618H23.9241H25.611H25.923C25.8299 21.8115 25.7228 21.8392 25.611 21.8392H23.9241H23.4241V22.3392V26.5562L23.2994 26.6017V13.143H23.3618Z" fill="black" stroke="#4B5563"/>
<path d="M29.5948 17.7249C29.5948 22.9685 25.3028 27.2272 19.9986 27.2272C14.6943 27.2272 10.4023 22.9685 10.4023 17.7249C10.4023 12.4814 14.6943 8.22266 19.9986 8.22266C25.3028 8.22266 29.5948 12.4814 29.5948 17.7249Z" stroke="#4B5563"/>
<path d="M16.5527 13.1445H16.6773V17.5313H16.5527V13.1445Z" fill="#4B5563" stroke="#4B5563"/>
<path d="M16.5536 20.6662L16.5449 20.2497L16.1336 20.1831C15.4592 20.0739 14.8512 19.7401 14.4151 19.2463C13.9795 18.7531 13.7429 18.1317 13.7422 17.4927V13.1449H13.8668V17.493C13.8668 18.2042 14.1619 18.8817 14.6797 19.3777C15.1968 19.873 15.8936 20.1478 16.616 20.1478C17.3384 20.1478 18.0353 19.873 18.5524 19.3777C19.0702 18.8817 19.3653 18.2042 19.3653 17.493V13.1449H19.4899L19.4899 17.4925C19.4899 17.4926 19.4899 17.4928 19.4899 17.4929C19.4891 18.1318 19.2525 18.7531 18.817 19.2463C18.3809 19.7401 17.7728 20.0739 17.0984 20.1831L16.655 20.2549L16.6791 20.7034L16.9975 26.6325L16.6759 26.535L16.5536 20.6662ZM23.3637 13.1449H23.373L23.3823 13.1446C23.7642 13.1304 24.1446 13.192 24.4995 13.3251C24.8543 13.4583 25.175 13.6597 25.4422 13.9156C25.7092 14.1714 25.9169 14.4761 26.0534 14.8099C26.1898 15.1436 26.2524 15.4999 26.238 15.8567L26.2375 15.8669V15.877V21.2638C26.2375 21.3866 26.1949 21.5084 26.1129 21.6095V21.2638V15.877C26.1129 15.7413 26.0926 15.2067 25.8288 14.6486C25.5544 14.068 25.0137 13.4648 24.0176 13.2792L23.426 13.169V13.7708V21.2638V21.7638H23.926H25.6129H25.9249C25.8319 21.8135 25.7247 21.8411 25.6129 21.8411H23.926H23.426V22.3411V26.5582L23.3014 26.6036V13.1449H23.3637Z" fill="#4B5563" stroke="#4B5563"/>
<ellipse cx="19.919" cy="65.0307" rx="4.13389" ry="1.06582" fill="white"/>
<path d="M2.79492 22.1602L17.4141 48.875C17.4141 48.875 16.8846 38.1069 13.5669 32.4758C10.586 27.4162 2.79492 22.1602 2.79492 22.1602Z" fill="#FFAD3F" stroke="#FFAD3F"/>
</svg>
