<svg width="40" height="40" viewBox="0 0 30 30" fill="none" xmlns="http://www.w3.org/2000/svg">
<path d="M7.92934 25.7841L8.41977 26.0274C10.4635 27.2436 12.7522 27.8112 15.0411 27.8112C22.2346 27.8112 28.1201 21.9733 28.1201 14.8382C28.1201 11.4328 26.7304 8.10849 24.2782 5.67602C21.8258 3.24356 18.556 1.86523 15.0411 1.86523C7.84767 1.86523 1.96202 7.70306 2.04381 14.9193C2.04381 17.3517 2.7795 19.7031 4.00562 21.7301L4.33256 22.2166L3.02477 27.0004L7.92934 25.7841Z" fill="#00E676"/>
<path d="M25.6675 4.37837C22.8882 1.54059 19.0463 0 15.1226 0C6.78482 0 0.0817956 6.72971 0.163474 14.9189C0.163474 17.5135 0.899166 20.0271 2.1254 22.2973L0 30L7.92913 27.973C10.1362 29.1893 12.5884 29.7568 15.0409 29.7568C23.297 29.7568 30 23.027 30 14.838C30 10.8649 28.4468 7.13514 25.6676 4.37837H25.6675ZM15.1226 27.2434C12.9155 27.2434 10.7084 26.6759 8.8283 25.5407L8.33788 25.2974L3.59678 26.5136L4.82289 21.8921L4.49595 21.4055C0.899166 15.6488 2.61582 8.02701 8.50135 4.45939C14.3869 0.891878 21.9891 2.59462 25.5858 8.43244C29.1825 14.2703 27.4659 21.8108 21.5804 25.3785C19.7002 26.5946 17.4114 27.2432 15.1226 27.2432V27.2434ZM22.316 18.2434L21.4169 17.838C21.4169 17.838 20.1091 17.2704 19.2916 16.865C19.2098 16.865 19.1281 16.7839 19.0463 16.7839C18.801 16.7839 18.6376 16.865 18.4741 16.9461C18.4741 16.9461 18.3924 17.0272 17.248 18.3245C17.1662 18.4866 17.0027 18.5677 16.8392 18.5677H16.7574C16.6758 18.5677 16.5123 18.4866 16.4305 18.4056L16.0217 18.2434C15.1226 17.838 14.3052 17.3514 13.6512 16.7029C13.4877 16.5407 13.2424 16.3786 13.079 16.2164C12.5068 15.6488 11.9345 15.0001 11.5259 14.2704L11.4441 14.1082C11.3624 14.0271 11.3624 13.9461 11.2806 13.7839C11.2806 13.6218 11.2806 13.4596 11.3624 13.3785C11.3624 13.3785 11.6894 12.9731 11.9345 12.7299C12.0981 12.5676 12.1798 12.3245 12.3433 12.1623C12.5068 11.9191 12.5886 11.5948 12.5068 11.3515C12.4251 10.946 11.4441 8.75686 11.199 8.27041C11.0354 8.02713 10.872 7.94611 10.6267 7.86498H9.72758C9.56399 7.86498 9.40063 7.94611 9.23704 7.94611L9.15525 8.02713C8.99177 8.10826 8.8283 8.27041 8.66483 8.35143C8.50135 8.51369 8.41956 8.67572 8.25608 8.83799C7.68386 9.56772 7.35692 10.4596 7.35692 11.3515C7.35692 12.0001 7.52039 12.6488 7.76566 13.2164L7.84746 13.4596C8.58315 15.0001 9.56399 16.3786 10.872 17.5947L11.199 17.919C11.4441 18.1623 11.6894 18.3245 11.8529 18.5676C13.5695 20.0272 15.5313 21.0812 17.7384 21.6488C17.9837 21.7298 18.3106 21.7298 18.5559 21.811H19.3733C19.782 21.811 20.2724 21.6488 20.5995 21.4867C20.8446 21.3245 21.0081 21.3245 21.1716 21.1624L21.3352 21.0001C21.4986 20.8379 21.6621 20.7569 21.8256 20.5948C21.9891 20.4326 22.1525 20.2705 22.2343 20.1082C22.3978 19.7839 22.4795 19.3785 22.5613 18.9732V18.4056C22.5613 18.4056 22.4795 18.3245 22.316 18.2434Z" fill="white"/>
</svg>
