<svg width="27" height="37" viewBox="0 0 27 37" fill="" xmlns="http://www.w3.org/2000/svg">
<path d="M1.26164 35.9994C0.331706 29.1946 1.85998 27.6757 6.17816 26.6889C9.01154 25.4922 9.90222 24.7621 10.0021 23.0681M10.0021 23.0681C6.01248 20.2094 5.30386 18.1972 5.0856 14.2748C4.73231 9.80942 5.45768 8.59796 8.36327 7.0332H18.1963C20.087 7.85627 20.8911 8.63426 21.474 11.1712C21.6378 17.1235 21.3614 20.039 18.1963 22.0336C15.644 23.4998 13.7448 23.5737 10.0021 23.0681Z" stroke="" stroke-linecap="round"/>
<path d="M17.1038 25.1367C17.8269 26.2802 18.4554 26.7946 21.474 26.6885C25.3895 28.0623 26.4419 30.0031 25.8442 35.9991" stroke="" stroke-linecap="round"/>
<path d="M23.6591 14.7936C23.0043 9.61081 23.3685 8.03278 24.7516 6.51749C23.1234 4.30431 21.6817 3.36794 17.1037 2.89671L19.8351 1.8622C8.23225 -0.337611 5.01999 1.59055 2.90044 8.5865C2.52565 10.6002 2.54575 11.7497 2.90044 13.7576C3.26743 15.9975 3.16473 16.0318 4.82391 16.0004" stroke="" stroke-linecap="round"/>
<path d="M14.9187 26.1709C11.4694 26.5272 10.4533 26.0714 9.45587 24.6191" stroke="" stroke-linecap="round"/>
</svg>
